<svg width="139" height="138" viewBox="0 0 139 138" fill="none" xmlns="http://www.w3.org/2000/svg">
<circle cx="69.3047" cy="69" r="69" fill="#FFF061"/>
<circle cx="69.3047" cy="69" r="69" fill="url(#paint0_radial)"/>
<path d="M42.6088 85H47.8888V51.4H43.5208C41.1208 53.992 38.0488 55.768 34.8328 56.488V61.528C37.8568 60.904 40.3528 59.848 42.6088 57.88V85ZM65.1321 85.384C72.0441 85.384 77.2281 81.448 77.2281 75.208C77.2281 71.368 74.7801 68.104 71.0361 66.904C73.9161 65.656 75.7881 62.92 75.7881 59.944C75.7881 54.808 71.5161 51.016 65.1321 51.016C58.6041 51.016 54.2841 54.808 54.2841 59.944C54.2841 62.872 56.1561 65.608 59.0361 66.904C55.2921 68.104 52.8921 71.368 52.8921 75.208C52.8921 81.448 58.0761 85.384 65.1321 85.384ZM65.1321 64.84C61.7721 64.84 59.5641 62.968 59.5641 60.136C59.5161 57.304 61.7241 55.48 65.1321 55.48C68.3961 55.48 70.5561 57.304 70.5561 60.136C70.5081 62.968 68.3481 64.84 65.1321 64.84ZM65.0841 80.68C61.0521 80.68 58.4121 78.52 58.4121 75.16C58.4121 71.8 61.0521 69.592 65.0841 69.592C69.0681 69.592 71.6601 71.8 71.6601 75.16C71.6601 78.52 69.0681 80.68 65.0841 80.68ZM104.017 67H94.5129V57.496H90.0009V66.952H80.5449V71.464H90.0489V80.968H94.5609V71.512H104.017V67Z" fill="black"/>
<defs>
<radialGradient id="paint0_radial" cx="0" cy="0" r="1" gradientUnits="userSpaceOnUse" gradientTransform="translate(39.8047 38) rotate(73.5639) scale(104.26)">
<stop stop-color="#FFFAC8"/>
<stop offset="0.817708" stop-color="#FFF061" stop-opacity="0.06"/>
</radialGradient>
</defs>
</svg>
