<svg width="138" height="138" viewBox="0 0 138 138" fill="none" xmlns="http://www.w3.org/2000/svg">
<circle cx="69" cy="69" r="69" fill="#00DCC8"/>
<circle cx="69" cy="69" r="69" fill="url(#paint0_radial)"/>
<path d="M69.6144 62.392C66.1584 62.392 63.0384 64.12 61.4544 66.856C61.7424 60.472 66.0624 55.912 72.0144 55.912C74.6064 55.912 77.0064 56.872 78.8304 58.456L81.5184 54.28C78.8784 52.12 75.4704 51.016 71.9664 51.016C63.2304 51.016 56.2224 57.4 56.2224 69.832C56.2224 79.144 61.3584 85.384 68.9424 85.384C76.2384 85.384 81.4704 80.584 81.4704 73.864C81.4704 67.192 76.5264 62.392 69.6144 62.392ZM69.0384 80.44C65.0544 80.44 62.1744 77.608 62.1744 73.624C62.1744 69.688 65.0544 66.904 69.0384 66.904C73.0224 66.904 75.9024 69.688 75.8544 73.624C75.8544 77.608 73.0224 80.44 69.0384 80.44Z" fill="black"/>
<defs>
<radialGradient id="paint0_radial" cx="0" cy="0" r="1" gradientUnits="userSpaceOnUse" gradientTransform="translate(39.5 38) rotate(73.5639) scale(104.26)">
<stop stop-color="#A5FFF7"/>
<stop offset="0.84375" stop-color="#00DCC8"/>
</radialGradient>
</defs>
</svg>
