<svg width="139" height="138" viewBox="0 0 139 138" fill="none" xmlns="http://www.w3.org/2000/svg">
<circle cx="69" cy="69" r="69" fill="#58E3A4"/>
<circle cx="69" cy="69" r="69" fill="url(#paint0_radial)"/>
<path d="M68.5171 74.008C71.9731 74.008 75.0931 72.28 76.6771 69.544C76.3891 75.928 72.0691 80.44 66.1171 80.44C63.5251 80.44 61.1251 79.528 59.3011 77.944L56.6131 82.12C59.2531 84.28 62.6611 85.384 66.1651 85.384C74.9011 85.384 81.9091 79 81.9091 66.568C81.9091 57.256 76.7731 51.016 69.1891 51.016C61.8931 51.016 56.6611 55.816 56.6611 62.536C56.6611 69.208 61.6051 74.008 68.5171 74.008ZM69.0931 55.912C73.0771 55.912 75.9571 58.792 75.9571 62.776C75.9571 66.712 73.0771 69.496 69.0931 69.496C65.1091 69.496 62.2291 66.712 62.2771 62.776C62.2771 58.792 65.1091 55.912 69.0931 55.912Z" fill="black"/>
<defs>
<radialGradient id="paint0_radial" cx="0" cy="0" r="1" gradientUnits="userSpaceOnUse" gradientTransform="translate(39.5 38) rotate(73.5639) scale(104.26)">
<stop stop-color="#B0FFD0"/>
<stop offset="0.817708" stop-color="#58E3A4"/>
</radialGradient>
</defs>
</svg>
