<svg width="147" height="47" viewBox="0 0 147 47" fill="none" xmlns="http://www.w3.org/2000/svg">
<path d="M113.448 38.1655C112.485 37.0506 111.752 35.7565 111.29 34.3575L111.165 34.0057L111.04 33.5756L110.962 33.3098L110.836 32.8172L110.774 32.5278C110.711 32.2542 110.657 31.9649 110.61 31.6756C110.6 31.5705 110.585 31.466 110.563 31.3628L110.5 30.8545C110.513 30.7428 110.513 30.6301 110.5 30.5183L110.461 30.0883L132.355 24.8103C132.226 23.6768 131.889 22.5768 131.362 21.5654C130.55 19.7971 129.23 18.3107 127.569 17.2961C125.731 16.1331 123.665 15.376 121.51 15.0755L121.142 15.0208C119.843 14.8772 118.532 14.8772 117.233 15.0208C113.785 15.3936 110.548 16.8626 107.998 19.2118C105.48 21.5032 103.796 24.5679 103.213 27.9224L103.213 28.0553C103.174 28.2742 103.142 28.4853 103.119 28.7277C103.095 28.9701 103.119 29.0014 103.072 29.1578C103.082 29.2775 103.082 29.3978 103.072 29.5175C103.087 29.7257 103.087 29.9348 103.072 30.143L103.072 31.1517C103.123 32.9623 103.505 34.7484 104.198 36.4218C105.434 39.2898 107.478 41.7368 110.079 43.465C112.68 45.1933 115.728 46.1284 118.851 46.1566C121.492 46.21 124.108 45.6253 126.475 44.4521C128.816 43.2958 130.836 41.5796 132.355 39.4556L131.979 38.5095C130.431 41.4651 119.75 45.1401 113.448 38.1655ZM123.41 25.1778L110.391 28.3055C110.391 27.9145 110.391 27.5236 110.445 27.1561L110.445 27.0388C110.439 26.9138 110.439 26.7885 110.445 26.6635L110.508 26.1552C110.626 25.3418 110.809 24.539 111.055 23.7548C111.497 22.2996 112.173 20.9262 113.057 19.6888C113.863 18.5484 114.899 17.5895 116.099 16.8739C117.247 16.1877 118.561 15.8306 119.899 15.8418C121.765 15.8418 123.131 16.3631 123.996 17.4056C124.311 17.7689 124.574 18.1742 124.778 18.6098C125.646 20.8226 125.583 24.5054 123.41 25.1778Z" fill="#9A9A9A"/>
<path d="M74.3758 38.486C72.812 41.4729 62.1466 45.1401 55.8444 38.1732C54.8109 36.9689 54.0388 35.563 53.5768 34.0447C53.0331 32.323 52.7691 30.5252 52.7949 28.7199C52.7832 27.0343 53.0311 25.357 53.5299 23.7469C53.9716 22.2917 54.6477 20.9184 55.5316 19.681C56.3236 18.5498 57.3405 17.5942 58.5185 16.8739C59.6667 16.188 60.9813 15.831 62.3187 15.8418C64.1848 15.8418 65.5506 16.363 66.4159 17.4056C67.3077 18.5329 67.7679 19.9414 67.7139 21.3777C67.7329 22.1236 67.6218 22.8671 67.3855 23.5749L74.0317 22.0111C71.6156 15.7557 63.6088 14.8878 62.131 14.8878C49.4483 14.6845 42.4893 26.6165 46.5865 36.3357C47.8244 39.2055 49.8686 41.6544 52.471 43.3852C55.0734 45.116 58.1222 46.0543 61.2474 46.0862C63.8888 46.1396 66.504 45.5549 68.8711 44.3816C71.2126 43.2257 73.2324 41.5094 74.7511 39.3852L74.3758 38.486Z" fill="#9A9A9A"/>
<path d="M103.213 38.486C101.649 41.4729 90.9836 45.1401 84.6814 38.1732C83.6588 36.9769 82.8947 35.5819 82.4373 34.076C81.8937 32.3543 81.6297 30.5565 81.6554 28.7512C81.6437 27.0656 81.8916 25.3883 82.3904 23.7782C82.8295 22.3235 83.503 20.9501 84.3843 19.7122C85.1745 18.5711 86.1913 17.6049 87.3712 16.8739C88.5192 16.1876 89.8339 15.8306 91.1713 15.8417C93.0323 15.8417 94.398 16.363 95.2685 17.4056C96.1687 18.5296 96.6374 19.9384 96.59 21.3777C96.61 22.1243 96.4961 22.8684 96.2537 23.5749L102.861 22.0111C100.46 15.7557 92.4536 14.8956 90.9915 14.8956C78.3088 14.6923 71.3498 26.6244 75.447 36.3436C76.6768 39.2206 78.7169 41.678 81.3186 43.4161C83.9203 45.1543 86.9714 46.0983 90.1001 46.1331C92.7467 46.189 95.3676 45.6042 97.7394 44.4286C100.081 43.2724 102.1 41.5561 103.619 39.4321L103.213 38.486Z" fill="#9A9A9A"/>
<path d="M141.941 39.8777L141.941 -2.21135e-07L132.558 2.28319L132.495 2.28319L132.495 3.16675C132.824 3.16675 135.662 3.94867 135.662 5.90346L135.662 39.7369C135.662 44.0062 132.644 44.6239 130.603 44.7568L130.603 45.4684L147 45.4684L147 44.7568C144.967 44.6239 142.011 43.9984 141.941 39.8777Z" fill="#9A9A9A"/>
<path d="M28.5243 -9.8366e-07L19.2352 2.27537L19.1648 2.27537L19.1648 2.96346C19.4932 2.96346 22.2534 3.94085 21.5105 5.70016C17.9841 13.5037 6.5447 39.5493 5.94262 40.7221C3.96438 44.6317 1.1573 44.6317 6.28935e-05 44.7568L6.28624e-05 45.4684L14.5437 45.4684L14.5437 44.7412C14.5437 44.7412 9.02336 44.8037 9.02336 41.9185C9.02336 40.167 11.8773 33.2783 12.6514 31.3939L31.5972 26.7728C31.6442 26.8901 36.7422 39.2365 36.7422 41.8403C36.7422 44.6552 32.215 44.7412 32.0508 44.7412L32.0508 45.4527L51.0278 45.4527L51.0278 44.7412C49.6807 44.7641 48.3565 44.391 47.2195 43.6682C46.0825 42.9454 45.1827 41.9047 44.6318 40.6752C44.061 39.5493 28.5243 -9.8366e-07 28.5243 -9.8366e-07ZM30.9404 25.1777L13.449 29.4469C13.5428 29.2202 23.0587 6.91995 23.3246 6.35697C23.7234 7.28745 30.9326 25.1777 30.9326 25.1777L30.9404 25.1777Z" fill="#9A9A9A"/>
</svg>
