<svg width="16" height="16" fill="none" xmlns="http://www.w3.org/2000/svg"><g clip-path="url(#clip0)"><path d="M4.717 15.7a3.584 3.584 0 01-.83-.767 10.288 10.288 0 01-.709-.97 9.375 9.375 0 01-1.187-2.423c-.333-1.001-.495-1.96-.495-2.898 0-1.047.227-1.96.668-2.727.327-.6.813-1.102 1.4-1.454a3.733 3.733 0 011.893-.56c.234 0 .487.033.754.1.193.053.426.14.713.246.367.14.567.227.633.247.214.08.394.113.534.113.106 0 .26-.033.43-.086.096-.034.28-.094.54-.207.257-.093.461-.173.623-.233.247-.074.485-.14.7-.174.26-.04.518-.053.765-.033a4.54 4.54 0 011.294.28c.68.273 1.228.7 1.638 1.307-.174.106-.334.23-.484.366-.324.287-.6.627-.82 1.004a3.4 3.4 0 00-.429 1.68c.01.722.193 1.356.56 1.906.258.4.603.743 1.023 1.024.206.14.388.237.56.3a8.45 8.45 0 01-.27.734 9.464 9.464 0 01-.834 1.54c-.288.42-.514.733-.686.94-.268.32-.527.56-.787.73-.287.19-.623.292-.968.292-.233.01-.467-.02-.69-.085a6.651 6.651 0 01-.57-.215 4.641 4.641 0 00-.603-.227 3.113 3.113 0 00-1.55-.001 4.81 4.81 0 00-.604.216c-.28.117-.464.194-.57.227a2.98 2.98 0 01-.66.117c-.347 0-.67-.1-.99-.3l.008-.01zm4.57-12.307c-.454.227-.885.323-1.316.29-.067-.43 0-.872.18-1.357.16-.413.373-.787.666-1.12a3.606 3.606 0 011.087-.84c.44-.227.86-.347 1.26-.367.053.454 0 .9-.167 1.38-.152.427-.378.82-.666 1.174-.29.346-.65.633-1.058.84h.013z" fill="#fff"/></g><defs><clipPath id="clip0"><path fill="#fff" d="M0 0h16v16H0z"/></clipPath></defs></svg>