<svg width="295" height="304" viewBox="0 0 295 304" fill="none" xmlns="http://www.w3.org/2000/svg">
<path d="M164.871 298L158.823 287.44V286.032H159.527C161.234 286.032 162.535 285.787 163.431 285.296C164.348 284.805 164.882 283.92 165.031 282.64H158.823V280.592H164.999C164.786 279.397 164.22 278.533 163.303 278C162.407 277.467 161.148 277.2 159.527 277.2H158.823V275.152H172.071V277.2H166.023C167.047 278.032 167.655 279.163 167.847 280.592H172.071V282.64H167.911C167.762 284.197 167.164 285.413 166.119 286.288C165.095 287.141 163.73 287.685 162.023 287.92L168.135 298H164.871ZM180.271 298H183.791V275.6H180.879C179.279 277.328 177.231 278.512 175.087 278.992V282.352C177.103 281.936 178.767 281.232 180.271 279.92V298ZM194.903 298.256C199.767 298.256 202.903 295.184 202.903 290.544C202.903 286.064 199.863 283.088 195.319 283.088C193.751 283.088 192.023 283.792 190.935 284.784L191.831 278.864H201.271V275.6H189.079L187.287 287.984L190.007 288.56C191.063 286.992 192.567 286.128 194.519 286.128C197.335 286.128 199.127 287.824 199.127 290.544C199.127 293.2 197.399 294.96 194.775 294.96C192.343 294.96 190.551 293.584 190.135 291.44L186.711 292.048C187.319 295.824 190.519 298.256 194.903 298.256ZM221.251 298.256C226.883 298.256 230.115 293.68 230.115 286.8C230.115 279.92 226.883 275.344 221.251 275.344C215.587 275.344 212.387 279.92 212.387 286.8C212.387 293.68 215.587 298.256 221.251 298.256ZM221.251 294.96C217.923 294.96 216.163 291.856 216.163 286.8C216.163 281.744 217.923 278.608 221.251 278.608C224.547 278.608 226.339 281.744 226.339 286.8C226.339 291.856 224.547 294.96 221.251 294.96ZM241.088 298.256C246.72 298.256 249.951 293.68 249.951 286.8C249.951 279.92 246.72 275.344 241.088 275.344C235.424 275.344 232.223 279.92 232.223 286.8C232.223 293.68 235.424 298.256 241.088 298.256ZM241.088 294.96C237.76 294.96 235.999 291.856 235.999 286.8C235.999 281.744 237.76 278.608 241.088 278.608C244.384 278.608 246.176 281.744 246.176 286.8C246.176 291.856 244.384 294.96 241.088 294.96ZM260.924 298.256C266.556 298.256 269.788 293.68 269.788 286.8C269.788 279.92 266.556 275.344 260.924 275.344C255.26 275.344 252.06 279.92 252.06 286.8C252.06 293.68 255.26 298.256 260.924 298.256ZM260.924 294.96C257.596 294.96 255.836 291.856 255.836 286.8C255.836 281.744 257.596 278.608 260.924 278.608C264.22 278.608 266.012 281.744 266.012 286.8C266.012 291.856 264.22 294.96 260.924 294.96Z" fill="white"/>
<path d="M27.615 286H28.98V276.715H32.31V275.5H24.27V276.715H27.615V286ZM35.6324 286.12C37.8674 286.12 39.4874 284.485 39.4874 282.22C39.4874 279.955 37.8674 278.32 35.6324 278.32C33.3824 278.32 31.7924 279.955 31.7924 282.22C31.7924 284.485 33.3824 286.12 35.6324 286.12ZM35.6324 284.98C34.1174 284.98 33.0974 283.84 33.0974 282.22C33.0974 280.6 34.1174 279.46 35.6324 279.46C37.1474 279.46 38.1674 280.6 38.1674 282.22C38.1674 283.84 37.1474 284.98 35.6324 284.98ZM45.0364 285.94L44.9464 284.77C44.6464 284.92 44.3014 284.965 44.0014 284.965C43.3414 284.965 42.8914 284.575 42.8914 283.78V279.565H44.9164V278.44H42.8914V276.145H41.6164V278.44H40.2064V279.565H41.6164V283.735C41.6164 285.4 42.5614 286.12 43.8514 286.12C44.2564 286.12 44.6614 286.075 45.0364 285.94ZM49.2124 278.32C47.6224 278.32 46.3774 279.295 46.1524 280.795L47.3374 281.02C47.4424 280 48.1774 279.385 49.2124 279.385C50.3224 279.385 51.0574 280.045 51.0574 281.08V281.23L49.5874 281.395C47.1724 281.635 45.9874 282.43 45.9874 283.885C45.9874 285.19 47.0224 286.12 48.5374 286.12C49.6324 286.12 50.6224 285.58 51.0574 284.71V286H52.3174V281.155C52.3174 279.4 51.0424 278.32 49.2124 278.32ZM48.7324 285.07C47.8624 285.07 47.2624 284.575 47.2624 283.87C47.2624 283.075 48.0574 282.55 49.5874 282.385L51.0574 282.22V282.58C51.0574 284.095 50.2024 285.07 48.7324 285.07ZM54.3905 286H55.6655V275.38H54.3905V286ZM57.7303 278.44V280H59.2003V278.44H57.7303ZM57.7303 284.44V286H59.2003V284.44H57.7303Z" fill="white"/>
<line opacity="0.08" x1="4.37114e-08" y1="253.5" x2="295" y2="253.5" stroke="#D5D5DA"/>
<path d="M64.96 148H67.33V144.07H69.31C71.485 144.07 72.88 142.78 72.88 140.785C72.88 138.79 71.485 137.5 69.31 137.5H64.96V148ZM67.33 142.045V139.525H69.07C69.97 139.525 70.51 140.005 70.51 140.785C70.51 141.565 69.97 142.045 69.07 142.045H67.33ZM76.6284 140.32C75.0084 140.32 73.6284 141.28 73.3884 142.765L75.3084 143.125C75.3834 142.39 75.9084 141.955 76.6284 141.955C77.4384 141.955 77.9484 142.405 77.9484 143.155V143.2L76.5834 143.335C74.4084 143.56 73.3134 144.37 73.3134 145.87C73.3134 147.13 74.3484 148.12 75.8184 148.12C76.6584 148.12 77.5134 147.7 77.9484 147.04V148H80.0784V143.515C80.0784 141.385 78.6834 140.32 76.6284 140.32ZM76.3584 146.545C75.7434 146.545 75.4134 146.215 75.4134 145.795C75.4134 145.36 75.7884 144.985 76.5384 144.91L77.9484 144.745V144.805V144.85V144.865C77.9334 145.75 77.3484 146.545 76.3584 146.545ZM86.8886 142.555L87.0236 140.44C86.8136 140.365 86.4686 140.32 86.2136 140.32C85.3136 140.32 84.3386 140.935 83.9936 141.745V140.44H81.7886V148H83.9936V145.27C83.9936 143.125 84.9386 142.375 85.9286 142.375C86.2736 142.375 86.6336 142.435 86.8886 142.555ZM93.0318 147.925L92.8818 146.02C92.6268 146.155 92.2968 146.2 92.0268 146.2C91.4868 146.2 91.1268 145.81 91.1268 145.135V142.27H92.9568V140.44H91.1268V138.25H88.9218V140.44H87.7218V142.27H88.9218V145.42C88.9218 147.25 90.1668 148.12 91.8018 148.12C92.2518 148.12 92.6718 148.045 93.0318 147.925ZM97.3936 148H104.954V145.96H100.709L102.389 144.655C104.174 143.29 104.969 142.12 104.969 140.785C104.969 138.775 103.439 137.38 101.144 137.38C98.9086 137.38 97.1536 139.15 97.3786 141.4L99.6286 141.55C99.5236 140.26 100.124 139.405 101.144 139.405C102.014 139.405 102.599 139.96 102.599 140.785C102.599 141.49 102.119 142.195 101.024 143.095L97.3936 146.11V148Z" fill="white"/>
<path d="M66.095 215H67.46V210.59H70.085C72.125 210.59 73.445 209.39 73.445 207.545C73.445 205.7 72.125 204.5 70.085 204.5H66.095V215ZM67.46 209.36V205.715H70.04C71.285 205.715 72.035 206.405 72.035 207.545C72.035 208.685 71.285 209.36 70.04 209.36H67.46ZM77.3071 207.32C75.7171 207.32 74.4721 208.295 74.2471 209.795L75.4321 210.02C75.5371 209 76.2721 208.385 77.3071 208.385C78.4171 208.385 79.1521 209.045 79.1521 210.08V210.23L77.6821 210.395C75.2671 210.635 74.0821 211.43 74.0821 212.885C74.0821 214.19 75.1171 215.12 76.6321 215.12C77.7271 215.12 78.7171 214.58 79.1521 213.71V215H80.4121V210.155C80.4121 208.4 79.1371 207.32 77.3071 207.32ZM76.8271 214.07C75.9571 214.07 75.3571 213.575 75.3571 212.87C75.3571 212.075 76.1521 211.55 77.6821 211.385L79.1521 211.22V211.58C79.1521 213.095 78.2971 214.07 76.8271 214.07ZM86.9102 208.685L86.9852 207.455C86.7302 207.365 86.4302 207.32 86.1152 207.32C85.1852 207.32 84.1952 208.01 83.7602 208.97V207.44H82.4852V215H83.7602V212.12C83.7602 209.66 84.7352 208.505 85.9352 208.505C86.2652 208.505 86.6252 208.565 86.9102 208.685ZM92.4818 214.94L92.3918 213.77C92.0918 213.92 91.7468 213.965 91.4468 213.965C90.7868 213.965 90.3368 213.575 90.3368 212.78V208.565H92.3618V207.44H90.3368V205.145H89.0618V207.44H87.6518V208.565H89.0618V212.735C89.0618 214.4 90.0068 215.12 91.2968 215.12C91.7018 215.12 92.1068 215.075 92.4818 214.94ZM100.678 215.12C102.988 215.12 104.488 213.755 104.488 211.73C104.488 209.66 103.018 208.4 100.948 208.595L103.933 205.685V204.5H97.2277V205.715H102.328L99.0127 209L99.5977 209.87C99.9277 209.66 100.363 209.54 100.753 209.54C102.208 209.54 103.078 210.335 103.078 211.7C103.078 213.02 102.133 213.89 100.678 213.89C99.3427 213.89 98.3677 213.11 98.2177 211.895L96.9277 212.09C97.1227 213.92 98.6077 215.12 100.678 215.12Z" fill="#8D8D95"/>
<path d="M64.96 81H67.33V77.07H69.31C71.485 77.07 72.88 75.78 72.88 73.785C72.88 71.79 71.485 70.5 69.31 70.5H64.96V81ZM67.33 75.045V72.525H69.07C69.97 72.525 70.51 73.005 70.51 73.785C70.51 74.565 69.97 75.045 69.07 75.045H67.33ZM76.6284 73.32C75.0084 73.32 73.6284 74.28 73.3884 75.765L75.3084 76.125C75.3834 75.39 75.9084 74.955 76.6284 74.955C77.4384 74.955 77.9484 75.405 77.9484 76.155V76.2L76.5834 76.335C74.4084 76.56 73.3134 77.37 73.3134 78.87C73.3134 80.13 74.3484 81.12 75.8184 81.12C76.6584 81.12 77.5134 80.7 77.9484 80.04V81H80.0784V76.515C80.0784 74.385 78.6834 73.32 76.6284 73.32ZM76.3584 79.545C75.7434 79.545 75.4134 79.215 75.4134 78.795C75.4134 78.36 75.7884 77.985 76.5384 77.91L77.9484 77.745V77.805V77.85V77.865C77.9334 78.75 77.3484 79.545 76.3584 79.545ZM86.8886 75.555L87.0236 73.44C86.8136 73.365 86.4686 73.32 86.2136 73.32C85.3136 73.32 84.3386 73.935 83.9936 74.745V73.44H81.7886V81H83.9936V78.27C83.9936 76.125 84.9386 75.375 85.9286 75.375C86.2736 75.375 86.6336 75.435 86.8886 75.555ZM93.0318 80.925L92.8818 79.02C92.6268 79.155 92.2968 79.2 92.0268 79.2C91.4868 79.2 91.1268 78.81 91.1268 78.135V75.27H92.9568V73.44H91.1268V71.25H88.9218V73.44H87.7218V75.27H88.9218V78.42C88.9218 80.25 90.1668 81.12 91.8018 81.12C92.2518 81.12 92.6718 81.045 93.0318 80.925ZM99.7636 81H101.954V70.5H100.169C99.3736 71.175 98.3386 71.76 97.3936 71.985V74.1C98.2936 73.92 99.0586 73.545 99.7636 73.02V81Z" fill="white"/>
<line opacity="0.5" x1="36.5" y1="78" x2="36.5" y2="210" stroke="#868181" stroke-dasharray="12 4"/>
<g clip-path="url(#clip0)">
<line opacity="0.5" x1="36.5" y1="78" x2="36.5" y2="210" stroke="#527A5E" stroke-dasharray="12 4"/>
</g>
<circle cx="36" cy="210" r="12" fill="#868181"/>
<path d="M35.851 215.112C38.007 215.112 39.407 213.838 39.407 211.948C39.407 210.016 38.035 208.84 36.103 209.022L38.889 206.306V205.2H32.631V206.334H37.391L34.297 209.4L34.843 210.212C35.151 210.016 35.557 209.904 35.921 209.904C37.279 209.904 38.091 210.646 38.091 211.92C38.091 213.152 37.209 213.964 35.851 213.964C34.605 213.964 33.695 213.236 33.555 212.102L32.351 212.284C32.533 213.992 33.919 215.112 35.851 215.112Z" fill="white"/>
<circle cx="36" cy="143" r="12" fill="#51CF76"/>
<path d="M32.503 148H39.125V146.852H34.295L36.955 144.584C38.467 143.31 39.125 142.218 39.125 141.028C39.125 139.25 37.865 138.088 35.933 138.088C33.889 138.088 32.545 139.502 32.699 141.56L33.931 141.644C33.791 140.188 34.561 139.222 35.933 139.222C37.081 139.222 37.809 139.936 37.809 141.028C37.809 141.91 37.319 142.722 36.171 143.716L32.489 146.894L32.503 148Z" fill="black"/>
<circle cx="36" cy="76" r="12" fill="#51CF76"/>
<path d="M35.7052 81H36.9092V71.2H35.9012C35.2152 72.04 34.3612 72.544 33.3812 72.754V73.888C34.3052 73.72 35.0332 73.412 35.7052 72.796V81Z" fill="black"/>
<path d="M27.728 18H29.6V8.432H33.056V6.8H24.272V8.432H27.728V18ZM36.6601 18.128C39.0761 18.128 40.8201 16.384 40.8201 13.968C40.8201 11.552 39.0761 9.808 36.6601 9.808C34.2281 9.808 32.5001 11.552 32.5001 13.968C32.5001 16.384 34.2281 18.128 36.6601 18.128ZM36.6601 16.608C35.2201 16.608 34.2601 15.52 34.2601 13.968C34.2601 12.416 35.2201 11.328 36.6601 11.328C38.0841 11.328 39.0601 12.416 39.0601 13.968C39.0601 15.52 38.0841 16.608 36.6601 16.608ZM46.4359 20.912H48.1799V17.072C48.6759 17.712 49.6199 18.128 50.5959 18.128C53.0119 18.128 54.4839 16.4 54.4839 13.968C54.4839 11.536 53.0759 9.808 50.6919 9.808C49.5719 9.808 48.6279 10.304 48.1799 10.96V9.936H46.4359V20.912ZM50.4039 16.608C48.9959 16.608 48.0679 15.552 48.0679 13.968C48.0679 12.368 48.9959 11.328 50.4039 11.328C51.8119 11.328 52.7399 12.368 52.7399 13.968C52.7399 15.552 51.8119 16.608 50.4039 16.608ZM59.1972 9.808C57.4852 9.808 56.1092 10.848 55.8532 12.432L57.4212 12.72C57.5332 11.76 58.2212 11.184 59.1972 11.184C60.2533 11.184 60.9412 11.792 60.9412 12.784V12.896L59.4212 13.056C56.9412 13.312 55.7092 14.16 55.7092 15.744C55.7092 17.12 56.8132 18.128 58.4132 18.128C59.4852 18.128 60.4773 17.584 60.9412 16.768V18H62.6533V12.976C62.6533 10.96 61.2452 9.808 59.1972 9.808ZM58.7652 16.784C57.9492 16.784 57.4212 16.336 57.4212 15.696C57.4212 14.992 58.0932 14.512 59.4053 14.368L60.9412 14.192V14.528C60.9253 15.84 60.1252 16.784 58.7652 16.784ZM69.7669 9.936L67.6069 15.52L65.4949 9.936H63.6069L66.7429 17.76L65.5269 20.912H67.3189L71.5589 9.936H69.7669Z" fill="white"/>
<path d="M212.793 18H214.249V13.296H217.049C219.225 13.296 220.633 12.016 220.633 10.048C220.633 8.08 219.225 6.8 217.049 6.8H212.793V18ZM214.249 11.984V8.096H217.001C218.329 8.096 219.129 8.832 219.129 10.048C219.129 11.264 218.329 11.984 217.001 11.984H214.249ZM224.753 9.808C223.057 9.808 221.729 10.848 221.489 12.448L222.753 12.688C222.865 11.6 223.649 10.944 224.753 10.944C225.937 10.944 226.721 11.648 226.721 12.752V12.912L225.153 13.088C222.577 13.344 221.313 14.192 221.313 15.744C221.313 17.136 222.417 18.128 224.033 18.128C225.201 18.128 226.257 17.552 226.721 16.624V18H228.065V12.832C228.065 10.96 226.705 9.808 224.753 9.808ZM224.241 17.008C223.313 17.008 222.673 16.48 222.673 15.728C222.673 14.88 223.521 14.32 225.153 14.144L226.721 13.968V14.352C226.721 15.968 225.809 17.008 224.241 17.008ZM230.18 6.672V8.4H231.748V6.672H230.18ZM230.276 18H231.636V9.936H230.276V18ZM237.262 18.128C238.446 18.128 239.518 17.568 239.886 16.832V18H241.246V6.672H239.886V11.088C239.374 10.336 238.318 9.808 237.246 9.808C234.75 9.808 233.374 11.6 233.374 13.968C233.374 16.336 234.75 18.128 237.262 18.128ZM237.39 16.912C235.806 16.912 234.766 15.744 234.766 13.968C234.766 12.192 235.806 11.024 237.39 11.024C238.974 11.024 240.014 12.192 240.014 13.968C240.014 15.744 238.974 16.912 237.39 16.912Z" fill="#8D8D95"/>
<path d="M246.683 18H254.251V16.688H248.731L251.771 14.096C253.499 12.64 254.251 11.392 254.251 10.032C254.251 8 252.811 6.672 250.603 6.672C248.267 6.672 246.731 8.288 246.907 10.64L248.315 10.736C248.155 9.072 249.035 7.968 250.603 7.968C251.915 7.968 252.747 8.784 252.747 10.032C252.747 11.04 252.187 11.968 250.875 13.104L246.667 16.736L246.683 18ZM255.3 18.016H256.676L261.716 6.8H260.324L255.3 18.016ZM266.259 18.128C268.723 18.128 270.323 16.672 270.323 14.512C270.323 12.304 268.755 10.96 266.547 11.168L269.731 8.064V6.8H262.579V8.096H268.019L264.483 11.6L265.107 12.528C265.459 12.304 265.923 12.176 266.339 12.176C267.891 12.176 268.819 13.024 268.819 14.48C268.819 15.888 267.811 16.816 266.259 16.816C264.835 16.816 263.795 15.984 263.635 14.688L262.259 14.896C262.467 16.848 264.051 18.128 266.259 18.128Z" fill="white"/>
<defs>
<clipPath id="clip0">
<rect width="24" height="82" fill="white" transform="translate(24 64)"/>
</clipPath>
</defs>
</svg>
