<svg width="295" height="299" viewBox="0 0 295 299" fill="none" xmlns="http://www.w3.org/2000/svg">
<path d="M27.615 281H28.98V271.715H32.31V270.5H24.27V271.715H27.615V281ZM35.6324 281.12C37.8674 281.12 39.4874 279.485 39.4874 277.22C39.4874 274.955 37.8674 273.32 35.6324 273.32C33.3824 273.32 31.7924 274.955 31.7924 277.22C31.7924 279.485 33.3824 281.12 35.6324 281.12ZM35.6324 279.98C34.1174 279.98 33.0974 278.84 33.0974 277.22C33.0974 275.6 34.1174 274.46 35.6324 274.46C37.1474 274.46 38.1674 275.6 38.1674 277.22C38.1674 278.84 37.1474 279.98 35.6324 279.98ZM45.0364 280.94L44.9464 279.77C44.6464 279.92 44.3014 279.965 44.0014 279.965C43.3414 279.965 42.8914 279.575 42.8914 278.78V274.565H44.9164V273.44H42.8914V271.145H41.6164V273.44H40.2064V274.565H41.6164V278.735C41.6164 280.4 42.5614 281.12 43.8514 281.12C44.2564 281.12 44.6614 281.075 45.0364 280.94ZM49.2124 273.32C47.6224 273.32 46.3774 274.295 46.1524 275.795L47.3374 276.02C47.4424 275 48.1774 274.385 49.2124 274.385C50.3224 274.385 51.0574 275.045 51.0574 276.08V276.23L49.5874 276.395C47.1724 276.635 45.9874 277.43 45.9874 278.885C45.9874 280.19 47.0224 281.12 48.5374 281.12C49.6324 281.12 50.6224 280.58 51.0574 279.71V281H52.3174V276.155C52.3174 274.4 51.0424 273.32 49.2124 273.32ZM48.7324 280.07C47.8624 280.07 47.2624 279.575 47.2624 278.87C47.2624 278.075 48.0574 277.55 49.5874 277.385L51.0574 277.22V277.58C51.0574 279.095 50.2024 280.07 48.7324 280.07ZM54.3905 281H55.6655V270.38H54.3905V281ZM57.7303 273.44V275H59.2003V273.44H57.7303ZM57.7303 279.44V281H59.2003V279.44H57.7303Z" fill="white"/>
<line opacity="0.08" x1="4.37114e-08" y1="248.5" x2="295" y2="248.5" stroke="#D5D5DA"/>
<path d="M27.728 13H29.6V3.432H33.056V1.8H24.272V3.432H27.728V13ZM36.6601 13.128C39.0761 13.128 40.8201 11.384 40.8201 8.968C40.8201 6.552 39.0761 4.808 36.6601 4.808C34.2281 4.808 32.5001 6.552 32.5001 8.968C32.5001 11.384 34.2281 13.128 36.6601 13.128ZM36.6601 11.608C35.2201 11.608 34.2601 10.52 34.2601 8.968C34.2601 7.416 35.2201 6.328 36.6601 6.328C38.0841 6.328 39.0601 7.416 39.0601 8.968C39.0601 10.52 38.0841 11.608 36.6601 11.608ZM46.4359 15.912H48.1799V12.072C48.6759 12.712 49.6199 13.128 50.5959 13.128C53.0119 13.128 54.4839 11.4 54.4839 8.968C54.4839 6.536 53.0759 4.808 50.6919 4.808C49.5719 4.808 48.6279 5.304 48.1799 5.96V4.936H46.4359V15.912ZM50.4039 11.608C48.9959 11.608 48.0679 10.552 48.0679 8.968C48.0679 7.368 48.9959 6.328 50.4039 6.328C51.8119 6.328 52.7399 7.368 52.7399 8.968C52.7399 10.552 51.8119 11.608 50.4039 11.608ZM59.1972 4.808C57.4852 4.808 56.1092 5.848 55.8532 7.432L57.4212 7.72C57.5332 6.76 58.2212 6.184 59.1972 6.184C60.2533 6.184 60.9412 6.792 60.9412 7.784V7.896L59.4212 8.056C56.9412 8.312 55.7092 9.16 55.7092 10.744C55.7092 12.12 56.8132 13.128 58.4132 13.128C59.4852 13.128 60.4773 12.584 60.9412 11.768V13H62.6533V7.976C62.6533 5.96 61.2452 4.808 59.1972 4.808ZM58.7652 11.784C57.9492 11.784 57.4212 11.336 57.4212 10.696C57.4212 9.992 58.0932 9.512 59.4053 9.368L60.9412 9.192V9.528C60.9253 10.84 60.1252 11.784 58.7652 11.784ZM69.7669 4.936L67.6069 10.52L65.4949 4.936H63.6069L66.7429 12.76L65.5269 15.912H67.3189L71.5589 4.936H69.7669Z" fill="white"/>
<rect opacity="0.5" x="85" y="94" width="180" height="12" rx="4" fill="url(#paint0_linear)"/>
<rect opacity="0.5" x="49" y="167" width="109" height="12" rx="4" fill="url(#paint1_linear)"/>
<rect x="49" y="59" width="209" height="15" rx="4" fill="url(#paint2_linear)"/>
<rect x="49" y="129" width="209" height="15" rx="4" fill="url(#paint3_linear)"/>
<rect x="49" y="201" width="209" height="15" rx="4" fill="url(#paint4_linear)"/>
<line x1="31.5" y1="59" x2="31.5" y2="216" stroke="#5B5959" stroke-dasharray="12 4"/>
<path d="M156.808 293L150.76 282.44V281.032H151.464C153.171 281.032 154.472 280.787 155.368 280.296C156.286 279.805 156.819 278.92 156.968 277.64H150.76V275.592H156.936C156.723 274.397 156.158 273.533 155.24 273C154.344 272.467 153.086 272.2 151.464 272.2H150.76V270.152H164.008V272.2H157.96C158.984 273.032 159.592 274.163 159.784 275.592H164.008V277.64H159.848C159.699 279.197 159.102 280.413 158.056 281.288C157.032 282.141 155.667 282.685 153.96 282.92L160.072 293H156.808ZM178.449 293H182.193V287.976H185.201V284.712H182.193V270.6H178.033L166.929 284.712V287.976H178.449V293ZM170.865 284.712L178.449 275.016V284.712H170.865ZM194.903 293.256C199.767 293.256 202.903 290.184 202.903 285.544C202.903 281.064 199.863 278.088 195.319 278.088C193.751 278.088 192.023 278.792 190.935 279.784L191.831 273.864H201.271V270.6H189.079L187.287 282.984L190.007 283.56C191.063 281.992 192.567 281.128 194.519 281.128C197.335 281.128 199.127 282.824 199.127 285.544C199.127 288.2 197.399 289.96 194.775 289.96C192.343 289.96 190.551 288.584 190.135 286.44L186.711 287.048C187.319 290.824 190.519 293.256 194.903 293.256ZM221.251 293.256C226.883 293.256 230.115 288.68 230.115 281.8C230.115 274.92 226.883 270.344 221.251 270.344C215.587 270.344 212.387 274.92 212.387 281.8C212.387 288.68 215.587 293.256 221.251 293.256ZM221.251 289.96C217.923 289.96 216.163 286.856 216.163 281.8C216.163 276.744 217.923 273.608 221.251 273.608C224.547 273.608 226.339 276.744 226.339 281.8C226.339 286.856 224.547 289.96 221.251 289.96ZM241.088 293.256C246.72 293.256 249.951 288.68 249.951 281.8C249.951 274.92 246.72 270.344 241.088 270.344C235.424 270.344 232.223 274.92 232.223 281.8C232.223 288.68 235.424 293.256 241.088 293.256ZM241.088 289.96C237.76 289.96 235.999 286.856 235.999 281.8C235.999 276.744 237.76 273.608 241.088 273.608C244.384 273.608 246.176 276.744 246.176 281.8C246.176 286.856 244.384 289.96 241.088 289.96ZM260.924 293.256C266.556 293.256 269.788 288.68 269.788 281.8C269.788 274.92 266.556 270.344 260.924 270.344C255.26 270.344 252.06 274.92 252.06 281.8C252.06 288.68 255.26 293.256 260.924 293.256ZM260.924 289.96C257.596 289.96 255.836 286.856 255.836 281.8C255.836 276.744 257.596 273.608 260.924 273.608C264.22 273.608 266.012 276.744 266.012 281.8C266.012 286.856 264.22 289.96 260.924 289.96Z" fill="#00DCC8"/>
<path d="M204.104 13H205.976V8.008H210.472V6.376H205.976V3.432H211.512V1.8H204.104V13ZM219.822 4.936H218.078V8.472C218.078 10.408 217.262 11.56 215.918 11.56C214.894 11.56 214.254 10.856 214.254 9.848V4.936H212.51V10.248C212.51 11.992 213.71 13.128 215.438 13.128C216.606 13.128 217.55 12.52 218.078 11.656V13H219.822V4.936ZM221.965 13H223.709V1.672H221.965V13ZM225.858 13H227.602V1.672H225.858V13ZM233.674 15.912H235.418V12.072C235.914 12.712 236.858 13.128 237.834 13.128C240.25 13.128 241.722 11.4 241.722 8.968C241.722 6.536 240.314 4.808 237.93 4.808C236.81 4.808 235.866 5.304 235.418 5.96V4.936H233.674V15.912ZM237.642 11.608C236.234 11.608 235.306 10.552 235.306 8.968C235.306 7.368 236.234 6.328 237.642 6.328C239.05 6.328 239.978 7.368 239.978 8.968C239.978 10.552 239.05 11.608 237.642 11.608ZM248.418 6.632L248.514 4.952C248.274 4.856 247.922 4.808 247.618 4.808C246.642 4.808 245.586 5.512 245.154 6.472V4.936H243.41V13H245.154V9.992C245.154 7.496 246.194 6.44 247.378 6.44C247.746 6.44 248.13 6.504 248.418 6.632ZM250.698 3.592C251.354 3.592 251.85 3.096 251.85 2.472C251.85 1.832 251.354 1.336 250.698 1.336C250.058 1.336 249.578 1.832 249.578 2.472C249.578 3.096 250.058 3.592 250.698 3.592ZM249.834 13H251.578V4.936H249.834V13ZM257.342 13.128C259.31 13.128 260.702 12.12 261.038 10.44L259.326 10.104C259.134 11.048 258.414 11.608 257.39 11.608C256.014 11.608 255.102 10.568 255.102 8.968C255.102 7.368 255.998 6.328 257.39 6.328C258.414 6.328 259.166 6.952 259.326 7.864L261.023 7.528C260.75 5.864 259.326 4.808 257.342 4.808C254.926 4.808 253.294 6.488 253.294 8.968C253.294 11.448 254.926 13.128 257.342 13.128ZM270.169 8.664C270.169 6.696 268.793 4.808 266.201 4.808C263.641 4.808 262.265 6.792 262.265 8.968C262.265 11.144 263.721 13.128 266.281 13.128C268.169 13.128 269.545 12.232 269.977 10.68L268.329 10.264C268.121 11.144 267.369 11.64 266.313 11.64C265.033 11.64 264.137 10.776 263.977 9.384H270.137C270.153 9.24 270.169 8.904 270.169 8.664ZM264.057 8.056C264.313 6.856 265.097 6.184 266.201 6.184C267.481 6.184 268.201 6.968 268.313 8.056H264.057Z" fill="white"/>
<defs>
<linearGradient id="paint0_linear" x1="265" y1="106" x2="132.411" y2="106" gradientUnits="userSpaceOnUse">
<stop stop-opacity="0"/>
<stop offset="1" stop-color="white"/>
</linearGradient>
<linearGradient id="paint1_linear" x1="158" y1="179" x2="77.7098" y2="179" gradientUnits="userSpaceOnUse">
<stop stop-color="#303132" stop-opacity="0"/>
<stop offset="1" stop-color="white"/>
</linearGradient>
<linearGradient id="paint2_linear" x1="258" y1="74.0001" x2="104.049" y2="74.0001" gradientUnits="userSpaceOnUse">
<stop stop-color="#303132" stop-opacity="0"/>
<stop offset="1" stop-color="white"/>
</linearGradient>
<linearGradient id="paint3_linear" x1="258" y1="144" x2="104.049" y2="144" gradientUnits="userSpaceOnUse">
<stop stop-color="#303132" stop-opacity="0"/>
<stop offset="1" stop-color="white"/>
</linearGradient>
<linearGradient id="paint4_linear" x1="258" y1="216" x2="104.049" y2="216" gradientUnits="userSpaceOnUse">
<stop stop-color="#303132" stop-opacity="0"/>
<stop offset="1" stop-color="white"/>
</linearGradient>
</defs>
</svg>
