<svg width="247" height="305" viewBox="0 0 247 305" fill="none" xmlns="http://www.w3.org/2000/svg">
<path d="M140.871 299L134.823 288.44V287.032H135.527C137.234 287.032 138.535 286.787 139.431 286.296C140.348 285.805 140.882 284.92 141.031 283.64H134.823V281.592H140.999C140.786 280.397 140.22 279.533 139.303 279C138.407 278.467 137.148 278.2 135.527 278.2H134.823V276.152H148.071V278.2H142.023C143.047 279.032 143.655 280.163 143.847 281.592H148.071V283.64H143.911C143.762 285.197 143.164 286.413 142.119 287.288C141.095 288.141 139.73 288.685 138.023 288.92L144.135 299H140.871ZM156.271 299H159.791V276.6H156.879C155.279 278.328 153.231 279.512 151.087 279.992V283.352C153.103 282.936 154.767 282.232 156.271 280.92V299ZM170.903 299.256C175.767 299.256 178.903 296.184 178.903 291.544C178.903 287.064 175.863 284.088 171.319 284.088C169.751 284.088 168.023 284.792 166.935 285.784L167.831 279.864H177.271V276.6H165.079L163.287 288.984L166.007 289.56C167.063 287.992 168.567 287.128 170.519 287.128C173.335 287.128 175.127 288.824 175.127 291.544C175.127 294.2 173.399 295.96 170.775 295.96C168.343 295.96 166.551 294.584 166.135 292.44L162.711 293.048C163.319 296.824 166.519 299.256 170.903 299.256ZM197.251 299.256C202.883 299.256 206.115 294.68 206.115 287.8C206.115 280.92 202.883 276.344 197.251 276.344C191.587 276.344 188.387 280.92 188.387 287.8C188.387 294.68 191.587 299.256 197.251 299.256ZM197.251 295.96C193.923 295.96 192.163 292.856 192.163 287.8C192.163 282.744 193.923 279.608 197.251 279.608C200.547 279.608 202.339 282.744 202.339 287.8C202.339 292.856 200.547 295.96 197.251 295.96ZM217.088 299.256C222.72 299.256 225.951 294.68 225.951 287.8C225.951 280.92 222.72 276.344 217.088 276.344C211.424 276.344 208.223 280.92 208.223 287.8C208.223 294.68 211.424 299.256 217.088 299.256ZM217.088 295.96C213.76 295.96 211.999 292.856 211.999 287.8C211.999 282.744 213.76 279.608 217.088 279.608C220.384 279.608 222.176 282.744 222.176 287.8C222.176 292.856 220.384 295.96 217.088 295.96ZM236.924 299.256C242.556 299.256 245.788 294.68 245.788 287.8C245.788 280.92 242.556 276.344 236.924 276.344C231.26 276.344 228.06 280.92 228.06 287.8C228.06 294.68 231.26 299.256 236.924 299.256ZM236.924 295.96C233.596 295.96 231.836 292.856 231.836 287.8C231.836 282.744 233.596 279.608 236.924 279.608C240.22 279.608 242.012 282.744 242.012 287.8C242.012 292.856 240.22 295.96 236.924 295.96Z" fill="white"/>
<path d="M3.615 287H4.98V277.715H8.31V276.5H0.27V277.715H3.615V287ZM11.6324 287.12C13.8674 287.12 15.4874 285.485 15.4874 283.22C15.4874 280.955 13.8674 279.32 11.6324 279.32C9.38238 279.32 7.79238 280.955 7.79238 283.22C7.79238 285.485 9.38238 287.12 11.6324 287.12ZM11.6324 285.98C10.1174 285.98 9.09738 284.84 9.09738 283.22C9.09738 281.6 10.1174 280.46 11.6324 280.46C13.1474 280.46 14.1674 281.6 14.1674 283.22C14.1674 284.84 13.1474 285.98 11.6324 285.98ZM21.0364 286.94L20.9464 285.77C20.6464 285.92 20.3014 285.965 20.0014 285.965C19.3414 285.965 18.8914 285.575 18.8914 284.78V280.565H20.9164V279.44H18.8914V277.145H17.6164V279.44H16.2064V280.565H17.6164V284.735C17.6164 286.4 18.5614 287.12 19.8514 287.12C20.2564 287.12 20.6614 287.075 21.0364 286.94ZM25.2124 279.32C23.6224 279.32 22.3774 280.295 22.1524 281.795L23.3374 282.02C23.4424 281 24.1774 280.385 25.2124 280.385C26.3224 280.385 27.0574 281.045 27.0574 282.08V282.23L25.5874 282.395C23.1724 282.635 21.9874 283.43 21.9874 284.885C21.9874 286.19 23.0224 287.12 24.5374 287.12C25.6324 287.12 26.6224 286.58 27.0574 285.71V287H28.3174V282.155C28.3174 280.4 27.0424 279.32 25.2124 279.32ZM24.7324 286.07C23.8624 286.07 23.2624 285.575 23.2624 284.87C23.2624 284.075 24.0574 283.55 25.5874 283.385L27.0574 283.22V283.58C27.0574 285.095 26.2024 286.07 24.7324 286.07ZM30.3905 287H31.6655V276.38H30.3905V287ZM33.7303 279.44V281H35.2003V279.44H33.7303ZM33.7303 285.44V287H35.2003V285.44H33.7303Z" fill="white"/>
<path d="M41.095 149V138.5H45.085C46.105 138.5 46.92 138.78 47.53 139.34C48.14 139.89 48.445 140.625 48.445 141.545C48.445 142.465 48.14 143.205 47.53 143.765C46.92 144.315 46.105 144.59 45.085 144.59H42.46V149H41.095ZM42.46 143.36H45.04C45.66 143.36 46.145 143.2 46.495 142.88C46.855 142.56 47.035 142.115 47.035 141.545C47.035 140.975 46.855 140.53 46.495 140.21C46.145 139.88 45.66 139.715 45.04 139.715H42.46V143.36ZM52.3071 141.32C53.2371 141.32 53.9871 141.575 54.5571 142.085C55.1271 142.595 55.4121 143.285 55.4121 144.155V149H54.1521V147.71C53.9321 148.14 53.5921 148.485 53.1321 148.745C52.6821 148.995 52.1821 149.12 51.6321 149.12C50.8821 149.12 50.2671 148.915 49.7871 148.505C49.3171 148.085 49.0821 147.545 49.0821 146.885C49.0821 145.465 50.2821 144.635 52.6821 144.395L54.1521 144.23V144.08C54.1521 143.56 53.9821 143.15 53.6421 142.85C53.3121 142.54 52.8671 142.385 52.3071 142.385C51.7871 142.385 51.3571 142.53 51.0171 142.82C50.6771 143.11 50.4821 143.51 50.4321 144.02L49.2471 143.795C49.3571 143.045 49.6921 142.445 50.2521 141.995C50.8221 141.545 51.5071 141.32 52.3071 141.32ZM51.8271 148.07C52.5571 148.07 53.1271 147.845 53.5371 147.395C53.9471 146.945 54.1521 146.34 54.1521 145.58V145.22L52.6821 145.385C51.1321 145.555 50.3571 146.05 50.3571 146.87C50.3571 147.22 50.4921 147.51 50.7621 147.74C51.0421 147.96 51.3971 148.07 51.8271 148.07ZM61.9102 142.685C61.6302 142.565 61.3052 142.505 60.9352 142.505C60.2952 142.505 59.7702 142.815 59.3602 143.435C58.9602 144.045 58.7602 144.94 58.7602 146.12V149H57.4852V141.44H58.7602V142.97C58.9802 142.49 59.3102 142.095 59.7502 141.785C60.1902 141.475 60.6452 141.32 61.1152 141.32C61.4452 141.32 61.7352 141.365 61.9852 141.455L61.9102 142.685ZM67.4818 148.94C67.1518 149.06 66.7568 149.12 66.2968 149.12C65.6168 149.12 65.0718 148.925 64.6618 148.535C64.2618 148.135 64.0618 147.535 64.0618 146.735V142.565H62.6518V141.44H64.0618V139.145H65.3368V141.44H67.3618V142.565H65.3368V146.78C65.3368 147.17 65.4368 147.465 65.6368 147.665C65.8368 147.865 66.1068 147.965 66.4468 147.965C66.8168 147.965 67.1318 147.9 67.3918 147.77L67.4818 148.94ZM72.0027 149L71.9877 147.815L75.9327 144.41C77.1027 143.4 77.6877 142.44 77.6877 141.53C77.6877 140.94 77.5027 140.47 77.1327 140.12C76.7727 139.77 76.2877 139.595 75.6777 139.595C74.9477 139.595 74.3877 139.835 73.9977 140.315C73.6077 140.785 73.4527 141.41 73.5327 142.19L72.2127 142.1C72.1327 141 72.4127 140.105 73.0527 139.415C73.7027 138.725 74.5777 138.38 75.6777 138.38C76.7077 138.38 77.5327 138.67 78.1527 139.25C78.7827 139.82 79.0977 140.58 79.0977 141.53C79.0977 142.17 78.9127 142.795 78.5427 143.405C78.1727 144.015 77.5827 144.66 76.7727 145.34L73.9227 147.77H79.0977V149H72.0027Z" fill="#8D8D95"/>
<path d="M42.095 216V205.5H46.085C47.105 205.5 47.92 205.78 48.53 206.34C49.14 206.89 49.445 207.625 49.445 208.545C49.445 209.465 49.14 210.205 48.53 210.765C47.92 211.315 47.105 211.59 46.085 211.59H43.46V216H42.095ZM43.46 210.36H46.04C46.66 210.36 47.145 210.2 47.495 209.88C47.855 209.56 48.035 209.115 48.035 208.545C48.035 207.975 47.855 207.53 47.495 207.21C47.145 206.88 46.66 206.715 46.04 206.715H43.46V210.36ZM53.3071 208.32C54.2371 208.32 54.9871 208.575 55.5571 209.085C56.1271 209.595 56.4121 210.285 56.4121 211.155V216H55.1521V214.71C54.9321 215.14 54.5921 215.485 54.1321 215.745C53.6821 215.995 53.1821 216.12 52.6321 216.12C51.8821 216.12 51.2671 215.915 50.7871 215.505C50.3171 215.085 50.0821 214.545 50.0821 213.885C50.0821 212.465 51.2821 211.635 53.6821 211.395L55.1521 211.23V211.08C55.1521 210.56 54.9821 210.15 54.6421 209.85C54.3121 209.54 53.8671 209.385 53.3071 209.385C52.7871 209.385 52.3571 209.53 52.0171 209.82C51.6771 210.11 51.4821 210.51 51.4321 211.02L50.2471 210.795C50.3571 210.045 50.6921 209.445 51.2521 208.995C51.8221 208.545 52.5071 208.32 53.3071 208.32ZM52.8271 215.07C53.5571 215.07 54.1271 214.845 54.5371 214.395C54.9471 213.945 55.1521 213.34 55.1521 212.58V212.22L53.6821 212.385C52.1321 212.555 51.3571 213.05 51.3571 213.87C51.3571 214.22 51.4921 214.51 51.7621 214.74C52.0421 214.96 52.3971 215.07 52.8271 215.07ZM62.9102 209.685C62.6302 209.565 62.3052 209.505 61.9352 209.505C61.2952 209.505 60.7702 209.815 60.3602 210.435C59.9602 211.045 59.7602 211.94 59.7602 213.12V216H58.4852V208.44H59.7602V209.97C59.9802 209.49 60.3102 209.095 60.7502 208.785C61.1902 208.475 61.6452 208.32 62.1152 208.32C62.4452 208.32 62.7352 208.365 62.9852 208.455L62.9102 209.685ZM68.4818 215.94C68.1518 216.06 67.7568 216.12 67.2968 216.12C66.6168 216.12 66.0718 215.925 65.6618 215.535C65.2618 215.135 65.0618 214.535 65.0618 213.735V209.565H63.6518V208.44H65.0618V206.145H66.3368V208.44H68.3618V209.565H66.3368V213.78C66.3368 214.17 66.4368 214.465 66.6368 214.665C66.8368 214.865 67.1068 214.965 67.4468 214.965C67.8168 214.965 68.1318 214.9 68.3918 214.77L68.4818 215.94ZM76.6777 216.12C75.6477 216.12 74.7877 215.845 74.0977 215.295C73.4177 214.745 73.0277 214.01 72.9277 213.09L74.2177 212.895C74.2877 213.505 74.5477 213.99 74.9977 214.35C75.4477 214.71 76.0077 214.89 76.6777 214.89C77.4077 214.89 77.9877 214.69 78.4177 214.29C78.8577 213.89 79.0777 213.36 79.0777 212.7C79.0777 212.02 78.8727 211.49 78.4627 211.11C78.0527 210.73 77.4827 210.54 76.7527 210.54C76.3327 210.54 75.9477 210.65 75.5977 210.87L75.0127 210L78.3277 206.715H73.2277V205.5H79.9327V206.685L76.9477 209.595C77.9877 209.495 78.8377 209.735 79.4977 210.315C80.1577 210.895 80.4877 211.7 80.4877 212.73C80.4877 213.75 80.1377 214.57 79.4377 215.19C78.7477 215.81 77.8277 216.12 76.6777 216.12Z" fill="#8D8D95"/>
<path d="M41.095 82V71.5H45.085C46.105 71.5 46.92 71.78 47.53 72.34C48.14 72.89 48.445 73.625 48.445 74.545C48.445 75.465 48.14 76.205 47.53 76.765C46.92 77.315 46.105 77.59 45.085 77.59H42.46V82H41.095ZM42.46 76.36H45.04C45.66 76.36 46.145 76.2 46.495 75.88C46.855 75.56 47.035 75.115 47.035 74.545C47.035 73.975 46.855 73.53 46.495 73.21C46.145 72.88 45.66 72.715 45.04 72.715H42.46V76.36ZM52.3071 74.32C53.2371 74.32 53.9871 74.575 54.5571 75.085C55.1271 75.595 55.4121 76.285 55.4121 77.155V82H54.1521V80.71C53.9321 81.14 53.5921 81.485 53.1321 81.745C52.6821 81.995 52.1821 82.12 51.6321 82.12C50.8821 82.12 50.2671 81.915 49.7871 81.505C49.3171 81.085 49.0821 80.545 49.0821 79.885C49.0821 78.465 50.2821 77.635 52.6821 77.395L54.1521 77.23V77.08C54.1521 76.56 53.9821 76.15 53.6421 75.85C53.3121 75.54 52.8671 75.385 52.3071 75.385C51.7871 75.385 51.3571 75.53 51.0171 75.82C50.6771 76.11 50.4821 76.51 50.4321 77.02L49.2471 76.795C49.3571 76.045 49.6921 75.445 50.2521 74.995C50.8221 74.545 51.5071 74.32 52.3071 74.32ZM51.8271 81.07C52.5571 81.07 53.1271 80.845 53.5371 80.395C53.9471 79.945 54.1521 79.34 54.1521 78.58V78.22L52.6821 78.385C51.1321 78.555 50.3571 79.05 50.3571 79.87C50.3571 80.22 50.4921 80.51 50.7621 80.74C51.0421 80.96 51.3971 81.07 51.8271 81.07ZM61.9102 75.685C61.6302 75.565 61.3052 75.505 60.9352 75.505C60.2952 75.505 59.7702 75.815 59.3602 76.435C58.9602 77.045 58.7602 77.94 58.7602 79.12V82H57.4852V74.44H58.7602V75.97C58.9802 75.49 59.3102 75.095 59.7502 74.785C60.1902 74.475 60.6452 74.32 61.1152 74.32C61.4452 74.32 61.7352 74.365 61.9852 74.455L61.9102 75.685ZM67.4818 81.94C67.1518 82.06 66.7568 82.12 66.2968 82.12C65.6168 82.12 65.0718 81.925 64.6618 81.535C64.2618 81.135 64.0618 80.535 64.0618 79.735V75.565H62.6518V74.44H64.0618V72.145H65.3368V74.44H67.3618V75.565H65.3368V79.78C65.3368 80.17 65.4368 80.465 65.6368 80.665C65.8368 80.865 66.1068 80.965 66.4468 80.965C66.8168 80.965 67.1318 80.9 67.3918 80.77L67.4818 81.94ZM74.3727 82V73.21C73.7227 73.81 72.8927 74.2 71.8827 74.38V73.165C72.9627 72.935 73.8627 72.38 74.5827 71.5H75.6627V82H74.3727Z" fill="white"/>
<line opacity="0.5" x1="12.5" y1="79" x2="12.5" y2="211" stroke="#868181" stroke-dasharray="12 4"/>
<g clip-path="url(#clip0)">
<line x1="12.5" y1="79" x2="12.5" y2="211" stroke="#ECEDF0" stroke-dasharray="12 4"/>
</g>
<circle cx="12" cy="77" r="12" fill="#51CF76"/>
<path d="M11.7052 82H12.9092V72.2H11.9012C11.2152 73.04 10.3612 73.544 9.38124 73.754V74.888C10.3052 74.72 11.0332 74.412 11.7052 73.796V82Z" fill="black"/>
<circle cx="12" cy="144" r="12" fill="#868181"/>
<path d="M8.50301 149L8.48901 147.894L12.171 144.716C13.263 143.773 13.809 142.877 13.809 142.028C13.809 141.477 13.6363 141.039 13.291 140.712C12.955 140.385 12.5023 140.222 11.933 140.222C11.2517 140.222 10.729 140.446 10.365 140.894C10.001 141.333 9.85634 141.916 9.93101 142.644L8.69901 142.56C8.62434 141.533 8.88567 140.698 9.48301 140.054C10.0897 139.41 10.9063 139.088 11.933 139.088C12.8943 139.088 13.6643 139.359 14.243 139.9C14.831 140.432 15.125 141.141 15.125 142.028C15.125 142.625 14.9523 143.209 14.607 143.778C14.2617 144.347 13.711 144.949 12.955 145.584L10.295 147.852H15.125V149H8.50301Z" fill="white"/>
<circle cx="12" cy="211" r="12" fill="#868181"/>
<path d="M11.851 216.112C10.8896 216.112 10.087 215.855 9.44298 215.342C8.80831 214.829 8.44431 214.143 8.35098 213.284L9.55498 213.102C9.62031 213.671 9.86298 214.124 10.283 214.46C10.703 214.796 11.2256 214.964 11.851 214.964C12.5323 214.964 13.0736 214.777 13.475 214.404C13.8856 214.031 14.091 213.536 14.091 212.92C14.091 212.285 13.8996 211.791 13.517 211.436C13.1343 211.081 12.6023 210.904 11.921 210.904C11.529 210.904 11.1696 211.007 10.843 211.212L10.297 210.4L13.391 207.334H8.63098V206.2H14.889V207.306L12.103 210.022C13.0736 209.929 13.867 210.153 14.483 210.694C15.099 211.235 15.407 211.987 15.407 212.948C15.407 213.9 15.0803 214.665 14.427 215.244C13.783 215.823 12.9243 216.112 11.851 216.112Z" fill="white"/>
<path d="M192.199 18V6.8H196.455C197.543 6.8 198.413 7.09867 199.063 7.696C199.714 8.28267 200.039 9.06667 200.039 10.048C200.039 11.0293 199.714 11.8187 199.063 12.416C198.413 13.0027 197.543 13.296 196.455 13.296H193.655V18H192.199ZM193.655 11.984H196.407C197.069 11.984 197.586 11.8133 197.959 11.472C198.343 11.1307 198.535 10.656 198.535 10.048C198.535 9.44 198.343 8.96533 197.959 8.624C197.586 8.272 197.069 8.096 196.407 8.096H193.655V11.984ZM204.159 9.808C205.151 9.808 205.951 10.08 206.559 10.624C207.167 11.168 207.471 11.904 207.471 12.832V18H206.127V16.624C205.892 17.0827 205.53 17.4507 205.039 17.728C204.559 17.9947 204.026 18.128 203.439 18.128C202.639 18.128 201.983 17.9093 201.471 17.472C200.97 17.024 200.719 16.448 200.719 15.744C200.719 14.2293 201.999 13.344 204.559 13.088L206.127 12.912V12.752C206.127 12.1973 205.946 11.76 205.583 11.44C205.231 11.1093 204.756 10.944 204.159 10.944C203.604 10.944 203.146 11.0987 202.783 11.408C202.42 11.7173 202.212 12.144 202.159 12.688L200.895 12.448C201.012 11.648 201.37 11.008 201.967 10.528C202.575 10.048 203.306 9.808 204.159 9.808ZM203.647 17.008C204.426 17.008 205.034 16.768 205.471 16.288C205.908 15.808 206.127 15.1627 206.127 14.352V13.968L204.559 14.144C202.906 14.3253 202.079 14.8533 202.079 15.728C202.079 16.1013 202.223 16.4107 202.511 16.656C202.81 16.8907 203.188 17.008 203.647 17.008ZM209.586 6.672H211.154V8.4H209.586V6.672ZM209.682 18V9.936H211.042V18H209.682ZM216.669 18.128C215.453 18.128 214.498 17.744 213.805 16.976C213.122 16.1973 212.781 15.1947 212.781 13.968C212.781 12.7413 213.122 11.744 213.805 10.976C214.487 10.1973 215.437 9.808 216.653 9.808C217.186 9.808 217.693 9.92533 218.173 10.16C218.663 10.3947 219.037 10.704 219.293 11.088V6.672H220.653V18H219.293V16.832C219.111 17.2053 218.775 17.5147 218.285 17.76C217.794 18.0053 217.255 18.128 216.669 18.128ZM214.893 16.112C215.373 16.6453 216.007 16.912 216.797 16.912C217.586 16.912 218.221 16.6453 218.701 16.112C219.181 15.568 219.421 14.8533 219.421 13.968C219.421 13.0827 219.181 12.3733 218.701 11.84C218.221 11.296 217.586 11.024 216.797 11.024C216.007 11.024 215.373 11.296 214.893 11.84C214.413 12.3733 214.173 13.0827 214.173 13.968C214.173 14.8533 214.413 15.568 214.893 16.112Z" fill="#8D8D95"/>
<path d="M228.617 18V8.624C227.924 9.264 227.039 9.68 225.961 9.872V8.576C227.113 8.33067 228.073 7.73867 228.841 6.8H229.993V18H228.617ZM231.3 18.016L236.324 6.8H237.716L232.676 18.016H231.3ZM242.259 18.128C241.161 18.128 240.243 17.8347 239.507 17.248C238.782 16.6613 238.366 15.8773 238.259 14.896L239.635 14.688C239.71 15.3387 239.987 15.856 240.467 16.24C240.947 16.624 241.545 16.816 242.259 16.816C243.038 16.816 243.657 16.6027 244.115 16.176C244.585 15.7493 244.819 15.184 244.819 14.48C244.819 13.7547 244.601 13.1893 244.163 12.784C243.726 12.3787 243.118 12.176 242.339 12.176C241.891 12.176 241.481 12.2933 241.107 12.528L240.483 11.6L244.019 8.096H238.579V6.8H245.731V8.064L242.547 11.168C243.657 11.0613 244.563 11.3173 245.267 11.936C245.971 12.5547 246.323 13.4133 246.323 14.512C246.323 15.6 245.95 16.4747 245.203 17.136C244.467 17.7973 243.486 18.128 242.259 18.128Z" fill="white"/>
<path d="M3.728 18H5.6V8.432H9.056V6.8H0.272V8.432H3.728V18ZM12.6601 18.128C15.0761 18.128 16.8201 16.384 16.8201 13.968C16.8201 11.552 15.0761 9.808 12.6601 9.808C10.2281 9.808 8.50012 11.552 8.50012 13.968C8.50012 16.384 10.2281 18.128 12.6601 18.128ZM12.6601 16.608C11.2201 16.608 10.2601 15.52 10.2601 13.968C10.2601 12.416 11.2201 11.328 12.6601 11.328C14.0841 11.328 15.0601 12.416 15.0601 13.968C15.0601 15.52 14.0841 16.608 12.6601 16.608ZM22.4359 20.912H24.1799V17.072C24.6759 17.712 25.6199 18.128 26.5959 18.128C29.0119 18.128 30.4839 16.4 30.4839 13.968C30.4839 11.536 29.0759 9.808 26.6919 9.808C25.5719 9.808 24.6279 10.304 24.1799 10.96V9.936H22.4359V20.912ZM26.4039 16.608C24.9959 16.608 24.0679 15.552 24.0679 13.968C24.0679 12.368 24.9959 11.328 26.4039 11.328C27.8119 11.328 28.7399 12.368 28.7399 13.968C28.7399 15.552 27.8119 16.608 26.4039 16.608ZM35.1972 9.808C33.4852 9.808 32.1092 10.848 31.8532 12.432L33.4212 12.72C33.5332 11.76 34.2212 11.184 35.1972 11.184C36.2533 11.184 36.9412 11.792 36.9412 12.784V12.896L35.4212 13.056C32.9412 13.312 31.7092 14.16 31.7092 15.744C31.7092 17.12 32.8132 18.128 34.4132 18.128C35.4852 18.128 36.4773 17.584 36.9412 16.768V18H38.6533V12.976C38.6533 10.96 37.2452 9.808 35.1972 9.808ZM34.7652 16.784C33.9492 16.784 33.4212 16.336 33.4212 15.696C33.4212 14.992 34.0932 14.512 35.4053 14.368L36.9412 14.192V14.528C36.9253 15.84 36.1252 16.784 34.7652 16.784ZM45.7669 9.936L43.6069 15.52L41.4949 9.936H39.6069L42.7429 17.76L41.5269 20.912H43.3189L47.5589 9.936H45.7669Z" fill="white"/>
<defs>
<clipPath id="clip0">
<rect width="24" height="24" fill="white" transform="translate(0 65)"/>
</clipPath>
</defs>
</svg>
