<svg width="295" height="304" viewBox="0 0 295 304" fill="none" xmlns="http://www.w3.org/2000/svg">
<path d="M164.871 298L158.823 287.44V286.032H159.527C161.234 286.032 162.535 285.787 163.431 285.296C164.348 284.805 164.882 283.92 165.031 282.64H158.823V280.592H164.999C164.786 279.397 164.22 278.533 163.303 278C162.407 277.467 161.148 277.2 159.527 277.2H158.823V275.152H172.071V277.2H166.023C167.047 278.032 167.655 279.163 167.847 280.592H172.071V282.64H167.911C167.762 284.197 167.164 285.413 166.119 286.288C165.095 287.141 163.73 287.685 162.023 287.92L168.135 298H164.871ZM180.271 298H183.791V275.6H180.879C179.279 277.328 177.231 278.512 175.087 278.992V282.352C177.103 281.936 178.767 281.232 180.271 279.92V298ZM194.903 298.256C199.767 298.256 202.903 295.184 202.903 290.544C202.903 286.064 199.863 283.088 195.319 283.088C193.751 283.088 192.023 283.792 190.935 284.784L191.831 278.864H201.271V275.6H189.079L187.287 287.984L190.007 288.56C191.063 286.992 192.567 286.128 194.519 286.128C197.335 286.128 199.127 287.824 199.127 290.544C199.127 293.2 197.399 294.96 194.775 294.96C192.343 294.96 190.551 293.584 190.135 291.44L186.711 292.048C187.319 295.824 190.519 298.256 194.903 298.256ZM221.251 298.256C226.883 298.256 230.115 293.68 230.115 286.8C230.115 279.92 226.883 275.344 221.251 275.344C215.587 275.344 212.387 279.92 212.387 286.8C212.387 293.68 215.587 298.256 221.251 298.256ZM221.251 294.96C217.923 294.96 216.163 291.856 216.163 286.8C216.163 281.744 217.923 278.608 221.251 278.608C224.547 278.608 226.339 281.744 226.339 286.8C226.339 291.856 224.547 294.96 221.251 294.96ZM241.088 298.256C246.72 298.256 249.951 293.68 249.951 286.8C249.951 279.92 246.72 275.344 241.088 275.344C235.424 275.344 232.223 279.92 232.223 286.8C232.223 293.68 235.424 298.256 241.088 298.256ZM241.088 294.96C237.76 294.96 235.999 291.856 235.999 286.8C235.999 281.744 237.76 278.608 241.088 278.608C244.384 278.608 246.176 281.744 246.176 286.8C246.176 291.856 244.384 294.96 241.088 294.96ZM260.924 298.256C266.556 298.256 269.788 293.68 269.788 286.8C269.788 279.92 266.556 275.344 260.924 275.344C255.26 275.344 252.06 279.92 252.06 286.8C252.06 293.68 255.26 298.256 260.924 298.256ZM260.924 294.96C257.596 294.96 255.836 291.856 255.836 286.8C255.836 281.744 257.596 278.608 260.924 278.608C264.22 278.608 266.012 281.744 266.012 286.8C266.012 291.856 264.22 294.96 260.924 294.96Z" fill="white"/>
<path d="M27.615 286H28.98V276.715H32.31V275.5H24.27V276.715H27.615V286ZM35.6324 286.12C37.8674 286.12 39.4874 284.485 39.4874 282.22C39.4874 279.955 37.8674 278.32 35.6324 278.32C33.3824 278.32 31.7924 279.955 31.7924 282.22C31.7924 284.485 33.3824 286.12 35.6324 286.12ZM35.6324 284.98C34.1174 284.98 33.0974 283.84 33.0974 282.22C33.0974 280.6 34.1174 279.46 35.6324 279.46C37.1474 279.46 38.1674 280.6 38.1674 282.22C38.1674 283.84 37.1474 284.98 35.6324 284.98ZM45.0364 285.94L44.9464 284.77C44.6464 284.92 44.3014 284.965 44.0014 284.965C43.3414 284.965 42.8914 284.575 42.8914 283.78V279.565H44.9164V278.44H42.8914V276.145H41.6164V278.44H40.2064V279.565H41.6164V283.735C41.6164 285.4 42.5614 286.12 43.8514 286.12C44.2564 286.12 44.6614 286.075 45.0364 285.94ZM49.2124 278.32C47.6224 278.32 46.3774 279.295 46.1524 280.795L47.3374 281.02C47.4424 280 48.1774 279.385 49.2124 279.385C50.3224 279.385 51.0574 280.045 51.0574 281.08V281.23L49.5874 281.395C47.1724 281.635 45.9874 282.43 45.9874 283.885C45.9874 285.19 47.0224 286.12 48.5374 286.12C49.6324 286.12 50.6224 285.58 51.0574 284.71V286H52.3174V281.155C52.3174 279.4 51.0424 278.32 49.2124 278.32ZM48.7324 285.07C47.8624 285.07 47.2624 284.575 47.2624 283.87C47.2624 283.075 48.0574 282.55 49.5874 282.385L51.0574 282.22V282.58C51.0574 284.095 50.2024 285.07 48.7324 285.07ZM54.3905 286H55.6655V275.38H54.3905V286ZM57.7303 278.44V280H59.2003V278.44H57.7303ZM57.7303 284.44V286H59.2003V284.44H57.7303Z" fill="white"/>
<line opacity="0.08" x1="4.37114e-08" y1="253.5" x2="295" y2="253.5" stroke="#D5D5DA"/>
<path d="M65.095 148V137.5H69.085C70.105 137.5 70.92 137.78 71.53 138.34C72.14 138.89 72.445 139.625 72.445 140.545C72.445 141.465 72.14 142.205 71.53 142.765C70.92 143.315 70.105 143.59 69.085 143.59H66.46V148H65.095ZM66.46 142.36H69.04C69.66 142.36 70.145 142.2 70.495 141.88C70.855 141.56 71.035 141.115 71.035 140.545C71.035 139.975 70.855 139.53 70.495 139.21C70.145 138.88 69.66 138.715 69.04 138.715H66.46V142.36ZM76.3071 140.32C77.2371 140.32 77.9871 140.575 78.5571 141.085C79.1271 141.595 79.4121 142.285 79.4121 143.155V148H78.1521V146.71C77.9321 147.14 77.5921 147.485 77.1321 147.745C76.6821 147.995 76.1821 148.12 75.6321 148.12C74.8821 148.12 74.2671 147.915 73.7871 147.505C73.3171 147.085 73.0821 146.545 73.0821 145.885C73.0821 144.465 74.2821 143.635 76.6821 143.395L78.1521 143.23V143.08C78.1521 142.56 77.9821 142.15 77.6421 141.85C77.3121 141.54 76.8671 141.385 76.3071 141.385C75.7871 141.385 75.3571 141.53 75.0171 141.82C74.6771 142.11 74.4821 142.51 74.4321 143.02L73.2471 142.795C73.3571 142.045 73.6921 141.445 74.2521 140.995C74.8221 140.545 75.5071 140.32 76.3071 140.32ZM75.8271 147.07C76.5571 147.07 77.1271 146.845 77.5371 146.395C77.9471 145.945 78.1521 145.34 78.1521 144.58V144.22L76.6821 144.385C75.1321 144.555 74.3571 145.05 74.3571 145.87C74.3571 146.22 74.4921 146.51 74.7621 146.74C75.0421 146.96 75.3971 147.07 75.8271 147.07ZM85.9102 141.685C85.6302 141.565 85.3052 141.505 84.9352 141.505C84.2952 141.505 83.7702 141.815 83.3602 142.435C82.9602 143.045 82.7602 143.94 82.7602 145.12V148H81.4852V140.44H82.7602V141.97C82.9802 141.49 83.3102 141.095 83.7502 140.785C84.1902 140.475 84.6452 140.32 85.1152 140.32C85.4452 140.32 85.7352 140.365 85.9852 140.455L85.9102 141.685ZM91.4818 147.94C91.1518 148.06 90.7568 148.12 90.2968 148.12C89.6168 148.12 89.0718 147.925 88.6618 147.535C88.2618 147.135 88.0618 146.535 88.0618 145.735V141.565H86.6518V140.44H88.0618V138.145H89.3368V140.44H91.3618V141.565H89.3368V145.78C89.3368 146.17 89.4368 146.465 89.6368 146.665C89.8368 146.865 90.1068 146.965 90.4468 146.965C90.8168 146.965 91.1318 146.9 91.3918 146.77L91.4818 147.94ZM96.0027 148L95.9877 146.815L99.9327 143.41C101.103 142.4 101.688 141.44 101.688 140.53C101.688 139.94 101.503 139.47 101.133 139.12C100.773 138.77 100.288 138.595 99.6777 138.595C98.9477 138.595 98.3877 138.835 97.9977 139.315C97.6077 139.785 97.4527 140.41 97.5327 141.19L96.2127 141.1C96.1327 140 96.4127 139.105 97.0527 138.415C97.7027 137.725 98.5777 137.38 99.6777 137.38C100.708 137.38 101.533 137.67 102.153 138.25C102.783 138.82 103.098 139.58 103.098 140.53C103.098 141.17 102.913 141.795 102.543 142.405C102.173 143.015 101.583 143.66 100.773 144.34L97.9227 146.77H103.098V148H96.0027Z" fill="white"/>
<path d="M66.095 215V204.5H70.085C71.105 204.5 71.92 204.78 72.53 205.34C73.14 205.89 73.445 206.625 73.445 207.545C73.445 208.465 73.14 209.205 72.53 209.765C71.92 210.315 71.105 210.59 70.085 210.59H67.46V215H66.095ZM67.46 209.36H70.04C70.66 209.36 71.145 209.2 71.495 208.88C71.855 208.56 72.035 208.115 72.035 207.545C72.035 206.975 71.855 206.53 71.495 206.21C71.145 205.88 70.66 205.715 70.04 205.715H67.46V209.36ZM77.3071 207.32C78.2371 207.32 78.9871 207.575 79.5571 208.085C80.1271 208.595 80.4121 209.285 80.4121 210.155V215H79.1521V213.71C78.9321 214.14 78.5921 214.485 78.1321 214.745C77.6821 214.995 77.1821 215.12 76.6321 215.12C75.8821 215.12 75.2671 214.915 74.7871 214.505C74.3171 214.085 74.0821 213.545 74.0821 212.885C74.0821 211.465 75.2821 210.635 77.6821 210.395L79.1521 210.23V210.08C79.1521 209.56 78.9821 209.15 78.6421 208.85C78.3121 208.54 77.8671 208.385 77.3071 208.385C76.7871 208.385 76.3571 208.53 76.0171 208.82C75.6771 209.11 75.4821 209.51 75.4321 210.02L74.2471 209.795C74.3571 209.045 74.6921 208.445 75.2521 207.995C75.8221 207.545 76.5071 207.32 77.3071 207.32ZM76.8271 214.07C77.5571 214.07 78.1271 213.845 78.5371 213.395C78.9471 212.945 79.1521 212.34 79.1521 211.58V211.22L77.6821 211.385C76.1321 211.555 75.3571 212.05 75.3571 212.87C75.3571 213.22 75.4921 213.51 75.7621 213.74C76.0421 213.96 76.3971 214.07 76.8271 214.07ZM86.9102 208.685C86.6302 208.565 86.3052 208.505 85.9352 208.505C85.2952 208.505 84.7702 208.815 84.3602 209.435C83.9602 210.045 83.7602 210.94 83.7602 212.12V215H82.4852V207.44H83.7602V208.97C83.9802 208.49 84.3102 208.095 84.7502 207.785C85.1902 207.475 85.6452 207.32 86.1152 207.32C86.4452 207.32 86.7352 207.365 86.9852 207.455L86.9102 208.685ZM92.4818 214.94C92.1518 215.06 91.7568 215.12 91.2968 215.12C90.6168 215.12 90.0718 214.925 89.6618 214.535C89.2618 214.135 89.0618 213.535 89.0618 212.735V208.565H87.6518V207.44H89.0618V205.145H90.3368V207.44H92.3618V208.565H90.3368V212.78C90.3368 213.17 90.4368 213.465 90.6368 213.665C90.8368 213.865 91.1068 213.965 91.4468 213.965C91.8168 213.965 92.1318 213.9 92.3918 213.77L92.4818 214.94ZM100.678 215.12C99.6477 215.12 98.7877 214.845 98.0977 214.295C97.4177 213.745 97.0277 213.01 96.9277 212.09L98.2177 211.895C98.2877 212.505 98.5477 212.99 98.9977 213.35C99.4477 213.71 100.008 213.89 100.678 213.89C101.408 213.89 101.988 213.69 102.418 213.29C102.858 212.89 103.078 212.36 103.078 211.7C103.078 211.02 102.873 210.49 102.463 210.11C102.053 209.73 101.483 209.54 100.753 209.54C100.333 209.54 99.9477 209.65 99.5977 209.87L99.0127 209L102.328 205.715H97.2277V204.5H103.933V205.685L100.948 208.595C101.988 208.495 102.838 208.735 103.498 209.315C104.158 209.895 104.488 210.7 104.488 211.73C104.488 212.75 104.138 213.57 103.438 214.19C102.748 214.81 101.828 215.12 100.678 215.12Z" fill="white"/>
<path d="M65.095 81V70.5H69.085C70.105 70.5 70.92 70.78 71.53 71.34C72.14 71.89 72.445 72.625 72.445 73.545C72.445 74.465 72.14 75.205 71.53 75.765C70.92 76.315 70.105 76.59 69.085 76.59H66.46V81H65.095ZM66.46 75.36H69.04C69.66 75.36 70.145 75.2 70.495 74.88C70.855 74.56 71.035 74.115 71.035 73.545C71.035 72.975 70.855 72.53 70.495 72.21C70.145 71.88 69.66 71.715 69.04 71.715H66.46V75.36ZM76.3071 73.32C77.2371 73.32 77.9871 73.575 78.5571 74.085C79.1271 74.595 79.4121 75.285 79.4121 76.155V81H78.1521V79.71C77.9321 80.14 77.5921 80.485 77.1321 80.745C76.6821 80.995 76.1821 81.12 75.6321 81.12C74.8821 81.12 74.2671 80.915 73.7871 80.505C73.3171 80.085 73.0821 79.545 73.0821 78.885C73.0821 77.465 74.2821 76.635 76.6821 76.395L78.1521 76.23V76.08C78.1521 75.56 77.9821 75.15 77.6421 74.85C77.3121 74.54 76.8671 74.385 76.3071 74.385C75.7871 74.385 75.3571 74.53 75.0171 74.82C74.6771 75.11 74.4821 75.51 74.4321 76.02L73.2471 75.795C73.3571 75.045 73.6921 74.445 74.2521 73.995C74.8221 73.545 75.5071 73.32 76.3071 73.32ZM75.8271 80.07C76.5571 80.07 77.1271 79.845 77.5371 79.395C77.9471 78.945 78.1521 78.34 78.1521 77.58V77.22L76.6821 77.385C75.1321 77.555 74.3571 78.05 74.3571 78.87C74.3571 79.22 74.4921 79.51 74.7621 79.74C75.0421 79.96 75.3971 80.07 75.8271 80.07ZM85.9102 74.685C85.6302 74.565 85.3052 74.505 84.9352 74.505C84.2952 74.505 83.7702 74.815 83.3602 75.435C82.9602 76.045 82.7602 76.94 82.7602 78.12V81H81.4852V73.44H82.7602V74.97C82.9802 74.49 83.3102 74.095 83.7502 73.785C84.1902 73.475 84.6452 73.32 85.1152 73.32C85.4452 73.32 85.7352 73.365 85.9852 73.455L85.9102 74.685ZM91.4818 80.94C91.1518 81.06 90.7568 81.12 90.2968 81.12C89.6168 81.12 89.0718 80.925 88.6618 80.535C88.2618 80.135 88.0618 79.535 88.0618 78.735V74.565H86.6518V73.44H88.0618V71.145H89.3368V73.44H91.3618V74.565H89.3368V78.78C89.3368 79.17 89.4368 79.465 89.6368 79.665C89.8368 79.865 90.1068 79.965 90.4468 79.965C90.8168 79.965 91.1318 79.9 91.3918 79.77L91.4818 80.94ZM98.3727 81V72.21C97.7227 72.81 96.8927 73.2 95.8827 73.38V72.165C96.9627 71.935 97.8627 71.38 98.5827 70.5H99.6627V81H98.3727Z" fill="white"/>
<line x1="36.5" y1="78" x2="36.5" y2="210" stroke="#ECEDF0" stroke-dasharray="12 4"/>
<line x1="36.5" y1="78" x2="36.5" y2="210" stroke="#527A5E" stroke-dasharray="12 4"/>
<circle cx="36" cy="210" r="12" fill="#51CF76"/>
<path d="M35.851 215.112C34.8896 215.112 34.087 214.855 33.443 214.342C32.8083 213.829 32.4443 213.143 32.351 212.284L33.555 212.102C33.6203 212.671 33.863 213.124 34.283 213.46C34.703 213.796 35.2256 213.964 35.851 213.964C36.5323 213.964 37.0736 213.777 37.475 213.404C37.8856 213.031 38.091 212.536 38.091 211.92C38.091 211.285 37.8996 210.791 37.517 210.436C37.1343 210.081 36.6023 209.904 35.921 209.904C35.529 209.904 35.1696 210.007 34.843 210.212L34.297 209.4L37.391 206.334H32.631V205.2H38.889V206.306L36.103 209.022C37.0736 208.929 37.867 209.153 38.483 209.694C39.099 210.235 39.407 210.987 39.407 211.948C39.407 212.9 39.0803 213.665 38.427 214.244C37.783 214.823 36.9243 215.112 35.851 215.112Z" fill="black"/>
<circle cx="36" cy="143" r="12" fill="#51CF76"/>
<path d="M32.503 148L32.489 146.894L36.171 143.716C37.263 142.773 37.809 141.877 37.809 141.028C37.809 140.477 37.6363 140.039 37.291 139.712C36.955 139.385 36.5023 139.222 35.933 139.222C35.2517 139.222 34.729 139.446 34.365 139.894C34.001 140.333 33.8563 140.916 33.931 141.644L32.699 141.56C32.6243 140.533 32.8857 139.698 33.483 139.054C34.0897 138.41 34.9063 138.088 35.933 138.088C36.8943 138.088 37.6643 138.359 38.243 138.9C38.831 139.432 39.125 140.141 39.125 141.028C39.125 141.625 38.9523 142.209 38.607 142.778C38.2617 143.347 37.711 143.949 36.955 144.584L34.295 146.852H39.125V148H32.503Z" fill="black"/>
<circle cx="36" cy="76" r="12" fill="#51CF76"/>
<path d="M35.7052 81V72.796C35.0986 73.356 34.3239 73.72 33.3812 73.888V72.754C34.3892 72.5393 35.2292 72.0213 35.9012 71.2H36.9092V81H35.7052Z" fill="black"/>
<path d="M27.728 18H29.6V8.432H33.056V6.8H24.272V8.432H27.728V18ZM36.6601 18.128C39.0761 18.128 40.8201 16.384 40.8201 13.968C40.8201 11.552 39.0761 9.808 36.6601 9.808C34.2281 9.808 32.5001 11.552 32.5001 13.968C32.5001 16.384 34.2281 18.128 36.6601 18.128ZM36.6601 16.608C35.2201 16.608 34.2601 15.52 34.2601 13.968C34.2601 12.416 35.2201 11.328 36.6601 11.328C38.0841 11.328 39.0601 12.416 39.0601 13.968C39.0601 15.52 38.0841 16.608 36.6601 16.608ZM46.4359 20.912H48.1799V17.072C48.6759 17.712 49.6199 18.128 50.5959 18.128C53.0119 18.128 54.4839 16.4 54.4839 13.968C54.4839 11.536 53.0759 9.808 50.6919 9.808C49.5719 9.808 48.6279 10.304 48.1799 10.96V9.936H46.4359V20.912ZM50.4039 16.608C48.9959 16.608 48.0679 15.552 48.0679 13.968C48.0679 12.368 48.9959 11.328 50.4039 11.328C51.8119 11.328 52.7399 12.368 52.7399 13.968C52.7399 15.552 51.8119 16.608 50.4039 16.608ZM59.1972 9.808C57.4852 9.808 56.1092 10.848 55.8532 12.432L57.4212 12.72C57.5332 11.76 58.2212 11.184 59.1972 11.184C60.2533 11.184 60.9412 11.792 60.9412 12.784V12.896L59.4212 13.056C56.9412 13.312 55.7092 14.16 55.7092 15.744C55.7092 17.12 56.8132 18.128 58.4132 18.128C59.4852 18.128 60.4773 17.584 60.9412 16.768V18H62.6533V12.976C62.6533 10.96 61.2452 9.808 59.1972 9.808ZM58.7652 16.784C57.9492 16.784 57.4212 16.336 57.4212 15.696C57.4212 14.992 58.0932 14.512 59.4053 14.368L60.9412 14.192V14.528C60.9253 15.84 60.1252 16.784 58.7652 16.784ZM69.7669 9.936L67.6069 15.52L65.4949 9.936H63.6069L66.7429 17.76L65.5269 20.912H67.3189L71.5589 9.936H69.7669Z" fill="white"/>
<path d="M212.606 18V6.8H216.862C217.95 6.8 218.819 7.09867 219.47 7.696C220.12 8.28267 220.446 9.06667 220.446 10.048C220.446 11.0293 220.12 11.8187 219.47 12.416C218.819 13.0027 217.95 13.296 216.862 13.296H214.062V18H212.606ZM214.062 11.984H216.814C217.475 11.984 217.992 11.8133 218.366 11.472C218.75 11.1307 218.942 10.656 218.942 10.048C218.942 9.44 218.75 8.96533 218.366 8.624C217.992 8.272 217.475 8.096 216.814 8.096H214.062V11.984ZM224.565 9.808C225.557 9.808 226.357 10.08 226.965 10.624C227.573 11.168 227.877 11.904 227.877 12.832V18H226.533V16.624C226.298 17.0827 225.936 17.4507 225.445 17.728C224.965 17.9947 224.432 18.128 223.845 18.128C223.045 18.128 222.389 17.9093 221.877 17.472C221.376 17.024 221.125 16.448 221.125 15.744C221.125 14.2293 222.405 13.344 224.965 13.088L226.533 12.912V12.752C226.533 12.1973 226.352 11.76 225.989 11.44C225.637 11.1093 225.162 10.944 224.565 10.944C224.01 10.944 223.552 11.0987 223.189 11.408C222.826 11.7173 222.618 12.144 222.565 12.688L221.301 12.448C221.418 11.648 221.776 11.008 222.373 10.528C222.981 10.048 223.712 9.808 224.565 9.808ZM224.053 17.008C224.832 17.008 225.44 16.768 225.877 16.288C226.314 15.808 226.533 15.1627 226.533 14.352V13.968L224.965 14.144C223.312 14.3253 222.485 14.8533 222.485 15.728C222.485 16.1013 222.629 16.4107 222.917 16.656C223.216 16.8907 223.594 17.008 224.053 17.008ZM229.992 6.672H231.56V8.4H229.992V6.672ZM230.088 18V9.936H231.448V18H230.088ZM237.075 18.128C235.859 18.128 234.904 17.744 234.211 16.976C233.528 16.1973 233.187 15.1947 233.187 13.968C233.187 12.7413 233.528 11.744 234.211 10.976C234.894 10.1973 235.843 9.808 237.059 9.808C237.592 9.808 238.099 9.92533 238.579 10.16C239.07 10.3947 239.443 10.704 239.699 11.088V6.672H241.059V18H239.699V16.832C239.518 17.2053 239.182 17.5147 238.691 17.76C238.2 18.0053 237.662 18.128 237.075 18.128ZM235.299 16.112C235.779 16.6453 236.414 16.912 237.203 16.912C237.992 16.912 238.627 16.6453 239.107 16.112C239.587 15.568 239.827 14.8533 239.827 13.968C239.827 13.0827 239.587 12.3733 239.107 11.84C238.627 11.296 237.992 11.024 237.203 11.024C236.414 11.024 235.779 11.296 235.299 11.84C234.819 12.3733 234.579 13.0827 234.579 13.968C234.579 14.8533 234.819 15.568 235.299 16.112Z" fill="#8D8D95"/>
<path d="M250.416 18.128C249.317 18.128 248.4 17.8347 247.664 17.248C246.938 16.6613 246.522 15.8773 246.416 14.896L247.792 14.688C247.866 15.3387 248.144 15.856 248.624 16.24C249.104 16.624 249.701 16.816 250.416 16.816C251.194 16.816 251.813 16.6027 252.272 16.176C252.741 15.7493 252.976 15.184 252.976 14.48C252.976 13.7547 252.757 13.1893 252.32 12.784C251.882 12.3787 251.274 12.176 250.496 12.176C250.048 12.176 249.637 12.2933 249.264 12.528L248.64 11.6L252.176 8.096H246.736V6.8H253.888V8.064L250.704 11.168C251.813 11.0613 252.72 11.3173 253.424 11.936C254.128 12.5547 254.48 13.4133 254.48 14.512C254.48 15.6 254.106 16.4747 253.36 17.136C252.624 17.7973 251.642 18.128 250.416 18.128ZM255.3 18.016L260.324 6.8H261.716L256.676 18.016H255.3ZM266.259 18.128C265.161 18.128 264.243 17.8347 263.507 17.248C262.782 16.6613 262.366 15.8773 262.259 14.896L263.635 14.688C263.71 15.3387 263.987 15.856 264.467 16.24C264.947 16.624 265.545 16.816 266.259 16.816C267.038 16.816 267.657 16.6027 268.115 16.176C268.585 15.7493 268.819 15.184 268.819 14.48C268.819 13.7547 268.601 13.1893 268.163 12.784C267.726 12.3787 267.118 12.176 266.339 12.176C265.891 12.176 265.481 12.2933 265.107 12.528L264.483 11.6L268.019 8.096H262.579V6.8H269.731V8.064L266.547 11.168C267.657 11.0613 268.563 11.3173 269.267 11.936C269.971 12.5547 270.323 13.4133 270.323 14.512C270.323 15.6 269.95 16.4747 269.203 17.136C268.467 17.7973 267.486 18.128 266.259 18.128Z" fill="white"/>
</svg>
