<svg width="880" height="592" viewBox="0 0 880 592" fill="none" xmlns="http://www.w3.org/2000/svg">
<g clip-path="url(#clip0)">
<path d="M391.44 109.593C389.673 107.531 387.022 106.353 384.077 106.206C380.542 106.058 377.008 107.384 374.651 109.74C372.737 111.655 371.264 114.158 370.381 117.104C370.086 116.809 369.791 116.514 369.497 116.22C365.079 110.918 362.575 103.849 362.575 96.9278C362.575 95.3078 361.25 93.9824 359.63 93.9824C358.01 93.9824 356.685 95.3078 356.685 96.9278C356.685 105.175 359.63 113.569 364.932 120.049C366.257 121.669 367.73 123.142 369.35 124.32C369.35 124.614 369.35 124.761 369.35 125.056C369.644 135.365 374.651 145.232 382.898 151.564C383.487 152.006 384.077 152.153 384.666 152.153C385.549 152.153 386.433 151.712 387.022 150.975C388.053 149.65 387.758 147.883 386.433 146.852C380.395 142.139 376.419 135.07 375.388 127.56C378.039 128.443 380.837 128.738 383.487 128.149C387.758 127.265 391.44 124.025 392.913 119.607C394.238 115.925 393.649 112.244 391.44 109.593ZM387.464 117.693C386.58 120.049 384.518 121.963 382.457 122.405C380.1 122.847 377.744 122.258 375.535 121.08C375.829 118.576 376.713 115.925 378.775 114.011C380.1 112.833 382.015 112.096 383.782 112.096C384.666 112.096 386.138 112.391 387.022 113.422C388.2 114.895 387.758 116.662 387.464 117.693Z" fill="#FFF061"/>
<path d="M665.225 209.45C664.783 209.45 664.489 209.45 664.047 209.302C662.574 208.713 661.838 206.946 662.427 205.473C666.403 195.754 672.883 187.212 681.277 180.88C682.603 179.849 684.37 180.143 685.401 181.469C686.432 182.794 686.137 184.561 684.812 185.592C677.301 191.336 671.41 198.994 667.876 207.83C667.434 208.713 666.403 209.45 665.225 209.45Z" fill="#00DCC8"/>
<path d="M692.055 281.197C692.838 280.854 693.536 280.448 694.341 280.254C697.009 279.33 699.827 278.915 702.879 278.541C704.448 278.385 706.08 278.145 707.775 277.819C714.046 276.668 718.657 274.018 720.951 270.042C722.593 267.299 722.873 263.545 721.65 260.391C720.578 257.745 718.577 255.994 716.136 255.368C715.032 255.076 713.848 255.781 713.556 256.885C713.264 257.989 713.969 259.174 715.073 259.466C716.643 259.84 717.37 261.173 717.713 261.956C718.442 263.819 718.41 266.173 717.357 267.768C715.231 271.34 710.531 272.866 706.992 273.539C705.446 273.843 703.962 274.062 702.394 274.217C699.342 274.591 695.993 275.009 692.902 276.146C690.891 276.897 688.924 277.945 687.212 279.183C683.37 278.309 678.939 278.583 674.557 280.214C667.866 282.64 662.586 287.435 660.11 293.256C659.711 294.148 660.012 295.165 660.778 295.734C660.949 295.86 661.034 295.924 661.267 295.965C662.393 296.405 663.599 295.849 664.061 294.871C666.012 290.113 670.512 286.191 675.974 284.173C678.43 283.357 680.867 282.922 683.135 282.89C682.946 283.146 682.756 283.401 682.566 283.656C680.331 286.487 679.051 289.631 678.81 292.622C678.593 296.291 680.115 299.932 682.838 301.955L682.923 302.018C685.306 303.789 688.382 304.094 691.41 303.041C694.798 301.86 697.436 299.197 698.334 296.034C699.964 290.641 697.222 284.376 692.055 281.197ZM690.056 298.997C688.32 299.556 686.559 299.437 685.368 298.551L685.283 298.488C683.751 297.35 682.744 295.149 683.01 292.836C683.146 290.164 684.62 287.825 685.822 286.208C686.454 285.357 687.32 284.547 688.123 283.823C688.526 283.99 688.93 284.158 689.185 284.348C693.202 286.408 695.385 290.937 694.278 294.737C693.799 296.627 692.152 298.309 690.056 298.997Z" fill="#F19E21"/>
<path d="M642.707 525.246C641.281 522.566 638.747 520.92 635.568 520.345C631.747 519.627 627.496 520.837 624.779 523.335C622.169 525.654 620.415 528.974 619.34 533.188C614.77 530.683 611.131 527.036 608.562 524.033C607.706 523.032 606.743 521.603 605.744 520.03C611.351 520.607 616.925 518.612 620.358 514.723C622.826 511.832 624.08 507.726 623.548 503.76C623.087 500.081 621.412 497.008 618.663 495.112C615.522 492.858 611.308 492.39 607.128 493.886C602.125 495.738 598.156 499.913 596.937 504.77C596.543 506.234 596.327 507.805 596.361 509.163C594.756 507.589 593.364 505.659 592.081 503.551C589.407 498.905 587.733 493.402 586.131 488.186C585.74 486.614 584.169 485.791 582.454 486.218C580.882 486.609 579.952 488.358 580.486 489.895C582.195 495.54 583.796 501.364 586.934 506.653C589.823 511.549 593.533 515.482 597.889 517.736C599.42 522.06 601.953 525.527 603.915 527.922C607.161 531.818 611.979 536.538 618.333 539.509C618.077 545.795 620.816 557.406 626.918 563.02C629.701 565.666 633.022 566.812 636.594 566.53C636.737 566.494 636.88 566.459 637.023 566.423C638.452 566.067 639.346 564.782 639.276 563.282C639.028 561.674 637.672 560.494 636.064 560.743C634.278 560.884 632.636 560.382 631.03 558.809C627.033 554.948 624.541 546.766 624.439 541.479L624.582 541.444C629.867 542.556 634.868 541.918 638.371 539.529C643.339 536.319 645.238 529.927 642.707 525.246ZM602.893 513.455C602.324 511.169 602.184 508.775 602.758 506.204C603.546 503.276 606.192 500.493 609.23 499.281C610.48 498.818 613.088 498.321 615.265 499.752C616.586 500.789 617.442 502.397 617.761 504.29C618.045 506.648 617.292 509.112 615.862 510.682C613.001 513.822 607.821 514.96 603.179 513.384C603.215 513.527 603.036 513.42 602.893 513.455ZM635.161 534.561C632.016 536.558 627.945 536.054 625.874 535.659C625.552 535.587 625.231 535.515 624.91 535.443C625.556 531.944 626.737 529.373 628.739 527.661C630.24 526.376 632.491 525.664 634.563 526.059C635.527 526.275 636.848 526.704 637.454 527.919C638.63 530.207 637.27 533.277 635.161 534.561Z" fill="#FFF061"/>
<path d="M419.109 612.008C419.622 604.892 419.696 596.749 415.955 589.78C415.514 588.9 415.001 588.093 414.414 587.36C416.175 585.746 417.715 583.765 418.816 581.638C420.209 578.777 420.943 575.696 420.943 572.468C424.537 570.34 427.398 567.186 429.232 563.885C433.194 556.843 433.707 548.553 433.707 541.364C433.707 540.19 432.827 539.31 431.653 539.31C430.479 539.31 429.599 540.19 429.599 541.364C429.599 547.966 429.159 555.595 425.711 561.831C424.464 564.105 422.704 566.159 420.503 567.773C420.136 566.086 419.476 564.398 418.595 562.931C416.835 559.703 414.341 557.356 411.48 556.256C407.885 554.862 403.777 555.742 401.356 558.31C398.789 561.024 398.422 565.499 400.403 568.947C402.017 571.881 405.171 574.008 408.986 574.742C411.7 575.255 414.414 575.035 416.908 574.302C416.688 576.136 416.175 577.97 415.368 579.657C414.487 581.418 413.24 582.958 411.847 584.205C407.518 580.317 401.43 578.19 395.708 580.391C395.488 580.464 395.414 580.537 395.194 580.611C393.874 581.638 393.067 583.031 392.994 584.865C392.847 586.919 393.727 588.973 395.194 590.294C397.175 592.128 400.256 592.861 403.851 592.348C406.418 591.981 408.986 591.027 411.333 589.707C411.773 590.294 412.213 591.027 412.507 591.614C415.735 597.63 415.661 605.039 415.148 611.568C415.074 612.228 415.368 612.815 415.735 613.182C416.101 613.548 416.541 613.695 417.055 613.769C417.935 614.062 418.962 613.182 419.109 612.008ZM409.572 570.781C407.005 570.267 404.878 568.873 403.851 566.966C402.824 565.059 402.97 562.564 404.217 561.171C405.464 559.777 407.812 559.483 409.866 560.217C410.893 560.657 411.92 561.244 412.8 562.124C413.607 562.931 414.267 563.885 414.928 564.985C415.735 566.526 416.321 568.286 416.615 570.047C414.267 570.927 411.92 571.221 409.572 570.781ZM403.044 588.46C401.723 588.607 399.229 588.753 397.762 587.433C397.248 586.919 396.881 586.112 396.955 585.306C396.955 585.012 397.028 584.645 397.322 584.352C400.99 583.178 405.024 584.425 408.105 586.919C406.418 587.58 404.804 588.166 403.044 588.46Z" fill="#BEDFDF"/>
<path d="M264.6 468.715C263.384 467.094 261.458 465.979 259.431 465.776C257.505 465.573 255.579 465.877 253.451 466.891C252.944 463.039 253.755 458.985 255.782 455.64C256.39 454.627 256.086 453.41 255.072 452.802C254.16 452.194 252.842 452.498 252.336 453.512C249.498 458.174 248.585 463.85 249.7 469.121C245.443 472.364 242.098 476.824 240.173 481.791C232.875 480.777 223.246 481.993 219.09 486.757C218.381 487.568 218.482 488.886 219.293 489.595C220.104 490.305 221.421 490.203 222.131 489.392C225.172 485.946 232.976 484.933 238.956 485.642C238.551 487.163 238.348 488.784 238.247 490.406C238.044 494.967 239.463 498.413 242.403 499.934C243.315 500.44 244.227 500.643 245.241 500.643C246.457 500.643 247.673 500.339 248.788 499.63C251.221 498.211 252.741 495.575 252.842 493.041C252.944 488.176 249.092 484.527 245.241 483.007C244.937 482.906 244.531 482.703 244.126 482.601C245.646 478.953 247.977 475.709 251.018 473.175C251.93 475.101 253.451 477.027 255.883 478.04C257.91 478.953 260.546 478.851 262.573 477.635C264.296 476.621 265.512 475 265.715 473.277C266.12 471.756 265.614 470.134 264.6 468.715ZM248.889 493.041C248.889 494.258 248.079 495.575 246.862 496.285C246.356 496.589 245.342 496.994 244.43 496.487C242.403 495.373 242.403 491.825 242.504 490.71C242.605 489.291 242.808 487.872 243.112 486.554C243.416 486.656 243.72 486.757 244.024 486.858C246.356 487.872 248.991 490.203 248.889 493.041ZM260.748 474.189C259.836 474.696 258.519 474.797 257.606 474.391C256.086 473.682 255.072 472.263 254.464 470.844C256.086 469.932 257.606 469.628 258.924 469.729C259.836 469.83 260.748 470.439 261.357 471.148C261.661 471.553 261.965 472.06 261.863 472.668C261.762 473.479 261.154 473.885 260.748 474.189Z" fill="#FFF061"/>
<path d="M186.856 269.586C186.196 269.543 185.447 269.577 184.698 269.611C183.208 267.026 181.124 264.65 178.49 263.068C171.557 258.717 161.791 259.655 155.709 265.147C154.741 265.996 154.644 267.483 155.493 268.451C156.343 269.418 157.829 269.516 158.72 268.578C163.306 264.399 170.562 263.794 175.742 267.036C177.417 268.058 178.74 269.388 179.8 270.95C178.259 271.679 176.873 272.584 175.718 273.753C173.057 276.399 171.597 279.705 171.535 283.185C171.639 286.675 173.704 290.626 177.482 291.204C181.667 291.892 184.976 288.21 186.227 284.31C187.191 280.972 187.175 277.404 186.312 274.113C191.356 274.359 196.151 278.405 197.953 283.832C199.535 288.829 198.816 294.754 195.961 300.374C195.39 301.498 195.876 302.94 197 303.511C197.882 303.983 198.971 303.805 199.675 303.188C199.851 303.033 200.115 302.802 200.214 302.559C203.641 295.816 204.446 288.569 202.521 282.471C200.342 275.195 193.882 269.962 186.856 269.586ZM182.074 283.126C181.448 285.076 179.998 286.972 178.599 286.798C177.453 286.557 176.57 284.841 176.59 283.266C176.565 281.108 177.531 279.014 179.302 277.305C179.478 277.15 179.566 277.073 179.742 276.919C180.446 276.301 181.315 275.694 182.173 275.253C182.749 277.862 182.819 280.604 182.074 283.126Z" fill="#00DCC8"/>
<path d="M294.45 542.172C294.002 542.172 293.554 541.993 293.196 541.635C292.48 540.919 292.48 539.844 293.196 539.128C297.584 534.739 303.047 531.336 308.868 529.276C309.764 528.918 310.839 529.455 311.107 530.351C311.466 531.247 310.928 532.321 310.033 532.59C304.659 534.471 299.734 537.605 295.704 541.546C295.345 541.993 294.898 542.172 294.45 542.172Z" fill="#00DCC8"/>
<path d="M245.687 230.231C245.098 230.231 244.361 230.084 243.92 229.642C236.998 224.193 230.224 218.155 224.038 211.675C222.86 210.497 222.86 208.582 224.038 207.552C225.217 206.373 227.131 206.373 228.162 207.552C234.2 213.737 240.68 219.628 247.454 224.929C248.779 225.96 248.927 227.727 247.896 229.053C247.454 229.789 246.57 230.231 245.687 230.231Z" fill="#F19E21"/>
<path d="M293.232 175.296C291.76 175.296 290.434 174.118 290.287 172.645L289.256 163.809C289.109 162.189 290.287 160.716 291.907 160.569C293.527 160.422 295 161.6 295.147 163.22L296.178 172.056C296.325 173.676 295.147 175.149 293.527 175.296C293.527 175.296 293.38 175.296 293.232 175.296Z" fill="#F19E21"/>
<path d="M447.905 86.4538C447.755 86.2003 447.53 85.8202 447.507 85.4917C446.534 79.2222 446.8 72.7328 448.478 66.6054C448.892 64.9914 450.614 64.1429 452.101 64.6317C453.715 65.0454 454.564 66.7679 454.075 68.2552C452.604 73.5756 452.343 79.2063 453.194 84.6921C453.437 86.2595 452.292 87.7933 450.724 88.0366C449.612 88.1815 448.505 87.4677 447.905 86.4538Z" fill="#00DCC8"/>
<path d="M173.762 448.688L158.231 455.066C156.738 455.694 155.002 454.987 154.374 453.494C153.745 452.001 154.453 450.265 155.946 449.637L171.341 443.316C172.834 442.687 174.569 443.395 175.198 444.888C175.962 446.324 175.255 448.06 173.762 448.688Z" fill="#F19E21"/>
<path d="M492.619 431.192C491.146 431.192 489.821 430.014 489.674 428.542C489.526 426.922 490.704 425.449 492.324 425.302C496.742 424.86 501.013 422.651 503.811 419.116C504.842 417.791 506.757 417.644 507.935 418.675C509.26 419.705 509.408 421.62 508.377 422.798C504.548 427.511 498.952 430.603 492.913 431.192C492.766 431.192 492.766 431.192 492.619 431.192Z" fill="#FFF061"/>
<path d="M516.049 140.687L513.84 139.361C513.251 138.919 512.514 138.919 511.778 139.214L509.422 140.245C507.802 140.981 506.035 139.508 506.476 137.741L507.065 135.238C507.213 134.501 507.066 133.765 506.624 133.323L505.004 131.409C503.826 130.083 504.709 127.874 506.476 127.874L508.98 127.727C509.716 127.727 510.305 127.285 510.747 126.696L512.073 124.487C512.956 123.014 515.313 123.162 515.902 124.782L516.785 127.138C517.08 127.874 517.669 128.316 518.258 128.463L520.761 129.052C522.529 129.494 523.118 131.703 521.645 132.881L519.731 134.501C519.142 134.943 518.847 135.679 518.994 136.416L519.289 138.919C519.436 140.392 517.522 141.57 516.049 140.687Z" fill="#00DCC8"/>
<path d="M178.835 161.869C178.687 161.869 178.687 161.869 178.835 161.869C174.564 161.427 171.029 158.04 170.44 153.769C170.44 153.769 170.44 153.769 170.44 153.622C170.146 151.708 167.79 150.971 166.611 152.444C165.139 154.358 164.255 156.715 164.55 159.366C164.991 163.931 168.82 167.613 173.386 167.907C176.037 168.054 178.393 167.171 180.307 165.551C181.485 164.373 180.749 162.016 178.835 161.869Z" fill="#00DCC8"/>
<path d="M690.138 424.727C689.254 424.727 688.37 424.432 687.929 423.696C683.952 418.983 678.209 415.743 672.171 414.86C670.551 414.565 669.373 413.093 669.667 411.473C669.962 409.853 671.435 408.675 673.054 408.969C680.565 410 687.781 413.976 692.494 419.867C693.525 421.192 693.378 422.96 692.052 423.991C691.463 424.432 690.727 424.727 690.138 424.727Z" fill="#00DCC8"/>
</g>
<defs>
<clipPath id="clip0">
<rect width="878.773" height="591.223" fill="white" transform="translate(0.672852 0.777344)"/>
</clipPath>
</defs>
</svg>
