<svg width="24" height="24" viewBox="0 0 24 24" fill="none" xmlns="http://www.w3.org/2000/svg">
<path d="M17.5074 15.8401L13.5474 11.8801C13.4922 11.8248 13.4611 11.7498 13.4611 11.6716C13.4611 11.5935 13.4922 11.5185 13.5474 11.4632L17.5074 7.50319C17.7286 7.28208 17.8528 6.9822 17.8528 6.6695C17.8528 6.35681 17.7286 6.05692 17.5074 5.83582C17.2863 5.61471 16.9865 5.49049 16.6738 5.49049C16.3611 5.49049 16.0612 5.61471 15.8401 5.83581L11.8801 9.79583C11.8248 9.85111 11.7498 9.88216 11.6716 9.88216C11.5935 9.88216 11.5185 9.85111 11.4632 9.79583L7.50319 5.83581C7.28208 5.61471 6.9822 5.49049 6.6695 5.49049C6.35681 5.49049 6.05692 5.61471 5.83582 5.83582C5.61471 6.05692 5.49049 6.35681 5.49049 6.6695C5.49049 6.9822 5.61471 7.28208 5.83582 7.50319L9.79583 11.4632C9.85111 11.5185 9.88216 11.5935 9.88216 11.6716C9.88216 11.7498 9.85111 11.8248 9.79583 11.8801L5.83582 15.8401C5.61471 16.0612 5.49049 16.3611 5.49049 16.6738C5.49049 16.9865 5.61471 17.2863 5.83582 17.5074C6.05692 17.7286 6.35681 17.8528 6.6695 17.8528C6.9822 17.8528 7.28208 17.7286 7.50319 17.5074L11.4632 13.5474C11.5185 13.4922 11.5935 13.4611 11.6716 13.4611C11.7498 13.4611 11.8248 13.4922 11.8801 13.5474L15.8401 17.5074C16.0612 17.7286 16.3611 17.8528 16.6738 17.8528C16.9865 17.8528 17.2863 17.7286 17.5074 17.5074C17.7286 17.2863 17.8528 16.9865 17.8528 16.6738C17.8528 16.3611 17.7286 16.0612 17.5074 15.8401Z" fill="#020203"/>
</svg>
