<svg width="335" height="94" viewBox="0 0 335 94" fill="none" xmlns="http://www.w3.org/2000/svg">
<path d="M109.361 41.0125C108.274 41.0125 107.231 40.5805 106.462 39.8114C105.693 39.0424 105.261 37.9993 105.261 36.9118C105.261 35.8242 105.693 34.7811 106.462 34.0121C107.231 33.2431 108.274 32.811 109.361 32.811C109.91 32.7886 110.457 32.8775 110.97 33.0724C111.483 33.2674 111.951 33.5643 112.346 33.9452C112.741 34.3261 113.055 34.7831 113.268 35.2887C113.482 35.7943 113.591 36.3378 113.588 36.8866C113.587 37.4366 113.476 37.9808 113.262 38.4875C113.048 38.9941 112.735 39.4529 112.341 39.8371C111.948 40.2213 111.481 40.5231 110.97 40.725C110.458 40.9268 109.911 41.0245 109.361 41.0125Z" fill="#9A9A9A"/>
<path d="M300.642 66.3564C295.641 66.3564 291.802 61.6821 291.802 55.7046C291.759 54.0747 292.045 52.4529 292.641 50.9356C293.238 49.4183 294.134 48.0365 295.276 46.8724C296.417 45.7083 297.781 44.7856 299.287 44.1592C300.792 43.5329 302.408 43.2156 304.038 43.2263C305.539 43.2463 307.019 43.577 308.386 44.1974L308.552 44.2728V39.3922C308.552 37.123 308.28 36.972 307.118 36.6953L306.765 36.6097L305.256 36.1669L315.571 32.8159V60.3789C315.571 62.8494 315.898 63.4683 317.402 63.901L318.318 64.1325L318.041 64.7816L308.562 66.3464V61.7022L308.35 61.9689C306.167 64.7262 303.294 66.3564 300.642 66.3564ZM304.365 44.5445C300.974 44.5445 299.334 47.5232 299.334 53.6567C299.334 59.0305 301.321 62.3664 304.516 62.3664C305.557 62.3558 306.555 61.9468 307.304 61.2233C308.052 60.4999 308.495 59.5171 308.542 58.477V48.7358C308.547 45.571 305.729 44.5445 304.365 44.5445Z" fill="#9A9A9A"/>
<path d="M103.313 65.6171L103.424 64.9881L105.029 64.7366C105.332 64.7148 105.615 64.5782 105.821 64.3548C106.027 64.1313 106.14 63.8377 106.136 63.534V50.0343C106.136 47.4833 104.969 46.8392 103.952 46.5625L103.349 46.4116L113.14 43.2266V63.5038C113.131 63.7955 113.228 64.0806 113.413 64.3063C113.598 64.532 113.859 64.683 114.146 64.7315L115.827 64.9932L115.938 65.6221L103.313 65.6171Z" fill="#9A9A9A"/>
<path d="M212.529 77.5968L212.64 76.9678L214.245 76.7162C214.548 76.6945 214.831 76.5579 215.037 76.3344C215.242 76.111 215.355 75.8174 215.352 75.5137V50.235C215.352 48.5193 214.582 47.04 213.52 46.7129L212.514 46.4563L222.361 43.2109V47.8752L222.572 47.6085C224.741 44.8563 227.417 43.2109 230.069 43.2109C235.065 43.226 238.497 48.3683 238.497 54.3408C238.497 62.3058 232.409 66.3461 226.421 66.3461C225.067 66.3856 223.72 66.128 222.476 65.5914L222.31 65.5159V75.4986C222.307 75.8031 222.421 76.0974 222.627 76.321C222.834 76.5446 223.119 76.6806 223.422 76.7011L225.022 76.9527L225.133 77.5817L212.529 77.5968ZM226.341 47.0903C225.298 47.1324 224.308 47.5612 223.564 48.2932C222.82 49.0252 222.375 50.008 222.315 51.0501V61.1536C222.321 62.1628 222.719 63.1304 223.423 63.853C224.128 64.5755 225.085 64.9966 226.094 65.0279C228.394 65.0279 231.337 63.1813 231.337 55.3521C231.322 49.9784 229.536 47.0903 226.341 47.0903Z" fill="#9A9A9A"/>
<path d="M160.84 63.539V51.3224C160.835 50.8113 160.729 50.3062 160.527 49.8366C160.325 49.367 160.032 48.9423 159.664 48.5873C159.297 48.2323 158.862 47.954 158.386 47.7688C157.909 47.5836 157.401 47.4951 156.89 47.5084C155.924 47.5326 155.005 47.9267 154.321 48.6092C153.638 49.2918 153.242 50.2108 153.217 51.1765V63.5139C153.214 63.8001 153.314 64.0778 153.499 64.2965C153.684 64.5153 153.94 64.6607 154.223 64.7064L155.904 64.968L156.014 65.597H143.828L143.938 64.968L145.181 64.7064C145.461 64.6611 145.716 64.5179 145.9 64.3023C146.085 64.0867 146.186 63.8126 146.188 63.529V39.0956C146.189 38.5328 146.02 37.9828 145.704 37.517C145.389 37.0512 144.94 36.6914 144.416 36.4842L143.32 36.0515L153.287 32.8062V47.7399L153.503 47.4128C153.534 47.3726 156.346 43.2266 161.328 43.2266C163.048 43.2678 164.689 43.958 165.921 45.1587C167.074 46.3612 167.768 48.4795 167.768 50.8142L167.818 63.5441C167.816 63.8303 167.916 64.108 168.101 64.3267C168.285 64.5455 168.542 64.6909 168.825 64.7366L170.505 64.9982L170.616 65.6272H158.455L158.565 64.9982L159.808 64.7366C160.088 64.6913 160.343 64.5481 160.527 64.3325C160.711 64.1168 160.813 63.8428 160.814 63.5592" fill="#9A9A9A"/>
<path d="M76.646 34.8941C76.6493 34.5904 76.5366 34.2968 76.3309 34.0734C76.1252 33.8499 75.842 33.7133 75.539 33.6916L73.9339 33.44L73.8232 32.811H87.6702L87.5494 33.44L85.9443 33.6916C85.6414 33.7133 85.3581 33.8499 85.1524 34.0734C84.9467 34.2968 84.834 34.5904 84.8374 34.8941V63.2118C84.8374 64.5452 86.5833 64.344 86.5833 64.344C91.5747 64.344 94.6691 62.4722 98.0151 55.1814L98.5635 53.9839H100.128L98.7296 65.6169H73.8232L73.9339 64.988L75.539 64.7364C75.842 64.7147 76.1252 64.5781 76.3309 64.3546C76.5366 64.1311 76.6493 63.8376 76.646 63.5339V34.8941Z" fill="#9A9A9A"/>
<path d="M182.143 66.3568C180.456 66.3369 178.845 65.6517 177.661 64.4504C176.477 63.249 175.814 61.6285 175.818 59.9415V47.0254H170.877L173.947 44.0065H174.988C175.097 44.0065 175.206 43.9848 175.306 43.9427C175.407 43.9006 175.499 43.8389 175.575 43.7612C175.652 43.6836 175.713 43.5914 175.754 43.4901C175.794 43.3888 175.815 43.2805 175.813 43.1712V40.4894L182.354 38.3208V44.0166H188.634L185.761 47.0355H182.375V59.1566C182.375 62.2611 184.594 63.3881 186.088 63.3881C186.726 63.3819 187.355 63.2287 187.924 62.9403L188.01 62.9051L188.629 63.6246C186.843 65.2196 185.041 66.3568 182.143 66.3568Z" fill="#9A9A9A"/>
<path d="M249.899 52.4796L263.358 52.6859C263.408 52.2683 263.418 50.9349 263.398 50.467C263.247 47.0657 260.883 43.2266 254.699 43.2266C247.71 43.2266 242.437 48.3437 242.437 55.3024C242.437 61.6371 247.021 66.3718 253.104 66.3718C257.984 66.3718 261.411 64.1982 263.313 59.7855L262.81 59.3528C262.201 60.3056 261.357 61.0858 260.36 61.618C259.362 62.1503 258.244 62.4168 257.114 62.3919C252.757 62.3919 249.909 58.8697 249.858 53.3904C249.854 53.0863 249.867 52.7821 249.899 52.4796ZM249.899 50.7991C250.241 46.5575 251.705 44.6304 254.009 44.6304C254.324 44.6238 254.636 44.6821 254.927 44.8015C255.218 44.921 255.481 45.0991 255.7 45.3247C256.656 46.2958 257.119 47.8405 257.074 50.7588V50.8746L249.894 50.9249L249.899 50.7991Z" fill="#9A9A9A"/>
<path d="M274.322 52.4796L287.781 52.6859C287.832 52.2683 287.842 50.9349 287.822 50.467C287.671 47.0657 285.306 43.2266 279.122 43.2266C272.133 43.2266 266.86 48.3437 266.86 55.3024C266.86 61.6371 271.444 66.3718 277.527 66.3718C282.408 66.3718 285.834 64.1982 287.736 59.7855L287.233 59.3528C286.625 60.3157 285.778 61.1046 284.775 61.6425C283.771 62.1805 282.645 62.449 281.507 62.422C277.15 62.422 274.302 58.8999 274.252 53.4205C274.256 53.1058 274.279 52.7915 274.322 52.4796ZM274.322 50.7991C274.664 46.5575 276.128 44.6304 278.433 44.6304C278.747 44.6238 279.059 44.6821 279.35 44.8015C279.641 44.921 279.904 45.0991 280.123 45.3247C281.079 46.2958 281.542 47.8405 281.497 50.7588V50.8746L274.317 50.9249L274.322 50.7991Z" fill="#9A9A9A"/>
<path d="M202.823 51.7953C199.849 50.6532 197.61 49.7827 197.61 47.5839C197.61 45.5713 199.014 44.3989 201.037 44.3989C202.033 44.3997 203.009 44.6748 203.859 45.1939L207.623 50.6582L208.911 50.6079L208.66 43.2266L206.234 44.0165C204.565 43.5026 202.829 43.2365 201.082 43.2266C195.733 43.2266 192.166 46.0493 192.166 50.4569C192.166 54.5174 195.235 56.0571 199.004 57.5012C201.776 58.593 204.358 59.3729 204.358 62.1705C204.358 63.7655 202.848 65.3253 200.393 65.3253C197.817 65.3253 196.478 64.0372 194.798 61.5616L193.419 58.6936L192.096 59.0157L191.628 64.8271C194.398 65.8161 197.315 66.3332 200.257 66.3567C206.893 66.3567 209.917 62.8346 209.917 58.9754C209.907 54.6181 206.239 53.1841 202.823 51.7953Z" fill="#9A9A9A"/>
<path d="M134.112 61.4156H126.237C125.767 61.3808 125.327 61.1727 125.001 60.8315C124.676 60.4902 124.489 60.0403 124.476 59.569C124.467 59.3184 124.508 59.0684 124.597 58.8338C124.686 58.5993 124.82 58.3849 124.994 58.2033C125.167 58.0218 125.374 57.8768 125.604 57.7769C125.834 57.6771 126.082 57.6243 126.333 57.6218C126.44 57.6138 126.548 57.6138 126.655 57.6218C127.404 57.7578 128.163 57.8235 128.924 57.818C134.902 57.818 138.952 54.7035 138.952 50.3109C138.952 49.0027 138.736 48.0517 137.996 47.2215L140.738 44.7057L140.074 42.7686L135.385 44.7007C133.496 43.723 131.398 43.2204 129.272 43.2365C123.445 43.2365 119.49 46.98 119.49 50.9298C119.49 54.3362 121.417 56.218 124.235 57.2042V57.2545C121.322 58.0948 118.655 60.0722 118.655 62.7389C118.655 65.1088 121.025 67.2321 123.943 67.5793C120.979 68.7164 118.066 70.0498 118.066 72.6662C118.066 75.977 121.226 77.6072 127.626 77.6072C135.777 77.6072 141.559 73.0788 141.559 67.7755C141.569 63.8106 138.509 61.4156 134.112 61.4156ZM126.932 46.019C127.149 45.5999 127.478 45.2487 127.882 45.0038C128.286 44.7589 128.749 44.6297 129.221 44.6302C131.078 44.6302 132.24 46.2152 132.24 50.7235C132.24 55.2318 131.37 56.7614 129.221 56.7614C127.405 56.7614 126.358 54.9651 126.358 50.6681C126.353 48.5649 126.469 46.9951 126.932 46.019ZM128.28 75.9065C125.171 75.9065 123.344 74.0751 123.344 71.4083C123.344 69.3957 125.538 67.6397 127.531 67.6397H131.737C135.259 67.8862 136.925 68.646 136.925 71.1618C136.925 73.9644 132.285 75.9065 128.305 75.9065H128.28Z" fill="#9A9A9A"/>
<path d="M49.214 49.2138H32.8111V32.8108L16.4031 16.4028V32.8108V49.2138V65.6218H32.8111H49.214H65.622L49.214 49.2138Z" fill="#9A9A9A"/>
</svg>
