<svg width="85" height="60" fill="none" xmlns="http://www.w3.org/2000/svg"><g fill-rule="evenodd" clip-rule="evenodd"><path d="M54.894 39.504h-6.23V19.77h6.23v19.734zM30.402 26v13.504h-6.23v-17.14a2.594 2.594 0 012.595-2.594H42.33a2.594 2.594 0 012.595 2.595v17.139h-6.23V26h-8.294zm-16.168 7.274V19.77h6.23v17.14a2.594 2.594 0 01-2.594 2.594H2.305A2.594 2.594 0 01-.289 36.91V19.77h6.23v13.504h8.294z" fill="#000"/><path d="M65.289 19.77c0 2.099-1.703 3.802-3.8 3.802a3.803 3.803 0 01-3.801-3.801c0-2.098 1.703-3.8 3.8-3.8 2.098 0 3.801 1.702 3.801 3.8z" fill="#00DCC8"/></g></svg>