<svg xmlns="http://www.w3.org/2000/svg" width="257" height="58" viewBox="0 0 257 58" fill="none">
<path d="M0.314245 46H9.01825V28.528H18.3622C27.4502 28.528 33.2742 23.152 33.2742 14.896C33.2742 6.576 27.4502 1.2 18.3622 1.2H0.314245V46ZM9.01825 21.04V8.688H17.5942C21.9462 8.688 24.5702 10.992 24.5702 14.896C24.5702 18.736 21.9462 21.04 17.5942 21.04H9.01825ZM48.1287 13.232C41.2807 13.232 35.5847 17.328 34.5607 23.728L41.7287 25.008C42.1127 21.552 44.6087 19.376 48.1287 19.376C52.0327 19.376 54.5287 21.616 54.5287 25.264V25.584L48.5127 26.16C38.9127 27.184 34.1127 30.576 34.1127 36.912C34.1127 42.416 38.5287 46.512 44.8647 46.512C48.8327 46.512 52.7367 44.464 54.5287 41.328V46H62.3367V26.352C62.3367 17.776 56.5767 13.232 48.1287 13.232ZM46.6567 40.56C43.7127 40.56 41.9207 38.896 41.9207 36.656C41.9207 34.352 44.0967 32.56 48.3847 32.048L54.5287 31.344V32.048C54.5287 36.784 51.6487 40.56 46.6567 40.56ZM88.6777 13.744L80.6777 34.48L72.9337 13.744H64.1657L76.7097 44.72L71.7177 57.648H79.9097L96.9338 13.744H88.6777ZM122.249 46H130.313V1.2H123.657C120.393 4.4 116.105 6.832 111.945 7.792V15.536C115.913 14.768 119.177 13.232 122.249 10.8V46ZM133.635 46.064H142.019L162.179 1.2H153.731L133.635 46.064ZM179.588 46.512C189.828 46.512 196.612 40.624 196.612 31.728C196.612 23.28 190.788 18.16 182.404 18.48L193.86 8.24V1.2H164.164V8.688H183.684L171.396 19.888L174.788 25.584C176.26 24.56 178.308 24.112 179.844 24.112C184.772 24.112 187.908 26.928 187.908 31.536C187.908 35.952 184.58 38.96 179.652 38.96C174.916 38.96 171.46 36.208 170.82 32.048L162.884 33.328C163.716 41.264 170.372 46.512 179.588 46.512ZM222.333 21.552L222.845 13.744C221.885 13.424 220.477 13.232 219.325 13.232C215.421 13.232 211.197 15.984 209.597 19.632V13.744H201.533V46H209.597V34.16C209.597 24.56 213.693 20.784 218.237 20.784C219.645 20.784 221.181 21.04 222.333 21.552ZM238.76 46.512C242.792 46.512 246.376 44.848 247.976 42.288V46H256.04V0.688H247.976V17.328C246.12 14.896 242.664 13.232 238.632 13.232C229.096 13.232 223.4 20.016 223.4 29.872C223.4 39.728 229.096 46.512 238.76 46.512ZM239.912 39.536C234.792 39.536 231.4 35.696 231.4 29.872C231.4 24.048 234.792 20.208 239.912 20.208C245.096 20.208 248.488 24.048 248.488 29.872C248.488 35.696 245.096 39.536 239.912 39.536Z" fill="url(#paint0_linear)"/>
<defs>
<linearGradient id="paint0_linear" x1="-4" y1="61" x2="260" y2="61" gradientUnits="userSpaceOnUse">
<stop offset="0.588542" stop-color="#8FFFEF"/>
<stop offset="0.786458" stop-color="#C8FF9E"/>
<stop offset="1" stop-color="#FFF38F"/>
</linearGradient>
</defs>
</svg>