<svg width="174" height="72" viewBox="0 0 174 72" fill="none" xmlns="http://www.w3.org/2000/svg">
<path d="M63.7303 46.5084C63.7303 46.5084 62.9764 46.7694 61.2367 46.7694C54.7127 46.7694 56.9164 39.8975 52.973 39.8975H52.0452V46.5954H47V27.1106H54.2778C59.526 27.1106 62.1645 28.8793 62.1645 33.4895C62.1645 36.3891 60.2218 37.8388 59.12 38.4187C60.6858 40.2744 60.5698 42.594 62.8604 42.594H63.7303V46.5084V46.5084ZM53.7559 36.0991C55.7856 36.0991 57.2353 35.2582 57.2353 33.6635C57.2353 32.0398 56.0465 31.1409 54.1038 31.1409H52.0742V36.1281H53.7559V36.0991Z" fill="#1C3184"/>
<path d="M79.9407 37.3169C80.8975 38.0708 81.6804 39.2596 81.6804 40.9993C81.6804 45.1166 78.6359 46.5664 75.0405 46.5664H65.791V27.0816H74.0257C77.998 27.0816 80.3466 28.5603 80.3466 32.3587C80.3466 35.6932 78.259 36.2151 77.2151 36.2151V36.2731C77.882 36.2441 78.9839 36.563 79.9407 37.3169ZM72.8369 34.8233C74.5186 34.8233 75.1565 34.1564 75.1565 32.9386C75.1565 31.7498 74.2866 31.1119 72.4889 31.1119H70.8652V34.8523H72.8369V34.8233ZM73.4458 42.565C75.0985 42.565 75.8524 41.9851 75.8524 40.4484C75.8524 38.9116 74.8085 38.3027 73.3298 38.3027H70.8942V42.565H73.4458Z" fill="#1C3184"/>
<path d="M84.0859 46.5954V27.1106H89.1311V42.565H96.9598V46.5954H84.0859Z" fill="#1C3184"/>
<path d="M101.832 46.5954V27.1106H108.965C112.937 27.1106 115.257 28.6473 115.257 32.2427C115.257 35.7512 113.198 36.3311 112.241 36.3311V36.3891C113.517 36.3891 116.562 37.4619 116.562 41.2023C116.562 45.2326 113.343 46.5954 109.719 46.5954H101.832V46.5954ZM108.733 35.3162C110.937 35.3162 111.661 34.2434 111.661 32.6197C111.661 30.9379 110.589 29.9521 108.182 29.9521H105.34V35.3162H108.733ZM109.081 43.7538C111.082 43.7538 112.792 43.1159 112.792 40.7963C112.792 38.6217 111.169 37.8098 109.052 37.8098H105.34V43.7538H109.081Z" fill="#DF2111"/>
<path d="M130.132 41.5792H122.999L121.288 46.5954H117.635L124.826 27.1106H128.363L135.554 46.5954H131.9L130.132 41.5792ZM123.956 38.8826H129.233L126.594 31.4309L123.956 38.8826Z" fill="#DF2111"/>
<path d="M149.151 46.5954L141.497 33.4605V46.5954H137.988V27.1106H141.671L149.354 40.6224V27.1106H152.834V46.5954H149.151Z" fill="#DF2111"/>
<path d="M173.158 43.9568C170.636 43.9568 170.578 39.7235 168.519 37.6648C168.316 37.4619 167.359 36.3311 165.735 35.8671L173.187 27.1106H168.722L161.27 35.7802V35.7512V27.1106H157.762V36.94V41.9851V46.5664H161.27V41.9851V41.1153L163.445 38.5637H163.677C167.794 38.5637 166.46 46.7114 172.143 46.7114C173.274 46.7114 173.999 46.5374 173.999 46.5374V43.9278H173.158V43.9568Z" fill="#DF2111"/>
<path d="M9.30748 9.13351V0H0V18.296C2.02967 14.3237 5.30613 11.1052 9.30748 9.13351Z" fill="#1C3184"/>
<path d="M9.30748 11.7721C3.74039 14.9906 0 20.9636 0 27.8354V44.9716V48.712H9.30748V46.2764V43.9278V27.8354C9.30748 23.1092 12.8449 19.1949 17.4551 18.644V9.33647C14.4976 9.48145 11.7141 10.3513 9.30748 11.7721Z" fill="#DF2111"/>
<path d="M19.7749 9.30748V18.615C24.3562 19.1949 27.9226 23.0802 27.9226 27.8065C27.9226 32.9386 23.7473 37.0849 18.6151 37.0849C15.8316 37.0849 13.367 35.8381 11.6562 33.8955V45.0296C13.8019 45.8995 16.1505 46.3924 18.6151 46.3924C28.9084 46.3924 37.2301 38.0708 37.2301 27.8355C37.2301 17.9771 29.5173 9.91638 19.7749 9.30748Z" fill="#1C3184"/>
<path d="M89.6515 68.1099C89.6515 68.1099 89.3906 68.1678 88.9556 68.1678C88.2017 68.1678 87.7958 67.7619 87.9698 67.066L87.9988 67.008C87.8538 67.211 87.0999 68.1968 85.5632 68.1968C84.2294 68.1968 83.1276 67.153 83.7365 64.7464C84.3744 62.2238 85.9111 61.238 87.3899 61.238C88.6657 61.238 89.0716 61.9919 89.2166 62.1658L89.4195 61.325H90.7823L89.5355 66.3412C89.4195 66.7471 89.5065 66.9791 89.9415 66.9791L89.6515 68.1099ZM88.6077 63.7896C88.6367 63.5866 88.5497 62.5138 87.3609 62.5138C86.462 62.5138 85.5922 63.2097 85.2152 64.7174C84.8383 66.2252 85.4472 66.8921 86.2881 66.8921C87.6218 66.8921 88.1728 65.5003 88.1728 65.5293L88.6077 63.7896Z" fill="#1C3184"/>
<path d="M91.0449 71.5603L93.1616 63.0647C93.2486 62.6588 93.1906 62.4268 92.7556 62.4268L93.0456 61.296C93.0456 61.296 93.3066 61.238 93.7415 61.238C94.4374 61.238 94.9013 61.6439 94.7273 62.3108L94.6983 62.3978C94.9013 62.1368 95.6262 61.209 97.1049 61.209C98.4677 61.209 99.5985 62.2238 98.9896 64.6594C98.3517 67.211 96.757 68.1969 95.2782 68.1969C93.9155 68.1969 93.6545 67.327 93.6545 67.327L92.5817 71.5603H91.0449ZM94.0894 65.5873C94.0314 65.8192 94.1184 66.8921 95.3072 66.8921C96.2641 66.8921 97.1339 66.1962 97.4819 64.6884C97.8878 63.1227 97.1919 62.5138 96.3801 62.5138C95.1333 62.5138 94.5244 63.8766 94.5244 63.8766L94.0894 65.5873Z" fill="#1C3184"/>
<path d="M106.847 68.1099C106.847 68.1099 106.586 68.1679 106.152 68.1679C105.253 68.1679 104.847 67.6459 105.137 66.5151L105.775 63.9635C105.978 63.0937 105.717 62.5138 104.818 62.5138C103.803 62.5138 103.136 63.4996 102.962 64.2245L101.976 68.1099H100.439L101.686 63.0647C101.773 62.6588 101.715 62.4268 101.28 62.4268L101.57 61.296C101.57 61.296 101.831 61.238 102.266 61.238C102.962 61.238 103.397 61.6729 103.223 62.3108L103.165 62.5138C103.542 61.8469 104.325 61.209 105.572 61.209C107.282 61.209 107.688 62.3978 107.311 63.9056L106.702 66.3122C106.615 66.7181 106.673 66.9501 107.108 66.9501L106.847 68.1099Z" fill="#1C3184"/>
<path d="M109.313 64.6884C109.864 62.5428 111.343 61.209 113.257 61.209C115.199 61.209 116.04 62.5428 115.489 64.6884C114.967 66.8341 113.459 68.1679 111.517 68.1679C109.603 68.1968 108.791 66.8631 109.313 64.6884ZM114.01 64.6884C114.358 63.2677 113.952 62.5138 112.967 62.5138C111.981 62.5138 111.198 63.2677 110.85 64.6884C110.502 66.1092 110.879 66.8631 111.894 66.8631C112.88 66.8921 113.633 66.1382 114.01 64.6884Z" fill="#1C3184"/>
<path d="M127.143 68.0519C127.143 68.0519 126.853 68.1679 126.505 68.1679C124.185 68.1679 125.809 64.9784 123.692 64.9784H122.88L122.098 68.1099H120.59L123.17 57.8455H124.678L123.17 63.8186H124.04C125.171 63.8186 126.215 62.8907 126.621 61.296H128.042C127.723 62.5138 126.969 63.8766 125.519 64.3115C126.708 64.9494 125.838 66.9501 127.259 66.9501H127.404L127.143 68.0519Z" fill="#1C3184"/>
<path d="M135.232 68.1099C135.232 68.1099 134.971 68.1678 134.536 68.1678C133.782 68.1678 133.376 67.7619 133.55 67.066L133.579 67.008C133.434 67.211 132.68 68.1968 131.143 68.1968C129.809 68.1968 128.708 67.153 129.317 64.7464C129.954 62.2238 131.491 61.238 132.97 61.238C134.246 61.238 134.652 61.9919 134.797 62.1658L135 61.325H136.362L135.116 66.3412C135 66.7471 135.087 66.9791 135.522 66.9791L135.232 68.1099ZM134.188 63.7896C134.217 63.5866 134.13 62.5138 132.941 62.5138C132.042 62.5138 131.172 63.2097 130.795 64.7174C130.418 66.2252 131.027 66.8921 131.868 66.8921C133.202 66.8921 133.753 65.5003 133.753 65.5293L134.188 63.7896Z" fill="#1C3184"/>
<path d="M141.09 68.1099L143.67 57.8455H145.207L144.105 62.2238C144.134 62.1948 144.859 61.209 146.309 61.209C147.672 61.209 148.803 62.2238 148.194 64.6594C147.556 67.211 145.961 68.1968 144.482 68.1968C143.178 68.1968 142.801 67.356 142.685 67.211L142.453 68.1099H141.09V68.1099ZM143.264 65.5293C143.206 65.7613 143.264 66.8631 144.482 66.8631C145.41 66.8631 146.28 66.1672 146.657 64.6594C147.063 63.0937 146.367 62.4848 145.555 62.4848C144.308 62.4848 143.67 63.8476 143.67 63.8476L143.264 65.5293Z" fill="#1C3184"/>
<path d="M155.878 68.1099C155.878 68.1099 155.617 68.1678 155.182 68.1678C154.428 68.1678 154.022 67.7619 154.196 67.066L154.225 67.008C154.08 67.211 153.326 68.1968 151.79 68.1968C150.456 68.1968 149.354 67.153 149.963 64.7464C150.601 62.2238 152.138 61.238 153.616 61.238C154.892 61.238 155.298 61.9919 155.443 62.1658L155.646 61.325H157.009L155.762 66.3412C155.646 66.7471 155.733 66.9791 156.168 66.9791L155.878 68.1099ZM154.863 63.7896C154.892 63.5866 154.805 62.5138 153.616 62.5138C152.718 62.5138 151.848 63.2097 151.471 64.7174C151.094 66.2252 151.703 66.8921 152.544 66.8921C153.877 66.8921 154.428 65.5003 154.428 65.5293L154.863 63.7896Z" fill="#1C3184"/>
<path d="M164.547 68.1099C164.547 68.1099 164.286 68.1679 163.851 68.1679C162.952 68.1679 162.546 67.6459 162.836 66.5151L163.474 63.9635C163.677 63.0937 163.416 62.5138 162.517 62.5138C161.502 62.5138 160.835 63.4996 160.661 64.2245L159.675 68.1099H158.139L159.385 63.0647C159.472 62.6588 159.414 62.4268 158.98 62.4268L159.269 61.296C159.269 61.296 159.53 61.238 159.965 61.238C160.661 61.238 161.096 61.6729 160.922 62.3108L160.864 62.5138C161.241 61.8469 162.024 61.209 163.271 61.209C164.982 61.209 165.387 62.3978 165.011 63.9056L164.402 66.3122C164.315 66.7181 164.373 66.9501 164.808 66.9501L164.547 68.1099Z" fill="#1C3184"/>
<path d="M173.043 68.0519C173.043 68.0519 172.753 68.1679 172.405 68.1679C170.086 68.1679 171.709 64.9784 169.593 64.9784H168.781L167.998 68.1099H166.49L169.071 57.8455H170.579L169.071 63.8186H169.941C171.071 63.8186 172.115 62.8907 172.521 61.296H173.942C173.623 62.5138 172.869 63.8766 171.419 64.3115C172.608 64.9494 171.738 66.9501 173.159 66.9501H173.304L173.043 68.0519Z" fill="#1C3184"/>
</svg>
