<svg width="290" height="266" viewBox="0 0 290 266" fill="none" xmlns="http://www.w3.org/2000/svg">
<path d="M120.693 56.6792C121.486 56.6792 122.112 56.053 122.112 55.2599V56.6792H120.693Z" fill="black"/>
<path d="M128.792 55.2598V51.4193C128.792 50.647 128.165 50 127.372 50H123.532C122.739 50 122.112 50.6262 122.112 51.4193V56.6792H128.792V55.2598Z" fill="black"/>
<path d="M154.089 56.6792C154.882 56.6792 155.508 56.053 155.508 55.2599V56.6792H154.089Z" fill="black"/>
<path d="M162.187 55.2598V51.4193C162.187 50.647 161.561 50 160.768 50H156.928C156.134 50 155.508 50.6262 155.508 51.4193V56.6792H162.187V55.2598Z" fill="black"/>
<path d="M170.286 50H174.126C174.92 50 175.546 50.6262 175.546 51.4193V55.2598C175.546 56.053 174.92 56.6792 174.126 56.6792H170.286C169.493 56.6792 168.867 56.053 168.867 55.2598V51.4193C168.867 50.647 169.514 50 170.286 50Z" fill="black"/>
<path d="M120.693 56.6791H116.853C116.059 56.6791 115.433 57.3052 115.433 58.0984V61.9389C115.433 62.7321 116.059 63.3582 116.853 63.3582H122.112V56.6791H120.693Z" fill="black"/>
<path d="M128.792 56.6791H122.112V63.3582H128.792V56.6791Z" fill="black"/>
<path d="M134.052 63.3583C134.845 63.3583 135.471 62.7321 135.471 61.939V63.3583H134.052Z" fill="black"/>
<path d="M130.211 63.3583C129.439 63.3583 128.792 62.7321 128.792 61.939V63.3583H130.211Z" fill="black"/>
<path d="M136.89 56.6791C136.097 56.6791 135.471 57.3052 135.471 58.0984V63.3582H142.15V56.6791H136.89Z" fill="black"/>
<path d="M148.829 56.6791H142.15V63.3582H148.829V56.6791Z" fill="black"/>
<path d="M155.508 56.6791H148.829V63.3582H155.508V56.6791Z" fill="black"/>
<path d="M162.187 61.9389C162.187 62.7321 161.561 63.3582 160.768 63.3582H155.508V56.6791H162.187V61.9389Z" fill="black"/>
<path d="M122.112 64.7777V63.3584H120.693C121.486 63.3584 122.112 64.0054 122.112 64.7777Z" fill="black"/>
<path d="M120.693 70.0375C121.486 70.0375 122.112 69.4113 122.112 68.6182V70.0375H120.693Z" fill="black"/>
<path d="M128.792 63.3584H122.112V70.0376H128.792V63.3584Z" fill="black"/>
<path d="M135.471 63.3584H128.792V70.0376H135.471V63.3584Z" fill="black"/>
<path d="M142.15 63.3584H135.471V70.0376H142.15V63.3584Z" fill="black"/>
<path d="M143.569 63.3584H142.15V64.7777C142.15 64.0054 142.797 63.3584 143.569 63.3584Z" fill="black"/>
<path d="M120.693 70.0375H116.853C116.059 70.0375 115.433 70.6636 115.433 71.4568V75.2973C115.433 76.0905 116.059 76.7166 116.853 76.7166H122.112V70.0375H120.693Z" fill="black"/>
<path d="M128.792 75.2973C128.792 76.0905 128.165 76.7166 127.372 76.7166H122.112V70.0375H128.792V75.2973Z" fill="black"/>
<path d="M130.211 70.0375H128.792V71.4568C128.792 70.6845 129.439 70.0375 130.211 70.0375Z" fill="black"/>
<path d="M135.471 71.4568V70.0375H134.052C134.845 70.0375 135.471 70.6845 135.471 71.4568Z" fill="black"/>
<path d="M135.471 75.2973C135.471 76.0905 136.097 76.7166 136.89 76.7166H140.731C141.524 76.7166 142.15 76.0905 142.15 75.2973V70.0375H135.471V75.2973Z" fill="black"/>
<path d="M150.248 70.0375H154.089C154.882 70.0375 155.508 70.6636 155.508 71.4568V75.2973C155.508 76.0905 154.882 76.7166 154.089 76.7166H150.248C149.455 76.7166 148.829 76.0905 148.829 75.2973V71.4568C148.829 70.6845 149.476 70.0375 150.248 70.0375Z" fill="black"/>
<path d="M163.607 70.0375C162.814 70.0375 162.188 70.6636 162.188 71.4568V76.7166H168.867V70.0375H163.607Z" fill="black"/>
<path d="M174.126 70.0375C174.92 70.0375 175.546 70.6636 175.546 71.4568V76.7166H168.867V70.0375H174.126Z" fill="black"/>
<path d="M135.471 81.9765V78.136C135.471 77.3428 134.845 76.7167 134.051 76.7167H130.211C129.418 76.7167 128.792 77.3428 128.792 78.136V83.3958H135.471V81.9765Z" fill="black"/>
<path d="M143.569 76.7167H147.41C148.203 76.7167 148.829 77.3428 148.829 78.136V81.9765C148.829 82.7697 148.203 83.3958 147.41 83.3958H143.569C142.776 83.3958 142.15 82.7697 142.15 81.9765V78.136C142.15 77.3637 142.797 76.7167 143.569 76.7167Z" fill="black"/>
<path d="M160.768 83.3958C161.561 83.3958 162.188 82.7696 162.188 81.9764V83.3958H160.768Z" fill="black"/>
<path d="M168.867 76.7167H162.188V83.3958H168.867V76.7167Z" fill="black"/>
<path d="M175.546 81.9765C175.546 82.7697 174.92 83.3958 174.126 83.3958H168.867V76.7167H175.546V81.9765V81.9765Z" fill="black"/>
<path d="M122.112 88.6557V84.8152C122.112 84.022 121.486 83.3959 120.693 83.3959H116.853C116.059 83.3959 115.433 84.022 115.433 84.8152V90.0751H122.112V88.6557Z" fill="black"/>
<path d="M135.471 83.3959H128.792V90.0751H135.471V83.3959Z" fill="black"/>
<path d="M154.089 83.3959H150.248C149.455 83.3959 148.829 84.022 148.829 84.8152V88.6557C148.829 89.4489 149.455 90.0751 150.248 90.0751H155.508V83.3959H154.089Z" fill="black"/>
<path d="M162.187 83.3959H155.508V90.0751H162.187V83.3959Z" fill="black"/>
<path d="M168.867 88.6557C168.867 89.4489 168.24 90.0751 167.447 90.0751H162.188V83.3959H168.867V88.6557Z" fill="black"/>
<path d="M170.286 83.3959H168.867V84.8152C168.867 84.0429 169.514 83.3959 170.286 83.3959Z" fill="black"/>
<path d="M115.433 95.3348C115.433 96.1279 116.059 96.7541 116.853 96.7541H120.693C121.486 96.7541 122.112 96.1279 122.112 95.3348V90.075H115.433V95.3348Z" fill="black"/>
<path d="M128.792 95.3348C128.792 96.1279 129.418 96.7541 130.211 96.7541H134.051C134.845 96.7541 135.471 96.1279 135.471 95.3348V90.075H128.792V95.3348Z" fill="black"/>
<path d="M148.829 95.3348V91.4943C148.829 90.7011 148.203 90.075 147.41 90.075H143.569C142.776 90.075 142.15 90.7011 142.15 91.4943V96.7541H148.829V95.3348Z" fill="black"/>
<path d="M155.508 91.4943V90.075H154.089C154.882 90.075 155.508 90.722 155.508 91.4943Z" fill="black"/>
<path d="M155.508 95.3348C155.508 96.1279 156.134 96.7541 156.928 96.7541H160.768C161.561 96.7541 162.187 96.1279 162.187 95.3348V90.075H155.508V95.3348Z" fill="black"/>
<path d="M163.607 90.075H162.188V91.4943C162.188 90.722 162.835 90.075 163.607 90.075Z" fill="black"/>
<path d="M175.546 95.3348V91.4943C175.546 90.7011 174.92 90.075 174.126 90.075H170.286C169.493 90.075 168.867 90.7011 168.867 91.4943V96.7541H175.546V95.3348Z" fill="black"/>
<path d="M148.829 96.7542H142.15V103.433H148.829V96.7542Z" fill="black"/>
<path d="M150.248 103.433C149.455 103.433 148.829 102.807 148.829 102.014V103.433H150.248Z" fill="black"/>
<path d="M168.867 102.014C168.867 102.807 169.493 103.433 170.286 103.433H174.126C174.92 103.433 175.546 102.807 175.546 102.014V96.7542H168.867V102.014Z" fill="black"/>
<path d="M67.2598 103.433H63.4193C62.647 103.433 62 104.08 62 104.853V108.693C62 109.486 62.6262 110.113 63.4193 110.113H68.6792V103.433H67.2598Z" fill="black"/>
<path d="M75.3584 103.433H68.6792V110.113H75.3584V103.433Z" fill="black"/>
<path d="M82.0375 103.433H75.3583V110.113H82.0375V103.433Z" fill="black"/>
<path d="M88.7166 103.433H82.0375V110.113H88.7166V103.433Z" fill="black"/>
<path d="M90.136 110.113H93.9765C94.7697 110.113 95.3958 109.486 95.3958 108.693V104.853C95.3958 104.06 94.7697 103.433 93.9765 103.433H88.7167V110.113H90.136Z" fill="black"/>
<path d="M107.335 103.433H103.494C102.701 103.433 102.075 104.06 102.075 104.853V108.693C102.075 109.486 102.701 110.113 103.494 110.113H108.754V103.433H107.335Z" fill="black"/>
<path d="M115.433 103.433H108.754V110.113H115.433V103.433Z" fill="black"/>
<path d="M122.112 103.433H115.433V110.113H122.112V103.433Z" fill="black"/>
<path d="M128.792 103.433H122.112V110.113H128.792V103.433Z" fill="black"/>
<path d="M130.211 110.113H134.051C134.845 110.113 135.471 109.486 135.471 108.693V104.853C135.471 104.06 134.845 103.433 134.051 103.433H128.792V110.113H130.211Z" fill="black"/>
<path d="M142.15 108.693C142.15 109.486 142.776 110.113 143.569 110.113H148.829V103.433H142.15V108.693Z" fill="black"/>
<path d="M150.248 110.113H154.089C154.882 110.113 155.508 109.486 155.508 108.693V104.853C155.508 104.06 154.882 103.433 154.089 103.433H148.829V110.113H150.248Z" fill="black"/>
<path d="M160.768 110.112C161.561 110.112 162.188 109.486 162.188 108.693V110.112H160.768Z" fill="black"/>
<path d="M168.867 108.693V104.853C168.867 104.06 168.24 103.433 167.447 103.433H163.607C162.814 103.433 162.188 104.06 162.188 104.853V110.113H168.867V108.693Z" fill="black"/>
<path d="M174.126 110.112C174.92 110.112 175.546 109.486 175.546 108.693V110.112H174.126Z" fill="black"/>
<path d="M170.286 110.112C169.493 110.112 168.867 109.486 168.867 108.693V110.112H170.286Z" fill="black"/>
<path d="M182.225 108.693V104.853C182.225 104.06 181.599 103.433 180.806 103.433H176.965C176.172 103.433 175.546 104.06 175.546 104.853V110.113H182.225V108.693Z" fill="black"/>
<path d="M195.583 108.693V104.853C195.583 104.06 194.957 103.433 194.164 103.433H190.323C189.53 103.433 188.904 104.06 188.904 104.853V110.113H195.583V108.693Z" fill="black"/>
<path d="M197.003 110.112C196.209 110.112 195.583 109.486 195.583 108.693V110.112H197.003Z" fill="black"/>
<path d="M203.682 103.433H207.522C208.315 103.433 208.942 104.06 208.942 104.853V108.693C208.942 109.486 208.315 110.113 207.522 110.113H203.682C202.889 110.113 202.262 109.486 202.262 108.693V104.853C202.262 104.08 202.909 103.433 203.682 103.433Z" fill="black"/>
<path d="M217.04 103.433H220.881C221.674 103.433 222.3 104.06 222.3 104.853V108.693C222.3 109.486 221.674 110.113 220.881 110.113H217.04C216.247 110.113 215.621 109.486 215.621 108.693V104.853C215.621 104.08 216.268 103.433 217.04 103.433Z" fill="black"/>
<path d="M68.6791 111.532V110.113H67.2598C68.053 110.113 68.6791 110.76 68.6791 111.532Z" fill="black"/>
<path d="M68.6792 115.372C68.6792 116.166 69.3262 116.792 70.0985 116.792H73.939C74.7322 116.792 75.3584 116.166 75.3584 115.372V110.113H68.6792V115.372Z" fill="black"/>
<path d="M76.7777 110.113H75.3583V111.532C75.3583 110.76 76.0054 110.113 76.7777 110.113Z" fill="black"/>
<path d="M96.8151 110.113H100.656C101.449 110.113 102.075 110.739 102.075 111.532V115.372C102.075 116.166 101.449 116.792 100.656 116.792H96.8151C96.0429 116.792 95.3958 116.166 95.3958 115.372V111.532C95.3958 110.76 96.0429 110.113 96.8151 110.113Z" fill="black"/>
<path d="M122.112 111.532V110.113H120.693C121.486 110.113 122.112 110.76 122.112 111.532Z" fill="black"/>
<path d="M120.693 116.792C121.486 116.792 122.112 116.165 122.112 115.372V116.792H120.693Z" fill="black"/>
<path d="M128.792 110.113H122.112V116.792H128.792V110.113Z" fill="black"/>
<path d="M130.211 110.113H128.792V111.532C128.792 110.76 129.439 110.113 130.211 110.113Z" fill="black"/>
<path d="M156.928 110.113C156.134 110.113 155.508 110.739 155.508 111.532V116.792H162.187V110.113H156.928Z" fill="black"/>
<path d="M168.867 110.113H162.188V116.792H168.867V110.113Z" fill="black"/>
<path d="M175.546 110.113H168.867V116.792H175.546V110.113Z" fill="black"/>
<path d="M182.225 110.113H175.546V116.792H182.225V110.113Z" fill="black"/>
<path d="M183.644 116.792C182.851 116.792 182.225 116.165 182.225 115.372V116.792H183.644Z" fill="black"/>
<path d="M188.904 115.372C188.904 116.166 189.53 116.792 190.323 116.792H195.583V110.113H188.904V115.372Z" fill="black"/>
<path d="M200.843 110.113C201.636 110.113 202.262 110.739 202.262 111.532V116.792H195.583V110.113H200.843Z" fill="black"/>
<path d="M223.719 110.113H227.56C228.353 110.113 228.979 110.739 228.979 111.532V115.372C228.979 116.166 228.353 116.792 227.56 116.792H223.719C222.926 116.792 222.3 116.166 222.3 115.372V111.532C222.3 110.76 222.947 110.113 223.719 110.113Z" fill="black"/>
<path d="M68.6792 122.051V118.211C68.6792 117.439 68.053 116.792 67.2598 116.792H63.4193C62.647 116.792 62 117.439 62 118.211V123.471H68.6792V122.051Z" fill="black"/>
<path d="M107.335 116.792H103.494C102.701 116.792 102.075 117.418 102.075 118.211V122.051C102.075 122.845 102.701 123.471 103.494 123.471H108.754V116.792H107.335Z" fill="black"/>
<path d="M115.433 116.792H108.754V123.471H115.433V116.792Z" fill="black"/>
<path d="M122.112 116.792H115.433V123.471H122.112V116.792Z" fill="black"/>
<path d="M128.792 116.792H122.112V123.471H128.792V116.792Z" fill="black"/>
<path d="M134.052 123.471C134.845 123.471 135.471 122.845 135.471 122.052V123.471H134.052Z" fill="black"/>
<path d="M130.211 123.471C129.418 123.471 128.792 122.845 128.792 122.052V123.471H130.211Z" fill="black"/>
<path d="M136.89 116.792C136.097 116.792 135.471 117.418 135.471 118.211V123.471H142.15V116.792H136.89Z" fill="black"/>
<path d="M143.569 123.471H147.41C148.203 123.471 148.829 122.845 148.829 122.051V118.211C148.829 117.418 148.203 116.792 147.41 116.792H142.15V123.471H143.569Z" fill="black"/>
<path d="M155.508 122.051C155.508 122.845 156.134 123.471 156.928 123.471H162.187V116.792H155.508V122.051Z" fill="black"/>
<path d="M168.867 122.051C168.867 122.845 168.24 123.471 167.447 123.471H162.188V116.792H168.867V122.051Z" fill="black"/>
<path d="M170.286 116.792H168.867V118.211C168.867 117.439 169.514 116.792 170.286 116.792Z" fill="black"/>
<path d="M175.546 118.211V116.792H174.126C174.92 116.792 175.546 117.439 175.546 118.211Z" fill="black"/>
<path d="M174.126 123.471C174.92 123.471 175.546 122.845 175.546 122.052V123.471H174.126Z" fill="black"/>
<path d="M182.225 116.792H175.546V123.471H182.225V116.792Z" fill="black"/>
<path d="M183.644 123.471H187.485C188.278 123.471 188.904 122.845 188.904 122.051V118.211C188.904 117.418 188.278 116.792 187.485 116.792H182.225V123.471H183.644Z" fill="black"/>
<path d="M195.583 118.211V116.792H194.164C194.957 116.792 195.583 117.439 195.583 118.211Z" fill="black"/>
<path d="M195.583 122.051C195.583 122.845 196.209 123.471 197.003 123.471H200.843C201.636 123.471 202.262 122.845 202.262 122.051V116.792H195.583V122.051Z" fill="black"/>
<path d="M210.361 116.792H214.201C214.995 116.792 215.621 117.418 215.621 118.211V122.051C215.621 122.845 214.995 123.471 214.201 123.471H210.361C209.568 123.471 208.942 122.845 208.942 122.051V118.211C208.942 117.439 209.589 116.792 210.361 116.792Z" fill="black"/>
<path d="M68.6792 123.471H62V130.15H68.6792V123.471Z" fill="black"/>
<path d="M80.6182 123.471H76.7777C75.9845 123.471 75.3583 124.097 75.3583 124.89V128.731C75.3583 129.524 75.9845 130.15 76.7777 130.15H82.0375V123.471H80.6182Z" fill="black"/>
<path d="M87.2973 123.471C88.0905 123.471 88.7166 124.097 88.7166 124.89V130.15H82.0375V123.471H87.2973Z" fill="black"/>
<path d="M96.8151 123.471H100.656C101.449 123.471 102.075 124.097 102.075 124.89V128.731C102.075 129.524 101.449 130.15 100.656 130.15H96.8151C96.022 130.15 95.3958 129.524 95.3958 128.731V124.89C95.3958 124.118 96.0429 123.471 96.8151 123.471Z" fill="black"/>
<path d="M108.754 124.89V123.471H107.335C108.128 123.471 108.754 124.118 108.754 124.89Z" fill="black"/>
<path d="M108.754 128.731C108.754 129.524 109.38 130.15 110.173 130.15H115.433V123.471H108.754V128.731Z" fill="black"/>
<path d="M122.112 123.471H115.433V130.15H122.112V123.471Z" fill="black"/>
<path d="M128.792 123.471H122.112V130.15H128.792V123.471Z" fill="black"/>
<path d="M135.471 123.471H128.792V130.15H135.471V123.471Z" fill="black"/>
<path d="M142.15 123.471H135.471V130.15H142.15V123.471Z" fill="black"/>
<path d="M143.569 123.471H142.15V124.89C142.15 124.118 142.797 123.471 143.569 123.471Z" fill="black"/>
<path d="M174.126 123.471H170.286C169.493 123.471 168.867 124.097 168.867 124.89V128.731C168.867 129.524 169.493 130.15 170.286 130.15H175.546V123.471H174.126Z" fill="black"/>
<path d="M182.225 128.731C182.225 129.524 181.599 130.15 180.806 130.15H175.546V123.471H182.225V128.731Z" fill="black"/>
<path d="M183.644 123.471H182.225V124.89C182.225 124.118 182.872 123.471 183.644 123.471Z" fill="black"/>
<path d="M68.6792 130.15H62V136.829H68.6792V130.15Z" fill="black"/>
<path d="M70.0985 136.829C69.3054 136.829 68.6792 136.203 68.6792 135.41V136.829H70.0985Z" fill="black"/>
<path d="M82.0375 131.569V130.15H80.6182C81.4113 130.15 82.0375 130.797 82.0375 131.569Z" fill="black"/>
<path d="M82.0375 135.41C82.0375 136.203 82.6636 136.829 83.4568 136.829H87.2973C88.0905 136.829 88.7166 136.203 88.7166 135.41V130.15H82.0375V135.41Z" fill="black"/>
<path d="M103.494 130.15H107.335C108.128 130.15 108.754 130.776 108.754 131.569V135.41C108.754 136.203 108.128 136.829 107.335 136.829H103.494C102.701 136.829 102.075 136.203 102.075 135.41V131.569C102.075 130.797 102.722 130.15 103.494 130.15Z" fill="black"/>
<path d="M115.433 131.569V130.15H114.014C114.807 130.15 115.433 130.797 115.433 131.569Z" fill="black"/>
<path d="M115.433 135.41C115.433 136.203 116.059 136.829 116.853 136.829H122.112V130.15H115.433V135.41Z" fill="black"/>
<path d="M128.792 135.41C128.792 136.203 128.165 136.829 127.372 136.829H122.112V130.15H128.792V135.41Z" fill="black"/>
<path d="M130.211 130.15H128.792V131.569C128.792 130.797 129.439 130.15 130.211 130.15Z" fill="black"/>
<path d="M135.471 131.569V130.15H134.052C134.845 130.15 135.471 130.797 135.471 131.569Z" fill="black"/>
<path d="M135.471 135.41C135.471 136.203 136.097 136.829 136.89 136.829H140.731C141.524 136.829 142.15 136.203 142.15 135.41V130.15H135.471V135.41Z" fill="black"/>
<path d="M150.248 130.15H154.089C154.882 130.15 155.508 130.776 155.508 131.569V135.41C155.508 136.203 154.882 136.829 154.089 136.829H150.248C149.455 136.829 148.829 136.203 148.829 135.41V131.569C148.829 130.797 149.476 130.15 150.248 130.15Z" fill="black"/>
<path d="M163.607 130.15H167.447C168.24 130.15 168.867 130.776 168.867 131.569V135.41C168.867 136.203 168.24 136.829 167.447 136.829H163.607C162.814 136.829 162.188 136.203 162.188 135.41V131.569C162.188 130.797 162.835 130.15 163.607 130.15Z" fill="black"/>
<path d="M180.806 136.829C181.599 136.829 182.225 136.203 182.225 135.41V136.829H180.806Z" fill="black"/>
<path d="M183.644 130.15C182.851 130.15 182.225 130.776 182.225 131.569V136.829H188.904V130.15H183.644Z" fill="black"/>
<path d="M195.583 130.15H188.904V136.829H195.583V130.15Z" fill="black"/>
<path d="M202.262 130.15H195.583V136.829H202.262V130.15Z" fill="black"/>
<path d="M203.682 136.829H207.522C208.315 136.829 208.942 136.203 208.942 135.41V131.569C208.942 130.776 208.315 130.15 207.522 130.15H202.262V136.829H203.682Z" fill="black"/>
<path d="M220.881 130.15H217.04C216.247 130.15 215.621 130.776 215.621 131.569V135.41C215.621 136.203 216.247 136.829 217.04 136.829H222.3V130.15H220.881Z" fill="black"/>
<path d="M223.719 136.829H227.56C228.353 136.829 228.979 136.203 228.979 135.41V131.569C228.979 130.776 228.353 130.15 227.56 130.15H222.3V136.829H223.719Z" fill="black"/>
<path d="M68.6792 136.829H62V143.508H68.6792V136.829Z" fill="black"/>
<path d="M70.0985 143.508H73.939C74.7322 143.508 75.3584 142.882 75.3584 142.089V138.248C75.3584 137.455 74.7322 136.829 73.939 136.829H68.6792V143.508H70.0985Z" fill="black"/>
<path d="M96.8151 136.829H100.656C101.449 136.829 102.075 137.455 102.075 138.248V142.089C102.075 142.882 101.449 143.508 100.656 143.508H96.8151C96.022 143.508 95.3958 142.882 95.3958 142.089V138.248C95.3958 137.476 96.0429 136.829 96.8151 136.829Z" fill="black"/>
<path d="M110.173 136.829H114.014C114.807 136.829 115.433 137.455 115.433 138.248V142.089C115.433 142.882 114.807 143.508 114.014 143.508H110.173C109.38 143.508 108.754 142.882 108.754 142.089V138.248C108.754 137.476 109.401 136.829 110.173 136.829Z" fill="black"/>
<path d="M130.211 136.829H134.051C134.845 136.829 135.471 137.455 135.471 138.248V142.089C135.471 142.882 134.845 143.508 134.051 143.508H130.211C129.418 143.508 128.792 142.882 128.792 142.089V138.248C128.792 137.476 129.439 136.829 130.211 136.829Z" fill="black"/>
<path d="M143.569 136.829H147.41C148.203 136.829 148.829 137.455 148.829 138.248V142.089C148.829 142.882 148.203 143.508 147.41 143.508H143.569C142.776 143.508 142.15 142.882 142.15 142.089V138.248C142.15 137.476 142.797 136.829 143.569 136.829Z" fill="black"/>
<path d="M174.126 136.829H170.286C169.493 136.829 168.867 137.455 168.867 138.248V142.089C168.867 142.882 169.493 143.508 170.286 143.508H175.546V136.829H174.126Z" fill="black"/>
<path d="M182.225 136.829H175.546V143.508H182.225V136.829Z" fill="black"/>
<path d="M188.904 136.829H182.225V143.508H188.904V136.829Z" fill="black"/>
<path d="M195.583 136.829H188.904V143.508H195.583V136.829Z" fill="black"/>
<path d="M202.262 136.829H195.583V143.508H202.262V136.829Z" fill="black"/>
<path d="M203.682 136.829H202.262V138.248C202.262 137.476 202.909 136.829 203.682 136.829Z" fill="black"/>
<path d="M68.6792 143.508H62V150.187H68.6792V143.508Z" fill="black"/>
<path d="M70.0985 143.508H68.6792V144.928C68.6792 144.155 69.3262 143.508 70.0985 143.508Z" fill="black"/>
<path d="M82.0375 148.768V144.928C82.0375 144.134 81.4113 143.508 80.6182 143.508H76.7777C75.9845 143.508 75.3583 144.134 75.3583 144.928V150.187H82.0375V148.768V148.768Z" fill="black"/>
<path d="M83.4568 150.187C82.6636 150.187 82.0375 149.561 82.0375 148.768V150.187H83.4568Z" fill="black"/>
<path d="M90.136 143.508H93.9765C94.7697 143.508 95.3958 144.134 95.3958 144.928V148.768C95.3958 149.561 94.7697 150.187 93.9765 150.187H90.136C89.3428 150.187 88.7167 149.561 88.7167 148.768V144.928C88.7167 144.155 89.3637 143.508 90.136 143.508Z" fill="black"/>
<path d="M103.494 143.508H107.335C108.128 143.508 108.754 144.134 108.754 144.928V148.768C108.754 149.561 108.128 150.187 107.335 150.187H103.494C102.701 150.187 102.075 149.561 102.075 148.768V144.928C102.075 144.155 102.722 143.508 103.494 143.508Z" fill="black"/>
<path d="M162.187 148.768V144.928C162.187 144.134 161.561 143.508 160.768 143.508H156.928C156.134 143.508 155.508 144.134 155.508 144.928V150.187H162.187V148.768Z" fill="black"/>
<path d="M175.546 144.928V143.508H174.126C174.92 143.508 175.546 144.155 175.546 144.928Z" fill="black"/>
<path d="M182.225 143.508H175.546V150.187H182.225V143.508Z" fill="black"/>
<path d="M188.904 148.768C188.904 149.561 188.278 150.187 187.485 150.187H182.225V143.508H188.904V148.768V148.768Z" fill="black"/>
<path d="M190.323 143.508H188.904V144.928C188.904 144.155 189.551 143.508 190.323 143.508Z" fill="black"/>
<path d="M195.583 144.928V143.508H194.164C194.957 143.508 195.583 144.155 195.583 144.928Z" fill="black"/>
<path d="M195.583 148.768C195.583 149.561 196.209 150.187 197.003 150.187H200.843C201.636 150.187 202.262 149.561 202.262 148.768V143.508H195.583V148.768Z" fill="black"/>
<path d="M214.201 143.508H210.361C209.568 143.508 208.942 144.134 208.942 144.928V148.768C208.942 149.561 209.568 150.187 210.361 150.187H215.621V143.508H214.201Z" fill="black"/>
<path d="M222.3 143.508H215.621V150.187H222.3V143.508Z" fill="black"/>
<path d="M227.56 143.508C228.353 143.508 228.979 144.134 228.979 144.928V150.187H222.3V143.508H227.56Z" fill="black"/>
<path d="M68.6792 150.188H62V156.867H68.6792V150.188Z" fill="black"/>
<path d="M82.0375 150.188H75.3583V156.867H82.0375V150.188Z" fill="black"/>
<path d="M83.4568 156.867H87.2973C88.0905 156.867 88.7166 156.24 88.7166 155.447V151.607C88.7166 150.814 88.0905 150.188 87.2973 150.188H82.0375V156.867H83.4568Z" fill="black"/>
<path d="M93.9765 156.867C94.7697 156.867 95.3958 156.24 95.3958 155.447V156.867H93.9765Z" fill="black"/>
<path d="M102.075 155.447V151.607C102.075 150.814 101.449 150.188 100.656 150.188H96.8151C96.022 150.188 95.3958 150.814 95.3958 151.607V156.867H102.075V155.447Z" fill="black"/>
<path d="M103.494 156.867C102.701 156.867 102.075 156.24 102.075 155.447V156.867H103.494Z" fill="black"/>
<path d="M122.112 155.447V151.607C122.112 150.814 121.486 150.188 120.693 150.188H116.853C116.059 150.188 115.433 150.814 115.433 151.607V156.867H122.112V155.447Z" fill="black"/>
<path d="M148.829 155.447V151.607C148.829 150.814 148.203 150.188 147.41 150.188H143.569C142.776 150.188 142.15 150.814 142.15 151.607V156.867H148.829V155.447Z" fill="black"/>
<path d="M154.089 156.867C154.882 156.867 155.508 156.24 155.508 155.447V156.867H154.089Z" fill="black"/>
<path d="M150.248 156.867C149.455 156.867 148.829 156.24 148.829 155.447V156.867H150.248Z" fill="black"/>
<path d="M162.187 150.188H155.508V156.867H162.187V150.188Z" fill="black"/>
<path d="M163.607 156.867C162.814 156.867 162.188 156.24 162.188 155.447V156.867H163.607Z" fill="black"/>
<path d="M174.126 156.867C174.92 156.867 175.546 156.24 175.546 155.447V156.867H174.126Z" fill="black"/>
<path d="M182.225 150.188H175.546V156.867H182.225V150.188Z" fill="black"/>
<path d="M183.644 150.188H182.225V151.607C182.225 150.835 182.872 150.188 183.644 150.188Z" fill="black"/>
<path d="M183.644 156.867C182.851 156.867 182.225 156.24 182.225 155.447V156.867H183.644Z" fill="black"/>
<path d="M215.621 151.607V150.188H214.201C214.995 150.188 215.621 150.835 215.621 151.607Z" fill="black"/>
<path d="M215.621 155.447C215.621 156.24 216.247 156.867 217.04 156.867H222.3V150.188H215.621V155.447Z" fill="black"/>
<path d="M228.979 150.188H222.3V156.867H228.979V150.188Z" fill="black"/>
<path d="M62 162.126C62 162.92 62.6262 163.546 63.4193 163.546H67.2598C68.053 163.546 68.6792 162.92 68.6792 162.126V156.867H62V162.126Z" fill="black"/>
<path d="M75.3583 162.126C75.3583 162.92 75.9845 163.546 76.7777 163.546H80.6182C81.4113 163.546 82.0375 162.92 82.0375 162.126V156.867H75.3583V162.126Z" fill="black"/>
<path d="M83.4568 156.867H82.0375V158.286C82.0375 157.514 82.6845 156.867 83.4568 156.867Z" fill="black"/>
<path d="M93.9765 156.867H90.136C89.3428 156.867 88.7167 157.493 88.7167 158.286V162.126C88.7167 162.92 89.3428 163.546 90.136 163.546H95.3958V156.867H93.9765Z" fill="black"/>
<path d="M102.075 156.867H95.3958V163.546H102.075V156.867Z" fill="black"/>
<path d="M103.494 163.546H107.335C108.128 163.546 108.754 162.92 108.754 162.126V158.286C108.754 157.493 108.128 156.867 107.335 156.867H102.075V163.546H103.494Z" fill="black"/>
<path d="M122.112 156.867H115.433V163.546H122.112V156.867Z" fill="black"/>
<path d="M123.532 163.546C122.739 163.546 122.112 162.92 122.112 162.126V163.546H123.532Z" fill="black"/>
<path d="M142.15 162.126C142.15 162.92 142.776 163.546 143.569 163.546H148.829V156.867H142.15V162.126Z" fill="black"/>
<path d="M155.508 156.867H148.829V163.546H155.508V156.867Z" fill="black"/>
<path d="M162.187 156.867H155.508V163.546H162.187V156.867Z" fill="black"/>
<path d="M168.867 156.867H162.188V163.546H168.867V156.867Z" fill="black"/>
<path d="M175.546 156.867H168.867V163.546H175.546V156.867Z" fill="black"/>
<path d="M182.225 156.867H175.546V163.546H182.225V156.867Z" fill="black"/>
<path d="M188.904 156.867H182.225V163.546H188.904V156.867Z" fill="black"/>
<path d="M195.583 156.867H188.904V163.546H195.583V156.867Z" fill="black"/>
<path d="M202.262 156.867H195.583V163.546H202.262V156.867Z" fill="black"/>
<path d="M203.682 163.546H207.522C208.315 163.546 208.942 162.92 208.942 162.126V158.286C208.942 157.493 208.315 156.867 207.522 156.867H202.262V163.546H203.682Z" fill="black"/>
<path d="M222.3 158.286V156.867H220.881C221.674 156.867 222.3 157.514 222.3 158.286Z" fill="black"/>
<path d="M228.979 156.867H222.3V163.546H228.979V156.867Z" fill="black"/>
<path d="M122.112 163.546H115.433V170.225H122.112V163.546Z" fill="black"/>
<path d="M128.792 163.546H122.112V170.225H128.792V163.546Z" fill="black"/>
<path d="M130.211 170.225H134.051C134.845 170.225 135.471 169.599 135.471 168.806V164.965C135.471 164.172 134.845 163.546 134.051 163.546H128.792V170.225H130.211Z" fill="black"/>
<path d="M155.508 164.965V163.546H154.089C154.882 163.546 155.508 164.193 155.508 164.965Z" fill="black"/>
<path d="M154.089 170.225C154.882 170.225 155.508 169.599 155.508 168.806V170.225H154.089Z" fill="black"/>
<path d="M162.187 163.546H155.508V170.225H162.187V163.546Z" fill="black"/>
<path d="M163.607 163.546H162.188V164.965C162.188 164.193 162.835 163.546 163.607 163.546Z" fill="black"/>
<path d="M168.867 164.965V163.546H167.447C168.24 163.546 168.867 164.193 168.867 164.965Z" fill="black"/>
<path d="M175.546 163.546H168.867V170.225H175.546V163.546Z" fill="black"/>
<path d="M176.965 163.546H175.546V164.965C175.546 164.193 176.193 163.546 176.965 163.546Z" fill="black"/>
<path d="M195.583 164.965V163.546H194.164C194.957 163.546 195.583 164.193 195.583 164.965Z" fill="black"/>
<path d="M202.262 163.546H195.583V170.225H202.262V163.546Z" fill="black"/>
<path d="M203.682 163.546H202.262V164.965C202.262 164.193 202.909 163.546 203.682 163.546Z" fill="black"/>
<path d="M220.881 170.225C221.674 170.225 222.3 169.599 222.3 168.806V170.225H220.881Z" fill="black"/>
<path d="M228.979 163.546H222.3V170.225H228.979V163.546Z" fill="black"/>
<path d="M115.433 175.485C115.433 176.278 116.059 176.904 116.853 176.904H120.693C121.486 176.904 122.112 176.278 122.112 175.485V170.225H115.433V175.485Z" fill="black"/>
<path d="M123.532 170.225H122.112V171.644C122.112 170.872 122.76 170.225 123.532 170.225Z" fill="black"/>
<path d="M134.052 176.904C134.845 176.904 135.471 176.278 135.471 175.485V176.904H134.052Z" fill="black"/>
<path d="M136.89 170.225C136.097 170.225 135.471 170.851 135.471 171.644V176.904H142.15V170.225H136.89Z" fill="black"/>
<path d="M148.829 170.225H142.15V176.904H148.829V170.225Z" fill="black"/>
<path d="M155.508 170.225H148.829V176.904H155.508V170.225Z" fill="black"/>
<path d="M162.187 170.225H155.508V176.904H162.187V170.225Z" fill="black"/>
<path d="M175.546 170.225H168.867V176.904H175.546V170.225Z" fill="black"/>
<path d="M183.644 170.225H187.485C188.278 170.225 188.904 170.851 188.904 171.644V175.485C188.904 176.278 188.278 176.904 187.485 176.904H183.644C182.851 176.904 182.225 176.278 182.225 175.485V171.644C182.225 170.872 182.872 170.225 183.644 170.225Z" fill="black"/>
<path d="M202.262 170.225H195.583V176.904H202.262V170.225Z" fill="black"/>
<path d="M203.682 176.904C202.889 176.904 202.262 176.278 202.262 175.485V176.904H203.682Z" fill="black"/>
<path d="M214.201 170.225H210.361C209.568 170.225 208.942 170.851 208.942 171.644V175.485C208.942 176.278 209.568 176.904 210.361 176.904H215.621V170.225H214.201Z" fill="black"/>
<path d="M222.3 170.225H215.621V176.904H222.3V170.225Z" fill="black"/>
<path d="M228.979 175.485C228.979 176.278 228.353 176.904 227.56 176.904H222.3V170.225H228.979V175.485Z" fill="black"/>
<path d="M120.693 183.583C121.486 183.583 122.112 182.957 122.112 182.164V183.583H120.693Z" fill="black"/>
<path d="M123.532 176.904C122.739 176.904 122.112 177.53 122.112 178.323V183.583H128.792V176.904H123.532Z" fill="black"/>
<path d="M135.471 176.904H128.792V183.583H135.471V176.904Z" fill="black"/>
<path d="M142.15 176.904H135.471V183.583H142.15V176.904Z" fill="black"/>
<path d="M143.569 176.904H142.15V178.324C142.15 177.551 142.797 176.904 143.569 176.904Z" fill="black"/>
<path d="M148.829 178.324V176.904H147.41C148.203 176.904 148.829 177.551 148.829 178.324Z" fill="black"/>
<path d="M143.569 183.583C142.776 183.583 142.15 182.957 142.15 182.164V183.583H143.569Z" fill="black"/>
<path d="M148.829 182.164C148.829 182.957 149.455 183.583 150.248 183.583H155.508V176.904H148.829V182.164Z" fill="black"/>
<path d="M162.187 182.164C162.187 182.957 161.561 183.583 160.768 183.583H155.508V176.904H162.187V182.164Z" fill="black"/>
<path d="M175.546 176.904H168.867V183.583H175.546V176.904Z" fill="black"/>
<path d="M176.965 183.583C176.172 183.583 175.546 182.957 175.546 182.164V183.583H176.965Z" fill="black"/>
<path d="M194.164 183.583C194.957 183.583 195.583 182.957 195.583 182.164V183.583H194.164Z" fill="black"/>
<path d="M202.262 176.904H195.583V183.583H202.262V176.904Z" fill="black"/>
<path d="M207.522 176.904C208.315 176.904 208.942 177.53 208.942 178.323V183.583H202.262V176.904H207.522Z" fill="black"/>
<path d="M116.853 183.583C116.059 183.583 115.433 184.209 115.433 185.003V190.262H122.112V183.583H116.853Z" fill="black"/>
<path d="M128.792 183.583H122.112V190.262H128.792V183.583Z" fill="black"/>
<path d="M135.471 183.583H128.792V190.262H135.471V183.583Z" fill="black"/>
<path d="M142.15 183.583H135.471V190.262H142.15V183.583Z" fill="black"/>
<path d="M147.41 183.583C148.203 183.583 148.829 184.209 148.829 185.003V190.262H142.15V183.583H147.41Z" fill="black"/>
<path d="M167.447 190.262C168.24 190.262 168.867 189.636 168.867 188.843V190.262H167.447Z" fill="black"/>
<path d="M175.546 183.583H168.867V190.262H175.546V183.583Z" fill="black"/>
<path d="M182.225 183.583H175.546V190.262H182.225V183.583Z" fill="black"/>
<path d="M188.904 183.583H182.225V190.262H188.904V183.583Z" fill="black"/>
<path d="M195.583 183.583H188.904V190.262H195.583V183.583Z" fill="black"/>
<path d="M202.262 183.583H195.583V190.262H202.262V183.583Z" fill="black"/>
<path d="M208.942 188.843C208.942 189.636 208.315 190.262 207.522 190.262H202.262V183.583H208.942V188.843Z" fill="black"/>
<path d="M122.112 190.262H115.433V196.942H122.112V190.262Z" fill="black"/>
<path d="M128.792 190.262H122.112V196.942H128.792V190.262Z" fill="black"/>
<path d="M135.471 195.522C135.471 196.315 134.845 196.942 134.051 196.942H128.792V190.262H135.471V195.522Z" fill="black"/>
<path d="M136.89 190.262H135.471V191.682C135.471 190.909 136.118 190.262 136.89 190.262Z" fill="black"/>
<path d="M142.15 191.682V190.262H140.731C141.524 190.262 142.15 190.909 142.15 191.682Z" fill="black"/>
<path d="M148.829 190.262H142.15V196.942H148.829V190.262Z" fill="black"/>
<path d="M167.447 190.262H163.607C162.814 190.262 162.188 190.889 162.188 191.682V195.522C162.188 196.315 162.814 196.942 163.607 196.942H168.867V190.262H167.447V190.262Z" fill="black"/>
<path d="M175.546 195.522C175.546 196.315 174.92 196.942 174.126 196.942H168.867V190.262H175.546V195.522V195.522Z" fill="black"/>
<path d="M176.965 190.262H175.546V191.682C175.546 190.909 176.193 190.262 176.965 190.262Z" fill="black"/>
<path d="M182.225 191.682V190.262H180.806C181.599 190.262 182.225 190.909 182.225 191.682Z" fill="black"/>
<path d="M182.225 195.522C182.225 196.315 182.851 196.942 183.644 196.942H187.485C188.278 196.942 188.904 196.315 188.904 195.522V190.262H182.225V195.522Z" fill="black"/>
<path d="M190.323 190.262H188.904V191.682C188.904 190.909 189.551 190.262 190.323 190.262Z" fill="black"/>
<path d="M195.583 191.682V190.262H194.164C194.957 190.262 195.583 190.909 195.583 191.682Z" fill="black"/>
<path d="M202.262 190.262H195.583V196.942H202.262V190.262Z" fill="black"/>
<path d="M203.682 190.262H202.262V191.682C202.262 190.909 202.909 190.262 203.682 190.262Z" fill="black"/>
<path d="M220.881 190.262H217.04C216.247 190.262 215.621 190.889 215.621 191.682V195.522C215.621 196.315 216.247 196.942 217.04 196.942H222.3V190.262H220.881V190.262Z" fill="black"/>
<path d="M227.56 190.262C228.353 190.262 228.979 190.889 228.979 191.682V196.942H222.3V190.262H227.56Z" fill="black"/>
<path d="M122.112 196.942H115.433V203.621H122.112V196.942Z" fill="black"/>
<path d="M123.532 196.942H122.112V198.361C122.112 197.589 122.76 196.942 123.532 196.942Z" fill="black"/>
<path d="M148.829 196.942H142.15V203.621H148.829V196.942Z" fill="black"/>
<path d="M156.928 196.942H160.768C161.561 196.942 162.187 197.568 162.187 198.361V202.201C162.187 202.995 161.561 203.621 160.768 203.621H156.928C156.134 203.621 155.508 202.995 155.508 202.201V198.361C155.508 197.589 156.155 196.942 156.928 196.942Z" fill="black"/>
<path d="M194.164 203.621C194.957 203.621 195.583 202.995 195.583 202.202V203.621H194.164Z" fill="black"/>
<path d="M202.262 196.942H195.583V203.621H202.262V196.942Z" fill="black"/>
<path d="M203.682 203.621C202.889 203.621 202.262 202.995 202.262 202.202V203.621H203.682Z" fill="black"/>
<path d="M210.361 196.942H214.201C214.995 196.942 215.621 197.568 215.621 198.361V202.201C215.621 202.995 214.995 203.621 214.201 203.621H210.361C209.568 203.621 208.942 202.995 208.942 202.201V198.361C208.942 197.589 209.589 196.942 210.361 196.942Z" fill="black"/>
<path d="M222.3 198.361V196.942H220.881C221.674 196.942 222.3 197.589 222.3 198.361Z" fill="black"/>
<path d="M222.3 202.201C222.3 202.995 222.926 203.621 223.719 203.621H227.56C228.353 203.621 228.979 202.995 228.979 202.201V196.942H222.3V202.201V202.201Z" fill="black"/>
<path d="M122.112 203.621H115.433V210.3H122.112V203.621Z" fill="black"/>
<path d="M135.471 208.881V205.04C135.471 204.247 134.845 203.621 134.051 203.621H130.211C129.418 203.621 128.792 204.247 128.792 205.04V210.3H135.471V208.881Z" fill="black"/>
<path d="M148.829 203.621H142.15V210.3H148.829V203.621Z" fill="black"/>
<path d="M174.126 203.621H170.286C169.493 203.621 168.867 204.247 168.867 205.04V208.881C168.867 209.674 169.493 210.3 170.286 210.3H175.546V203.621H174.126V203.621Z" fill="black"/>
<path d="M182.225 203.621H175.546V210.3H182.225V203.621Z" fill="black"/>
<path d="M188.904 203.621H182.225V210.3H188.904V203.621Z" fill="black"/>
<path d="M195.583 203.621H188.904V210.3H195.583V203.621Z" fill="black"/>
<path d="M202.262 203.621H195.583V210.3H202.262V203.621Z" fill="black"/>
<path d="M203.682 210.3H207.522C208.315 210.3 208.942 209.674 208.942 208.881V205.04C208.942 204.247 208.315 203.621 207.522 203.621H202.262V210.3H203.682V210.3Z" fill="black"/>
<path d="M214.201 210.3C214.995 210.3 215.621 209.674 215.621 208.881V210.3H214.201Z" fill="black"/>
<path d="M222.3 208.881V205.04C222.3 204.247 221.674 203.621 220.881 203.621H217.04C216.247 203.621 215.621 204.247 215.621 205.04V210.3H222.3V208.881V208.881Z" fill="black"/>
<path d="M223.719 210.3C222.926 210.3 222.3 209.674 222.3 208.881V210.3H223.719Z" fill="black"/>
<path d="M115.433 215.56C115.433 216.353 116.059 216.979 116.853 216.979H120.693C121.486 216.979 122.112 216.353 122.112 215.56V210.3H115.433V215.56Z" fill="black"/>
<path d="M128.792 215.56C128.792 216.353 129.418 216.979 130.211 216.979H134.051C134.845 216.979 135.471 216.353 135.471 215.56V210.3H128.792V215.56Z" fill="black"/>
<path d="M142.15 215.56C142.15 216.353 142.776 216.979 143.569 216.979H147.41C148.203 216.979 148.829 216.353 148.829 215.56V210.3H142.15V215.56Z" fill="black"/>
<path d="M160.768 210.3H156.928C156.134 210.3 155.508 210.926 155.508 211.719V215.56C155.508 216.353 156.134 216.979 156.928 216.979H162.187V210.3H160.768V210.3Z" fill="black"/>
<path d="M163.607 216.979H167.447C168.24 216.979 168.867 216.353 168.867 215.56V211.719C168.867 210.926 168.24 210.3 167.447 210.3H162.188V216.979H163.607Z" fill="black"/>
<path d="M214.201 210.3H210.361C209.568 210.3 208.942 210.926 208.942 211.719V215.56C208.942 216.353 209.568 216.979 210.361 216.979H215.621V210.3H214.201V210.3Z" fill="black"/>
<path d="M222.3 210.3H215.621V216.979H222.3V210.3Z" fill="black"/>
<path d="M223.719 216.979H227.56C228.353 216.979 228.979 216.353 228.979 215.56V211.719C228.979 210.926 228.353 210.3 227.56 210.3H222.3V216.979H223.719Z" fill="black"/>
<path d="M63.4193 50C62.647 50 62 50.647 62 51.4193V56.6792V63.3583V70.0375V76.7167V83.3958V90.075V95.3348C62 96.1071 62.6262 96.7541 63.4193 96.7541H107.335C108.107 96.7541 108.754 96.128 108.754 95.3348V90.075V83.3958V76.7167V70.0375V63.3583V56.6792V51.4193C108.754 50.647 108.128 50 107.335 50H63.4193ZM102.075 63.3583V70.0375V76.7167V83.3958V89.261C102.075 89.7202 101.699 90.075 101.261 90.075H69.4932C69.034 90.075 68.6792 89.6993 68.6792 89.261V83.3958V76.7167V70.0375V63.3583V57.4932C68.6792 57.034 69.0549 56.6792 69.4932 56.6792H101.261C101.72 56.6792 102.075 57.0549 102.075 57.4932V63.3583V63.3583Z" fill="black"/>
<path d="M95.3958 76.7167V70.0376V64.7777C95.3958 64.0054 94.7697 63.3584 93.9765 63.3584H76.7777C76.0054 63.3584 75.3583 63.9846 75.3583 64.7777V70.0376V76.7167V81.9766C75.3583 82.7488 75.9845 83.3959 76.7777 83.3959H93.9765C94.7488 83.3959 95.3958 82.7697 95.3958 81.9766V76.7167Z" fill="black"/>
<path d="M183.644 50C182.872 50 182.225 50.647 182.225 51.4193V56.6792V63.3583V70.0375V76.7167V83.3958V90.075V95.3348C182.225 96.1071 182.851 96.7541 183.644 96.7541H227.56C228.332 96.7541 228.979 96.128 228.979 95.3348V90.075V83.3958V76.7167V70.0375V63.3583V56.6792V51.4193C228.979 50.647 228.353 50 227.56 50H183.644ZM222.3 63.3583V70.0375V76.7167V83.3958V89.261C222.3 89.7202 221.924 90.075 221.486 90.075H189.718C189.259 90.075 188.904 89.6993 188.904 89.261V83.3958V76.7167V70.0375V63.3583V57.4932C188.904 57.034 189.28 56.6792 189.718 56.6792H221.486C221.945 56.6792 222.3 57.0549 222.3 57.4932V63.3583Z" fill="black"/>
<path d="M215.621 76.7167V70.0376V64.7777C215.621 64.0054 214.995 63.3584 214.201 63.3584H197.003C196.23 63.3584 195.583 63.9846 195.583 64.7777V70.0376V76.7167V81.9766C195.583 82.7488 196.209 83.3959 197.003 83.3959H214.201C214.974 83.3959 215.621 82.7697 215.621 81.9766V76.7167V76.7167Z" fill="black"/>
<path d="M63.4193 170.225C62.647 170.225 62 170.872 62 171.644V176.904V183.583V190.262V196.942V203.621V210.3V215.56C62 216.332 62.6262 216.979 63.4193 216.979H107.335C108.107 216.979 108.754 216.353 108.754 215.56V210.3V203.621V196.942V190.262V183.583V176.904V171.644C108.754 170.872 108.128 170.225 107.335 170.225C107.335 170.225 63.4193 170.225 63.4193 170.225ZM102.075 183.583V190.262V196.942V203.621V209.486C102.075 209.945 101.699 210.3 101.261 210.3H69.4932C69.034 210.3 68.6792 209.924 68.6792 209.486V203.621V196.942V190.262V183.583V177.718C68.6792 177.259 69.0549 176.904 69.4932 176.904H101.261C101.72 176.904 102.075 177.28 102.075 177.718V183.583V183.583Z" fill="black"/>
<path d="M95.3958 196.942V190.262V185.003C95.3958 184.23 94.7697 183.583 93.9765 183.583H76.7777C76.0054 183.583 75.3583 184.209 75.3583 185.003V190.262V196.942V202.201C75.3583 202.974 75.9845 203.621 76.7777 203.621H93.9765C94.7488 203.621 95.3958 202.995 95.3958 202.201V196.942Z" fill="black"/>
<path fill-rule="evenodd" clip-rule="evenodd" d="M6 22C6 9.84974 15.8497 0 28 0H67.5C68.6046 0 69.5 0.89543 69.5 2C69.5 3.10457 68.6046 4 67.5 4H28C18.0589 4 10 12.0589 10 22V56C10 57.1046 9.10457 58 8 58C6.89543 58 6 57.1046 6 56V22Z" fill="#909090"/>
<path fill-rule="evenodd" clip-rule="evenodd" d="M31 265.5C18.8497 265.5 9 255.65 9 243.5L9 204C9 202.895 9.89543 202 11 202C12.1046 202 13 202.895 13 204L13 243.5C13 253.441 21.0589 261.5 31 261.5L65 261.5C66.1046 261.5 67 262.395 67 263.5C67 264.605 66.1046 265.5 65 265.5L31 265.5Z" fill="#909090"/>
<path fill-rule="evenodd" clip-rule="evenodd" d="M262 -9.61651e-07C274.15 -4.30546e-07 284 9.84974 284 22L284 61.5C284 62.6046 283.105 63.5 282 63.5C280.895 63.5 280 62.6046 280 61.5L280 22C280 12.0589 271.941 4 262 4L228 4C226.895 4 226 3.10457 226 2C226 0.895428 226.895 -2.49612e-06 228 -2.44784e-06L262 -9.61651e-07Z" fill="#909090"/>
<path fill-rule="evenodd" clip-rule="evenodd" d="M283.5 244C283.5 256.15 273.65 266 261.5 266L222 266C220.895 266 220 265.105 220 264C220 262.895 220.895 262 222 262L261.5 262C271.441 262 279.5 253.941 279.5 244L279.5 210C279.5 208.895 280.395 208 281.5 208C282.605 208 283.5 208.895 283.5 210L283.5 244Z" fill="#909090"/>
<rect x="3" y="128" width="284" height="13" rx="6.5" fill="url(#paint0_linear)" stroke="#F2F4F8" stroke-width="6"/>
<defs>
<linearGradient id="paint0_linear" x1="116.5" y1="89" x2="254" y2="249" gradientUnits="userSpaceOnUse">
<stop stop-color="#00DCC8"/>
<stop offset="1" stop-color="#FFF061"/>
</linearGradient>
</defs>
</svg>
