<svg width="791" height="130" viewBox="0 0 791 130" fill="none" xmlns="http://www.w3.org/2000/svg">
<path d="M23.0837 48.512C36.1398 48.512 45.7397 38.848 45.7397 25.6C45.7397 12.352 36.1398 2.688 23.0837 2.688C9.96375 2.688 0.363749 12.352 0.363749 25.6C0.363749 38.848 9.96375 48.512 23.0837 48.512ZM23.0837 40.96C14.9557 40.96 9.13175 34.496 9.13175 25.6C9.13175 16.704 14.9557 10.176 23.0837 10.176C31.2118 10.176 36.9718 16.704 36.9718 25.6C36.9718 34.496 31.2118 40.96 23.0837 40.96ZM71.4228 23.552L71.9348 15.744C70.9748 15.424 69.5668 15.232 68.4148 15.232C64.5108 15.232 60.2868 17.984 58.6868 21.632V15.744H50.6228V48H58.6868V36.16C58.6868 26.56 62.7828 22.784 67.3268 22.784C68.7348 22.784 70.2708 23.04 71.4228 23.552ZM119.838 30.784C119.838 23.296 114.526 15.232 103.646 15.232C92.9578 15.232 87.7098 23.488 87.7098 31.872C87.7098 40.256 93.4058 48.512 104.094 48.512C111.646 48.512 117.278 44.928 119.07 38.848L111.518 36.8C110.686 39.936 107.998 41.728 104.222 41.728C99.6138 41.728 96.4778 38.848 95.7738 33.984H119.71C119.774 33.344 119.838 31.936 119.838 30.784ZM95.9658 28.096C96.8618 23.744 99.6778 21.376 103.646 21.376C108.318 21.376 110.814 24.256 111.198 28.096H95.9658ZM131.667 48H139.155L150.931 15.744H142.739L135.379 38.656L128.019 15.744H119.891L131.667 48ZM183.09 30.784C183.09 23.296 177.778 15.232 166.898 15.232C156.21 15.232 150.962 23.488 150.962 31.872C150.962 40.256 156.658 48.512 167.346 48.512C174.898 48.512 180.53 44.928 182.322 38.848L174.77 36.8C173.938 39.936 171.25 41.728 167.474 41.728C162.866 41.728 159.73 38.848 159.026 33.984H182.962C183.026 33.344 183.09 31.936 183.09 30.784ZM159.218 28.096C160.114 23.744 162.93 21.376 166.898 21.376C171.57 21.376 174.066 24.256 174.45 28.096H159.218ZM187.91 48H195.974V33.856C195.974 26.624 198.854 22.4 203.782 22.4C207.558 22.4 209.926 25.024 209.926 28.8V48H217.99V26.88C217.99 19.84 213.254 15.232 206.214 15.232C201.67 15.232 198.022 17.472 195.974 20.608V15.744H187.91V48ZM257.736 47.68L257.16 40.64C256.008 41.216 254.6 41.408 253.384 41.408C250.888 41.408 249.224 39.744 249.224 36.672V22.528H257.352V15.744H249.224V6.272H241.16V15.744H235.72V22.528H241.16V37.44C241.16 44.992 246.024 48.512 252.552 48.512C254.408 48.512 256.136 48.256 257.736 47.68ZM263.633 48H271.697V33.984C271.697 26.688 274.513 22.4 279.505 22.4C283.473 22.4 285.905 24.896 285.905 28.864V48H293.969V26.88C293.969 19.84 289.169 15.232 281.937 15.232C277.457 15.232 273.809 17.216 271.697 20.736V2.688H263.633V48ZM321.278 23.552L321.79 15.744C320.83 15.424 319.422 15.232 318.27 15.232C314.366 15.232 310.142 17.984 308.542 21.632V15.744H300.478V48H308.542V36.16C308.542 26.56 312.638 22.784 317.182 22.784C318.59 22.784 320.126 23.04 321.278 23.552ZM339.177 48.512C348.969 48.512 356.009 41.472 356.009 31.872C356.009 22.272 348.969 15.232 339.177 15.232C329.385 15.232 322.345 22.272 322.345 31.872C322.345 41.472 329.385 48.512 339.177 48.512ZM339.177 41.536C333.929 41.536 330.473 37.632 330.473 31.872C330.473 26.112 333.929 22.208 339.177 22.208C344.361 22.208 347.881 26.112 347.881 31.872C347.881 37.632 344.361 41.536 339.177 41.536ZM367.157 48H374.325L380.981 26.944L387.509 48H394.741L404.725 15.744H396.597L391.093 36.736L384.629 15.744H377.269L370.805 36.736L365.237 15.744H357.109L367.157 48ZM435.274 15.232C428.426 15.232 422.73 19.328 421.706 25.728L428.874 27.008C429.258 23.552 431.754 21.376 435.274 21.376C439.178 21.376 441.674 23.616 441.674 27.264V27.584L435.658 28.16C426.058 29.184 421.258 32.576 421.258 38.912C421.258 44.416 425.674 48.512 432.01 48.512C435.978 48.512 439.882 46.464 441.674 43.328V48H449.482V28.352C449.482 19.776 443.722 15.232 435.274 15.232ZM433.802 42.56C430.858 42.56 429.066 40.896 429.066 38.656C429.066 36.352 431.242 34.56 435.53 34.048L441.674 33.344V34.048C441.674 38.784 438.794 42.56 433.802 42.56ZM470.173 59.648H478.237V44.8C480.093 47.104 483.549 48.512 487.261 48.512C496.733 48.512 502.813 41.728 502.813 31.872C502.813 22.016 497.117 15.232 487.837 15.232C483.549 15.232 480.029 16.96 478.237 19.456V15.744H470.173V59.648ZM486.301 41.536C481.117 41.536 477.725 37.696 477.725 31.872C477.725 26.048 481.117 22.208 486.301 22.208C491.421 22.208 494.813 26.048 494.813 31.872C494.813 37.696 491.421 41.536 486.301 41.536ZM519.934 15.232C513.086 15.232 507.39 19.328 506.366 25.728L513.534 27.008C513.918 23.552 516.414 21.376 519.934 21.376C523.838 21.376 526.334 23.616 526.334 27.264V27.584L520.318 28.16C510.718 29.184 505.918 32.576 505.918 38.912C505.918 44.416 510.334 48.512 516.67 48.512C520.638 48.512 524.542 46.464 526.334 43.328V48H534.142V28.352C534.142 19.776 528.382 15.232 519.934 15.232ZM518.462 42.56C515.518 42.56 513.726 40.896 513.726 38.656C513.726 36.352 515.902 34.56 520.19 34.048L526.334 33.344V34.048C526.334 38.784 523.454 42.56 518.462 42.56ZM559.234 23.232L559.81 15.424C559.81 15.424 558.978 15.232 557.89 15.232C553.986 15.232 550.274 17.92 548.802 21.632V15.744H540.738V48H548.802V36.16C548.802 26.56 552.578 22.976 557.058 22.976C558.338 22.976 559.234 23.232 559.234 23.232ZM584.594 47.68L584.018 40.64C582.866 41.216 581.458 41.408 580.242 41.408C577.746 41.408 576.082 39.744 576.082 36.672V22.528H584.21V15.744H576.082V6.272H568.018V15.744H562.578V22.528H568.018V37.44C568.018 44.992 572.882 48.512 579.41 48.512C581.266 48.512 582.994 48.256 584.594 47.68ZM609.985 15.744L601.985 36.48L594.241 15.744H585.473L598.017 46.72L593.025 59.648H601.217L618.241 15.744H609.985ZM674.597 48L666.789 39.04L672.869 32.064L666.917 26.496L661.285 32.704L654.629 25.088C658.533 22.656 661.989 19.456 661.989 13.888C661.989 7.04 657.573 2.688 650.597 2.688C643.557 2.688 639.013 7.04 639.013 13.888C639.013 16.832 640.229 19.52 643.045 23.104C638.629 25.472 634.597 28.672 634.597 34.944C634.597 43.2 640.357 48.512 649.125 48.512C653.669 48.512 657.765 46.912 661.285 44.352L664.421 48H674.597ZM646.437 13.888C646.437 11.392 648.101 9.728 650.597 9.728C652.965 9.728 654.757 11.392 654.757 13.888C654.757 16.576 652.709 18.24 649.957 19.712C648.101 17.664 646.437 15.552 646.437 13.888ZM649.701 41.088C645.605 41.088 642.789 38.592 642.789 34.944C642.789 32.192 644.965 30.464 647.845 28.8L655.973 38.208C653.925 40 651.877 41.088 649.701 41.088ZM696.288 10.816C699.232 10.816 701.408 8.64 701.408 5.824C701.408 3.072 699.232 0.895996 696.288 0.895996C693.408 0.895996 691.296 3.072 691.296 5.824C691.296 8.64 693.408 10.816 696.288 10.816ZM688.416 60.16C695.584 60.16 700.256 55.488 700.256 48.32V15.744H692.192V47.232C692.192 50.944 690.656 53.12 687.456 53.12C686.944 53.12 686.88 53.12 686.176 53.056L686.368 60.032C686.368 60.032 687.84 60.16 688.416 60.16ZM736.733 15.744H728.669V29.888C728.669 37.12 725.853 41.344 720.861 41.344C717.085 41.344 714.717 38.72 714.717 34.944V15.744H706.653V36.864C706.653 43.904 711.453 48.512 718.429 48.512C722.973 48.512 726.621 46.272 728.669 43.136V48H736.733V15.744ZM754.574 48.512C761.998 48.512 766.99 44.032 766.99 38.464C766.99 25.28 749.262 29.824 749.262 24.128C749.262 22.272 750.99 21.184 753.55 21.184C756.174 21.184 758.99 22.784 759.886 25.856L766.414 23.104C765.006 18.432 759.694 15.232 753.422 15.232C746.382 15.232 741.966 19.2 741.966 24.256C741.966 36.48 759.566 32.512 759.566 38.592C759.566 40.64 757.582 42.24 754.574 42.24C750.542 42.24 748.046 39.552 747.086 36.288L740.494 38.976C742.094 43.712 746.766 48.512 754.574 48.512ZM790.229 47.68L789.653 40.64C788.501 41.216 787.093 41.408 785.877 41.408C783.381 41.408 781.717 39.744 781.717 36.672V22.528H789.845V15.744H781.717V6.272H773.653V15.744H768.213V22.528H773.653V37.44C773.653 44.992 778.517 48.512 785.045 48.512C786.901 48.512 788.629 48.256 790.229 47.68ZM71.9155 118H80.6195V100.528H89.9635C99.0515 100.528 104.876 95.152 104.876 86.896C104.876 78.576 99.0515 73.2 89.9635 73.2H71.9155V118ZM80.6195 93.04V80.688H89.1955C93.5475 80.688 96.1715 82.992 96.1715 86.896C96.1715 90.736 93.5475 93.04 89.1955 93.04H80.6195ZM119.73 85.232C112.882 85.232 107.186 89.328 106.162 95.728L113.33 97.008C113.714 93.552 116.21 91.376 119.73 91.376C123.634 91.376 126.13 93.616 126.13 97.264V97.584L120.114 98.16C110.514 99.184 105.714 102.576 105.714 108.912C105.714 114.416 110.13 118.512 116.466 118.512C120.434 118.512 124.338 116.464 126.13 113.328V118H133.938V98.352C133.938 89.776 128.178 85.232 119.73 85.232ZM118.258 112.56C115.314 112.56 113.522 110.896 113.522 108.656C113.522 106.352 115.698 104.56 119.986 104.048L126.13 103.344V104.048C126.13 108.784 123.25 112.56 118.258 112.56ZM160.279 85.744L152.279 106.48L144.535 85.744H135.767L148.311 116.72L143.319 129.648H151.511L168.535 85.744H160.279ZM193.851 118H201.915V73.2H195.259C191.995 76.4 187.707 78.832 183.547 79.792V87.536C187.515 86.768 190.779 85.232 193.851 82.8V118ZM205.237 118.064H213.621L233.781 73.2H225.333L205.237 118.064ZM251.189 118.512C261.429 118.512 268.213 112.624 268.213 103.728C268.213 95.28 262.389 90.16 254.005 90.48L265.461 80.24V73.2H235.765V80.688H255.285L242.997 91.888L246.389 97.584C247.861 96.56 249.909 96.112 251.445 96.112C256.373 96.112 259.509 98.928 259.509 103.536C259.509 107.952 256.181 110.96 251.253 110.96C246.517 110.96 243.061 108.208 242.421 104.048L234.485 105.328C235.317 113.264 241.973 118.512 251.189 118.512ZM293.934 93.552L294.446 85.744C293.486 85.424 292.078 85.232 290.926 85.232C287.022 85.232 282.798 87.984 281.198 91.632V85.744H273.134V118H281.198V106.16C281.198 96.56 285.294 92.784 289.838 92.784C291.246 92.784 292.782 93.04 293.934 93.552ZM310.361 118.512C314.393 118.512 317.977 116.848 319.577 114.288V118H327.641V72.688H319.577V89.328C317.721 86.896 314.265 85.232 310.233 85.232C300.697 85.232 295.001 92.016 295.001 101.872C295.001 111.728 300.697 118.512 310.361 118.512ZM311.513 111.536C306.393 111.536 303.001 107.696 303.001 101.872C303.001 96.048 306.393 92.208 311.513 92.208C316.697 92.208 320.089 96.048 320.089 101.872C320.089 107.696 316.697 111.536 311.513 111.536ZM378.694 100.784C378.694 93.296 373.382 85.232 362.502 85.232C351.814 85.232 346.566 93.488 346.566 101.872C346.566 110.256 352.262 118.512 362.95 118.512C370.502 118.512 376.134 114.928 377.926 108.848L370.374 106.8C369.542 109.936 366.854 111.728 363.078 111.728C358.47 111.728 355.334 108.848 354.63 103.984H378.566C378.63 103.344 378.694 101.936 378.694 100.784ZM354.822 98.096C355.718 93.744 358.534 91.376 362.502 91.376C367.174 91.376 369.67 94.256 370.054 98.096H354.822ZM390.523 118H398.011L409.787 85.744H401.595L394.235 108.656L386.875 85.744H378.747L390.523 118ZM441.947 100.784C441.947 93.296 436.635 85.232 425.755 85.232C415.067 85.232 409.819 93.488 409.819 101.872C409.819 110.256 415.515 118.512 426.203 118.512C433.755 118.512 439.387 114.928 441.179 108.848L433.627 106.8C432.795 109.936 430.107 111.728 426.331 111.728C421.723 111.728 418.587 108.848 417.883 103.984H441.819C441.883 103.344 441.947 101.936 441.947 100.784ZM418.075 98.096C418.971 93.744 421.787 91.376 425.755 91.376C430.427 91.376 432.923 94.256 433.307 98.096H418.075ZM467.566 93.552L468.078 85.744C467.118 85.424 465.71 85.232 464.558 85.232C460.654 85.232 456.43 87.984 454.83 91.632V85.744H446.766V118H454.83V106.16C454.83 96.56 458.926 92.784 463.47 92.784C464.878 92.784 466.414 93.04 467.566 93.552ZM492.606 85.744L484.606 106.48L476.862 85.744H468.094L480.638 116.72L475.646 129.648H483.838L500.862 85.744H492.606ZM518.114 118H526.178V101.616C526.178 95.92 528.674 92.08 533.09 92.08C536.802 92.08 538.85 94.512 538.85 98.352V118H546.914V101.552C546.914 95.856 549.41 92.08 553.762 92.08C557.538 92.08 559.65 94.512 559.65 98.352V118H567.714V96.112C567.714 89.776 563.17 85.232 556.194 85.232C551.074 85.232 547.234 88.048 545.506 91.312C544.034 87.408 540.578 85.232 535.458 85.232C530.978 85.232 527.97 87.472 526.178 90.672V85.744H518.114V118ZM589.375 118.512C599.167 118.512 606.207 111.472 606.207 101.872C606.207 92.272 599.167 85.232 589.375 85.232C579.583 85.232 572.543 92.272 572.543 101.872C572.543 111.472 579.583 118.512 589.375 118.512ZM589.375 111.536C584.127 111.536 580.671 107.632 580.671 101.872C580.671 96.112 584.127 92.208 589.375 92.208C594.559 92.208 598.079 96.112 598.079 101.872C598.079 107.632 594.559 111.536 589.375 111.536ZM610.992 118H619.056V103.856C619.056 96.624 621.936 92.4 626.864 92.4C630.64 92.4 633.008 95.024 633.008 98.8V118H641.072V96.88C641.072 89.84 636.336 85.232 629.296 85.232C624.752 85.232 621.104 87.472 619.056 90.608V85.744H610.992V118ZM665.66 117.68L665.084 110.64C663.932 111.216 662.524 111.408 661.308 111.408C658.812 111.408 657.148 109.744 657.148 106.672V92.528H665.276V85.744H657.148V76.272H649.084V85.744H643.644V92.528H649.084V107.44C649.084 114.992 653.948 118.512 660.476 118.512C662.332 118.512 664.06 118.256 665.66 117.68ZM671.557 118H679.621V103.984C679.621 96.688 682.437 92.4 687.429 92.4C691.397 92.4 693.829 94.896 693.829 98.864V118H701.893V96.88C701.893 89.84 697.093 85.232 689.861 85.232C685.381 85.232 681.733 87.216 679.621 90.736V72.688H671.557V118ZM713.393 118.512C716.273 118.512 718.385 116.4 718.385 113.584C718.385 110.768 716.273 108.656 713.393 108.656C710.577 108.656 708.401 110.768 708.401 113.584C708.401 116.4 710.577 118.512 713.393 118.512Z" fill="url(#paint0_linear)"/>
<defs>
<linearGradient id="paint0_linear" x1="-141.74" y1="133" x2="924.827" y2="133" gradientUnits="userSpaceOnUse">
<stop offset="0.351763" stop-color="#8FFFEF"/>
<stop offset="0.663558" stop-color="#C8FF9E"/>
<stop offset="1" stop-color="#FFF38F"/>
</linearGradient>
</defs>
</svg>
