<svg width="153" height="49" fill="none" xmlns="http://www.w3.org/2000/svg"><g clip-path="url(#clip0)" fill="#000"><path d="M66.3 48.293H53.906L61.658.859h12.394L66.3 48.293zM111.23 2.02C108.785 1.06 104.908 0 100.113 0c-12.24 0-20.858 6.459-20.911 15.693-.102 6.812 6.17 10.596 10.862 12.868 4.795 2.321 6.425 3.836 6.425 5.905-.049 3.178-3.875 4.643-7.443 4.643-4.948 0-7.6-.755-11.629-2.523l-1.632-.758-1.734 10.648c2.907 1.31 8.262 2.473 13.823 2.524 13.004 0 21.471-6.359 21.571-16.199.05-5.4-3.263-9.537-10.403-12.918-4.335-2.17-6.99-3.634-6.99-5.854.05-2.02 2.245-4.087 7.139-4.087 4.029-.101 6.989.857 9.232 1.816l1.121.504L111.23 2.02zM127.703 31.489c1.021-2.725 4.948-13.272 4.948-13.272-.051.102 1.019-2.775 1.631-4.54l.866 4.086s2.347 11.354 2.857 13.726h-10.302zM143.002.859h-9.587c-2.956 0-5.202.858-6.478 3.936l-18.41 43.497h13.005l2.601-7.115h15.913c.356 1.665 1.479 7.115 1.479 7.115h11.476L143.002.859zM43.553.86L31.415 33.203l-1.326-6.56c-2.244-7.569-9.282-15.793-17.136-19.882l11.118 41.48h13.106L56.66.86H43.553z"/><path d="M20.145.86H.204L0 1.817c15.555 3.936 25.857 13.424 30.09 24.828l-4.335-21.8C25.04 1.818 22.848.96 20.145.86z"/></g><defs><clipPath id="clip0"><path fill="#fff" d="M0 0h153v49H0z"/></clipPath></defs></svg>